<!-- Generated by IcoMoon.io -->
<svg version="1.1" xmlns="http://www.w3.org/2000/svg" width="29" height="32" viewBox="0 0 29 32">
<title>attention</title>
<path d="M28.96 24.736c0.256 0.448 0.352 0.96 0.352 1.44 0 1.696-1.312 2.912-2.88 2.912h-23.52c-1.536 0-2.912-1.28-2.912-2.912 0-0.48 0.128-0.992 0.416-1.44l11.776-20.384c0.48-0.896 1.408-1.44 2.496-1.44 1.024 0 1.952 0.544 2.464 1.44zM12.576 9.632v9.568h4.256v-9.568h-4.256zM14.72 21.44c-1.344 0-2.4 1.024-2.4 2.432 0 1.312 1.056 2.368 2.4 2.368s2.4-1.056 2.4-2.368c0-1.376-1.024-2.432-2.4-2.432z"></path>
</svg>
