<!-- Generated by IcoMoon.io -->
<svg version="1.1" xmlns="http://www.w3.org/2000/svg" width="27" height="32" viewBox="0 0 27 32">
<title>copyright</title>
<path d="M20.544 19.168v1.952q0 0.896-0.672 1.6t-1.664 1.088-2.112 0.576-2.080 0.192q-3.68 0-6.144-2.496t-2.432-6.176q0-3.616 2.432-6.048t6.048-2.432q0.608 0 1.344 0.096t1.664 0.32 1.632 0.608 1.248 0.992 0.48 1.44v1.952q0 0.288-0.256 0.288h-2.112q-0.288 0-0.288-0.288v-1.248q0-0.768-1.184-1.216t-2.432-0.416q-2.528 0-4.096 1.632t-1.568 4.224q0 2.72 1.632 4.48t4.16 1.76q1.216 0 2.464-0.448t1.248-1.184v-1.248q0-0.128 0.096-0.192t0.16-0.096h2.144q0.096 0 0.192 0.096t0.096 0.192zM13.728 4.576q-2.336 0-4.448 0.896t-3.648 2.432-2.432 3.648-0.928 4.448 0.928 4.448 2.432 3.616 3.648 2.464 4.448 0.896 4.416-0.896 3.648-2.464 2.432-3.616 0.928-4.448-0.928-4.448-2.432-3.648-3.648-2.432-4.416-0.896zM27.424 16q0 3.744-1.824 6.88t-4.992 4.992-6.88 1.856-6.912-1.856-4.96-4.992-1.856-6.88 1.856-6.88 4.96-4.992 6.912-1.856 6.88 1.856 4.992 4.992 1.824 6.88z"></path>
</svg>
