<!-- Generated by IcoMoon.io -->
<svg version="1.1" xmlns="http://www.w3.org/2000/svg" width="32" height="32" viewBox="0 0 32 32">
<title>facebook</title>
<path d="M7.68 17.152v-5.92h4.768v-2.976c-0.001-0.046-0.002-0.101-0.002-0.155 0-2.060 0.805-3.933 2.117-5.32l-0.003 0.004c1.225-1.377 3.002-2.24 4.98-2.24 0.015 0 0.031 0 0.046 0h4.734v5.888h-4.736c-0.341 0.036-0.631 0.231-0.797 0.507l-0.003 0.005c-0.241 0.332-0.386 0.747-0.386 1.196 0 0.029 0.001 0.059 0.002 0.088l-0-0.004v3.008h5.952v5.92h-5.952v14.304h-5.952v-14.304z"></path>
</svg>
