<!-- Generated by IcoMoon.io -->
<svg version="1.1" xmlns="http://www.w3.org/2000/svg" width="32" height="32" viewBox="0 0 32 32">
<title>flickr</title>
<path d="M7.936 22.336c-0.014 0-0.031 0-0.047 0-1.695 0-3.223-0.712-4.302-1.853l-0.003-0.003c-1.146-1.117-1.857-2.676-1.857-4.401 0-0.028 0-0.056 0.001-0.084l-0 0.004c-0.001-0.038-0.001-0.083-0.001-0.129 0-1.714 0.698-3.264 1.825-4.383l0-0c1.084-1.126 2.605-1.825 4.289-1.825 0.034 0 0.067 0 0.1 0.001l-0.005-0c0.038-0.001 0.082-0.001 0.127-0.001 1.684 0 3.205 0.699 4.287 1.823l0.002 0.002c1.127 1.119 1.825 2.67 1.825 4.383 0 0.045-0.001 0.090-0.001 0.135l0-0.007c0 0.024 0.001 0.051 0.001 0.079 0 1.725-0.711 3.284-1.855 4.399l-0.001 0.001c-1.082 1.144-2.61 1.857-4.305 1.857-0.028 0-0.055-0-0.083-0.001l0.004 0zM24.064 22.336c-0.023 0-0.051 0.001-0.079 0.001-1.695 0-3.223-0.712-4.303-1.854l-0.003-0.003c-1.127-1.114-1.825-2.661-1.825-4.37 0-0.039 0-0.077 0.001-0.116l-0 0.006c-0.001-0.048-0.002-0.104-0.002-0.16 0-1.698 0.685-3.236 1.794-4.353l-0 0c1.124-1.13 2.681-1.829 4.4-1.829s3.276 0.699 4.4 1.828l0 0c1.127 1.119 1.825 2.67 1.825 4.383 0 0.045-0 0.090-0.001 0.135l0-0.007c0.001 0.033 0.001 0.071 0.001 0.11 0 1.709-0.698 3.255-1.824 4.369l-0.001 0.001c-1.082 1.144-2.61 1.857-4.305 1.857-0.028 0-0.055-0-0.083-0.001l0.004 0z"></path>
</svg>
