<!-- Generated by IcoMoon.io -->
<svg version="1.1" xmlns="http://www.w3.org/2000/svg" width="32" height="32" viewBox="0 0 32 32">
<title>folder</title>
<path d="M31.296 17.44c-0.033 0.42-0.223 0.79-0.511 1.055l-0.001 0.001-5.472 6.464c-0.536 0.579-1.186 1.045-1.915 1.362l-0.037 0.014c-0.698 0.363-1.52 0.585-2.393 0.608l-0.007 0h-17.632c-0.002 0-0.004 0-0.006 0-0.348 0-0.676-0.083-0.966-0.23l0.012 0.006c-0.263-0.131-0.442-0.396-0.448-0.703v-0.001c0.036-0.413 0.212-0.78 0.48-1.056l-0 0 5.472-6.464c0.536-0.579 1.186-1.045 1.915-1.362l0.037-0.014c0.679-0.354 1.478-0.575 2.325-0.608l0.011-0h17.728c0.361 0.001 0.702 0.084 1.006 0.23l-0.014-0.006c0.249 0.112 0.419 0.358 0.419 0.644 0 0.021-0.001 0.042-0.003 0.063l0-0.003zM25.696 11.84v2.624h-13.504c-1.165 0.014-2.263 0.284-3.246 0.756l0.046-0.020c-1.061 0.466-1.957 1.127-2.681 1.944l-0.007 0.008-5.504 6.464-0.064 0.096c0.003-0.034 0.005-0.073 0.005-0.112s-0.002-0.078-0.005-0.117l0 0.005c-0.008-0.029-0.013-0.062-0.013-0.096s0.005-0.067 0.014-0.099l-0.001 0.003v-15.648c-0-0.014-0-0.030-0-0.046 0-0.985 0.404-1.875 1.056-2.514l0.001-0.001c0.642-0.671 1.545-1.088 2.545-1.088 0.005 0 0.011 0 0.016 0h5.247c0.005-0 0.010-0 0.015-0 1 0 1.903 0.417 2.544 1.087l0.001 0.001c0.671 0.642 1.088 1.545 1.088 2.545 0 0.005 0 0.011-0 0.016v-0.001 0.512h8.8c2.007 0.018 3.63 1.641 3.648 3.646v0.002z"></path>
</svg>
