<!-- Generated by IcoMoon.io -->
<svg version="1.1" xmlns="http://www.w3.org/2000/svg" width="32" height="32" viewBox="0 0 32 32">
<title>github</title>
<path d="M0.8 16c-0-0.015-0-0.032-0-0.049 0-2.112 0.448-4.119 1.253-5.932l-0.037 0.093c1.525-3.694 4.402-6.571 7.999-8.060l0.097-0.036c1.736-0.766 3.76-1.212 5.888-1.212s4.152 0.446 5.984 1.249l-0.096-0.037c3.668 1.537 6.527 4.396 8.028 7.966l0.036 0.098c0.766 1.736 1.212 3.76 1.212 5.888s-0.446 4.152-1.249 5.984l0.037-0.096c-1.532 3.688-4.391 6.568-7.967 8.091l-0.097 0.037c-1.736 0.766-3.76 1.212-5.888 1.212s-4.152-0.446-5.984-1.249l0.096 0.037c-3.681-1.548-6.544-4.432-8.028-8.030l-0.036-0.098c-0.781-1.723-1.24-3.735-1.248-5.853v-0.003zM3.2 16c-0 0.032-0 0.070-0 0.107 0 2.851 0.963 5.476 2.582 7.569l-0.021-0.029c1.653 2.175 3.898 3.822 6.496 4.707l0.096 0.029v-2.4c-0.009-0.086-0.014-0.186-0.014-0.287 0-1.001 0.495-1.887 1.253-2.427l0.009-0.006c-0.532-0.039-1.024-0.118-1.5-0.237l0.060 0.013c-0.987-0.158-1.871-0.495-2.655-0.978l0.031 0.018q-2.816-1.664-2.816-6.080c-0.001-0.030-0.001-0.066-0.001-0.102 0-1.478 0.586-2.819 1.538-3.804l-0.001 0.002c-0.193-0.518-0.305-1.116-0.305-1.74 0-0.773 0.171-1.506 0.478-2.163l-0.013 0.031h0.608c0.29 0.010 0.563 0.068 0.817 0.166l-0.017-0.006c1.001 0.34 1.869 0.784 2.658 1.335l-0.034-0.023c1.094-0.302 2.35-0.477 3.646-0.48h0.002c1.31 0.004 2.577 0.179 3.783 0.504l-0.103-0.024c0.644-0.443 1.38-0.85 2.156-1.184l0.084-0.032c0.396-0.182 0.86-0.288 1.348-0.288 0.010 0 0.020 0 0.030 0h0.382c0.284 0.63 0.45 1.366 0.45 2.14 0 0.62-0.106 1.216-0.302 1.769l0.011-0.037c0.914 0.975 1.476 2.291 1.476 3.738 0 0.070-0.001 0.139-0.004 0.208l0-0.010q0 3.392-1.696 5.12c-0.652 0.677-1.456 1.203-2.357 1.523l-0.043 0.013c-0.808 0.297-1.744 0.502-2.717 0.574l-0.035 0.002c0.764 0.559 1.254 1.452 1.254 2.46 0 0.069-0.002 0.137-0.007 0.205l0-0.009v2.4c2.647-0.96 4.846-2.622 6.438-4.763l0.026-0.037c1.576-2.054 2.526-4.66 2.528-7.487v-0.001c0-0.015 0-0.033 0-0.051 0-1.784-0.365-3.482-1.024-5.025l0.032 0.084c-2.026-4.613-6.544-7.782-11.805-7.808h-0.003c-1.805 0.007-3.519 0.383-5.076 1.056l0.084-0.032c-1.573 0.677-2.919 1.582-4.068 2.692l0.004-0.004c-1.104 1.151-2.018 2.495-2.684 3.975l-0.036 0.089c-0.647 1.48-1.024 3.204-1.024 5.017 0 0.003 0 0.005 0 0.008v-0z"></path>
</svg>
