<!-- Generated by IcoMoon.io -->
<svg version="1.1" xmlns="http://www.w3.org/2000/svg" width="32" height="32" viewBox="0 0 32 32">
<title>heart-filled</title>
<path d="M16 29.472c-0.011 0-0.024 0.001-0.037 0.001-0.293 0-0.561-0.109-0.764-0.29l0.001 0.001-10.912-10.592-0.48-0.448q-0.32-0.32-0.96-1.152c-0.433-0.51-0.845-1.074-1.213-1.668l-0.035-0.060c-0.334-0.591-0.638-1.279-0.873-1.998l-0.023-0.082c-0.258-0.714-0.41-1.538-0.416-2.397v-0.003c-0.010-0.153-0.016-0.331-0.016-0.511 0-2.166 0.861-4.13 2.258-5.571l-0.002 0.002c1.511-1.357 3.519-2.186 5.72-2.186 0.149 0 0.297 0.004 0.444 0.011l-0.021-0.001c0.007-0 0.016-0 0.025-0 0.781 0 1.531 0.129 2.232 0.366l-0.049-0.014c0.806 0.276 1.504 0.633 2.14 1.075l-0.028-0.019q0.96 0.64 1.696 1.184c0.488 0.362 0.917 0.751 1.306 1.177l0.006 0.007q0.64-0.608 1.312-1.184c0.494-0.396 1.048-0.787 1.625-1.143l0.071-0.041c0.605-0.391 1.301-0.746 2.033-1.029l0.079-0.027c0.594-0.225 1.281-0.356 1.999-0.356 0.074 0 0.147 0.001 0.22 0.004l-0.011-0c0.147-0.009 0.32-0.015 0.493-0.015 2.18 0 4.166 0.832 5.657 2.196l-0.006-0.006c1.394 1.452 2.252 3.427 2.252 5.603 0 0.156-0.004 0.312-0.013 0.466l0.001-0.021q0 3.872-4 7.872l-10.912 10.56c-0.189 0.18-0.445 0.291-0.727 0.291-0.026 0-0.051-0.001-0.076-0.003l0.003 0z"></path>
</svg>
