<!-- Generated by IcoMoon.io -->
<svg version="1.1" xmlns="http://www.w3.org/2000/svg" width="32" height="32" viewBox="0 0 32 32">
<title>icon-newsletter</title>
<path d="M30.304 9.696c-0.096-0.192-0.288-0.384-0.512-0.288l-4 1.088c-0.192 0.096-0.384 0.288-0.288 0.512 0.096 0.192 0.192 0.288 0.384 0.288 0 0 0.128 0 0.128 0l4-1.088c0.192 0 0.384-0.224 0.288-0.512zM24.096 8.288c0.096 0 0.192 0 0.32-0.096l2.88-2.88c0.192-0.224 0.192-0.512 0-0.608-0.192-0.192-0.48-0.192-0.608 0l-2.88 2.88c-0.192 0.224-0.192 0.512 0 0.608 0.096 0 0.192 0.096 0.288 0.096zM20.896 6.496c0 0 0.096 0 0.096 0 0.224 0 0.416-0.096 0.416-0.288l1.088-4c0.096-0.224-0.096-0.512-0.288-0.512-0.192-0.096-0.512 0.096-0.512 0.288l-1.088 4c-0.096 0.224 0.096 0.416 0.288 0.512zM7.488 23.2c-0.992-0.992-1.888-2.112-2.4-3.008 0-0.192-0.096-0.384-0.192-0.608l-1.792 1.824c0 0-0.096 0.096-0.096 0.192v0c-0.096 0.096-0.096 0.608 0.288 1.408 0.416 0.8 1.216 1.696 2.016 2.592 1.376 1.408 2.592 2.208 3.392 2.4 0.288-0.096 0.512-0.192 0.704-0.288l1.792-1.824c-1.184-0.48-2.496-1.504-3.712-2.688zM13.6 3.392c-0.608 0-0.992 0.192-1.312 0.512-0.192 0.192-0.288 0.384-0.384 0.608v0l-1.216 2.688c-0.096 1.504 1.504 4.704 4.928 8 1.792 1.792 3.68 3.296 5.376 4.096 1.12 0.608 2.016 0.8 2.624 0.8l2.592-1.184c0.288-0.128 0.48-0.224 0.704-0.416 1.696-1.696-1.216-6.304-4.8-9.888-3.104-3.104-6.496-5.216-8.512-5.216zM21.216 16.192c-1.216-0.8-2.4-1.888-3.616-3.008-1.184-1.184-2.208-2.4-3.008-3.584 0.704-0.192 2.496 0.608 4.224 2.4 1.792 1.696 2.592 3.488 2.4 4.192zM26.304 17.888c-0.096 0.096-0.416 0.224-0.704 0.224-0.992 0-2.4-0.608-4-1.728 0.416-0.896-0.288-2.688-2.4-4.8-2.112-2.080-4-2.784-4.8-2.4-0.384-0.48-0.704-1.088-0.896-1.6-0.8-1.472-0.992-2.688-0.512-3.072 0.096-0.128 0.416-0.224 0.704-0.224 1.696 0 4.992 2.112 7.904 5.024 1.792 1.792 3.296 3.776 4.192 5.472 0.704 1.504 0.896 2.72 0.512 3.104zM15.2 15.488c-2.784-2.784-4.608-5.6-4.992-7.488l-4.608 10.688c0 0.224 0.096 0.608 0.416 1.12 0.48 0.896 1.28 1.888 2.176 2.784 1.824 1.792 3.296 2.592 3.904 2.592l10.592-4.672c-0.576-0.128-1.184-0.416-1.984-0.704-1.696-0.896-3.616-2.4-5.504-4.32zM2.912 23.2c-0.096-0.192-0.224-0.416-0.32-0.608l-0.192 0.192c-0.8 0.8-0.192 2.4 1.504 4 1.184 1.216 2.304 1.824 3.104 1.824 0.384 0 0.704-0.096 0.896-0.32l0.096-0.096c-0.896-0.384-1.984-1.28-3.008-2.208-0.896-0.992-1.6-1.888-2.080-2.784zM15.488 26.688l-2.784-1.184-0.896 0.384-1.696 1.728 4 1.696c0.096 0.096 0.288 0.096 0.384 0.096 0.32 0 0.608-0.096 0.8-0.32l0.512-0.48c0.288-0.32 0.384-0.608 0.288-0.992-0.096-0.512-0.288-0.832-0.608-0.928z"></path>
</svg>
