<!-- Generated by IcoMoon.io -->
<svg version="1.1" xmlns="http://www.w3.org/2000/svg" width="39" height="32" viewBox="0 0 39 32">
<title>meetup</title>
<path d="M38.144 30.784c-0.416 0.48-1.152 0.864-1.888 1.024-1.952 0.512-4.256 0-6.080-0.832-5.824-2.56-4.576-9.088-2.016-13.504 0.8-1.344 1.536-2.688 2.336-4.096 0.608-1.088 1.856-2.848 1.376-4.192-0.544-1.408-1.952-1.408-2.912-0.256-0.928 1.12-1.632 2.752-2.24 4.032-0.672 1.408-4.096 8.832-4.096 8.832-0.608 1.216-1.696 2.912-2.784 3.872-0.864 0.736-2.432 0.928-3.424 0.192-0.768-0.544-0.896-1.344-0.768-2.208 0.704-4 6.816-13.376 2.592-14.048-1.632-0.224-2.048 1.536-2.528 2.688-0.864 1.888-1.472 3.904-2.336 5.728-1.024 2.112-1.76 4.384-2.304 6.688-0.416 1.824-0.96 4.192-3.104 4.736-5.792 1.536-7.488-2.24-7.488-2.24-0.896-2.976-0.064-5.664 0.864-8.576 0.672-2.272 1.088-4.512 2.016-6.688 1.504-3.712 3.040-11.744 8.736-11.264 1.472 0.128 3.104 0.896 4.32 1.632 1.152 0.672 2.016 1.056 3.36 0.32 1.28-0.672 1.888-2.016 3.392-2.432 1.664-0.512 2.752 0.224 3.968 1.216 1.696 1.376 1.952 0.768 3.36 0.416 1.152-0.32 2.528-0.416 3.808-0.256 6.688 1.184 2.432 9.696 0.864 13.088-1.024 2.24-5.952 11.2-1.6 12.416 1.344 0.352 3.072 0.192 4.16 1.152 1.152 0.928 1.024 1.824 0.416 2.56z"></path>
</svg>
