<!-- Generated by IcoMoon.io -->
<svg version="1.1" xmlns="http://www.w3.org/2000/svg" width="32" height="32" viewBox="0 0 32 32">
<title>mix</title>
<path d="M31.808 0c-1.6 0-3.072 0.256-4.48 0.8 1.344-0.544 2.88-0.8 4.48-0.8h-31.808v28.32c0 1.76 1.408 3.136 3.2 3.136s3.2-1.376 3.2-3.136v-17.12c0 0 0 0.064 0 0.064v-2.944c0-0.064 0-0.128 0-0.256 0.128-1.6 1.536-2.88 3.2-2.88 1.728 0 3.2 1.408 3.2 3.136v12.288c0 1.728 1.408 3.136 3.2 3.136 1.728 0 3.2-1.408 3.2-3.136v-4.736c0.128-1.6 1.536-2.88 3.2-2.88 1.792 0 3.2 1.408 3.2 3.136v1.6c0 1.728 1.472 3.136 3.2 3.136 1.792 0 3.2-1.408 3.2-3.136v-17.728c-0.064 0-0.128 0-0.192 0z"></path>
</svg>
