<!-- Generated by IcoMoon.io -->
<svg version="1.1" xmlns="http://www.w3.org/2000/svg" width="37" height="32" viewBox="0 0 37 32">
<title>newsletter</title>
<path d="M34.208 4.192h-3.264c0-1.984 0-1.056 0-1.664 0-1.472-1.216-2.528-2.496-2.528h-25.92c-1.504 0-2.528 1.312-2.528 2.368 0 0.96 0 17.216 0 18.208 0 1.376 1.152 2.496 2.528 2.496h2.688l2.816 4.256c0.416 0.64 1.344 0.64 1.76 0l0.032-0.032h14.272l2.816 4.256c0.416 0.608 1.344 0.608 1.76 0l2.848-4.256h2.688c1.376 0 2.496-1.152 2.496-2.528v-18.048c0.032-1.408-1.12-2.528-2.496-2.528zM20.448 11.072l8.416-4.928v13.344l-8.416-8.416zM2.528 2.080h25.888c0.256 0 0.416 0.192 0.416 0.416 0 0.256 0.096 1.184-0.768 1.664l-10.464 6.144c-1.312 0.768-2.944 0.768-4.256 0l-10.464-6.144c-0.832-0.48-0.768-1.312-0.768-1.632 0-0.256 0.192-0.448 0.416-0.448zM2.112 19.488v-13.344l8.384 4.928-8.384 8.416zM6.88 21.824c-0.352-0.544-0.928-0.832-1.568-0.832h-1.728l8.8-8.8c1.888 1.056 4.224 1.088 6.176 0l8.8 8.8h-14.848c-0.64 0-1.216 0.288-1.568 0.832l-2.016 3.040-2.048-3.040zM34.624 24.768c0 0.224-0.192 0.416-0.416 0.416h-2.816c-0.608 0-1.216 0.32-1.568 0.832l-2.016 3.040-2.016-3.040c-0.352-0.512-0.96-0.832-1.6-0.832h-12.96l1.408-2.112h15.776c1.408 0 2.528-1.12 2.528-2.496v-14.272h3.264c0.224 0 0.416 0.192 0.416 0.416v18.048z"></path>
</svg>
