<!-- Generated by IcoMoon.io -->
<svg version="1.1" xmlns="http://www.w3.org/2000/svg" width="27" height="32" viewBox="0 0 27 32">
<title>ok-circled</title>
<path d="M22.944 13.12q0-0.512-0.352-0.832l-1.6-1.6q-0.352-0.352-0.8-0.352t-0.832 0.352l-7.264 7.264-4.032-4.032q-0.352-0.352-0.8-0.352t-0.832 0.352l-1.6 1.6q-0.32 0.32-0.32 0.832 0 0.48 0.32 0.8l6.464 6.464q0.32 0.32 0.8 0.32t0.8-0.32l9.696-9.696q0.352-0.32 0.352-0.8zM27.424 16q0 3.744-1.824 6.88t-4.992 4.992-6.88 1.856-6.912-1.856-4.96-4.992-1.856-6.88 1.856-6.88 4.96-4.992 6.912-1.856 6.88 1.856 4.992 4.992 1.824 6.88z"></path>
</svg>
