<!-- Generated by IcoMoon.io -->
<svg version="1.1" xmlns="http://www.w3.org/2000/svg" width="32" height="32" viewBox="0 0 32 32">
<title>podcast-itunes</title>
<path d="M15.296 31.616c-1.184-0.416-1.504-1.024-1.984-4.512-0.608-4-0.704-6.496-0.416-7.296 0.416-1.024 1.6-1.6 3.296-1.6s2.912 0.576 3.296 1.6c0.32 0.8 0.224 3.296-0.384 7.296-0.416 2.784-0.608 3.488-1.216 4-0.48 0.608-1.6 0.8-2.592 0.512v0zM10.112 27.392c-4.224-2.080-6.912-5.504-7.808-10.208-0.192-1.184-0.288-4-0.096-5.088 0.608-2.912 1.792-5.184 3.68-7.296 2.816-2.912 6.4-4.512 10.4-4.512s7.52 1.504 10.304 4.416c2.112 2.208 3.2 4.384 3.808 7.392 0.192 0.992 0.192 3.712 0 4.8-0.608 3.616-2.592 6.816-5.504 8.992-0.992 0.8-3.488 2.112-4 2.112-0.096 0-0.192-0.192-0.096-0.8 0.096-0.992 0.192-1.216 0.8-1.408 0.896-0.384 2.496-1.504 3.392-2.4 1.6-1.6 2.816-3.808 3.424-5.984 0.384-1.408 0.288-4.512-0.128-5.92-1.184-4.576-4.992-8.096-9.472-9.088-1.312-0.288-3.712-0.288-5.12 0-4.608 0.896-8.384 4.704-9.6 9.408-0.288 1.28-0.288 4.384 0 5.6 0.896 3.2 2.912 5.984 5.504 7.68 0.512 0.32 1.088 0.704 1.408 0.8 0.608 0.224 0.704 0.416 0.8 1.408 0.096 0.608 0.096 0.8-0.096 0.8-0.096 0-0.8-0.288-1.6-0.704v0zM10.208 21.888c-1.408-1.088-2.72-3.104-3.2-5.088-0.32-1.216-0.32-3.392 0-4.608 0.896-3.2 3.2-5.6 6.4-6.784 1.184-0.32 3.584-0.416 4.992-0.096 4.704 0.992 8.096 5.792 7.392 10.4-0.288 1.888-0.896 3.392-2.080 4.896-0.608 0.704-1.92 1.888-2.208 1.888 0 0-0.096-0.512-0.096-0.992v-0.992l0.704-0.8c2.688-3.2 2.496-7.616-0.416-10.528-1.088-1.184-2.4-1.888-4-2.176-1.088-0.224-1.28-0.224-2.496 0-1.696 0.288-3.104 0.992-4.288 2.080-2.912 2.912-3.008 7.424-0.416 10.624l0.704 0.8v0.992c0 0.608 0 0.992-0.096 0.992 0 0.096-0.416-0.192-0.896-0.608v0zM14.912 16.384c-1.216-0.576-1.92-1.6-1.92-2.976 0-1.216 0.704-2.304 1.92-3.008 0.8-0.416 2.080-0.416 2.88 0 0.8 0.384 1.504 1.312 1.824 2.112 0.672 2.784-2.112 5.088-4.704 3.872v0z"></path>
</svg>
