<!-- Generated by IcoMoon.io -->
<svg version="1.1" xmlns="http://www.w3.org/2000/svg" width="32" height="32" viewBox="0 0 32 32">
<title>retweet</title>
<path d="M20.576 23.776c0 0 0 0.001 0 0.001 0 0.247-0.201 0.448-0.448 0.448-0.011 0-0.022-0-0.033-0.001l0.001 0h-13.696c-0.029 0.004-0.062 0.007-0.096 0.007s-0.067-0.003-0.1-0.007l0.004 0c-0.053-0.018-0.097-0.052-0.127-0.095l-0.001-0.001-0.064-0.128c-0.034-0.055-0.057-0.12-0.064-0.19l-0-0.002q0-0.128 0-0.128v-8.608h-2.752c-0.015 0.001-0.034 0.002-0.052 0.002-0.232 0-0.442-0.099-0.588-0.257l-0.001-0.001c-0.161-0.168-0.266-0.39-0.288-0.636l-0-0.004c0.007-0.221 0.091-0.422 0.225-0.577l-0.001 0.001 4.576-5.472c0.165-0.196 0.412-0.32 0.686-0.32 0.006 0 0.012 0 0.018 0h-0.001c0.279 0.008 0.528 0.129 0.703 0.319l0.001 0.001 4.576 5.472c0.138 0.152 0.223 0.354 0.224 0.576v0c0 0.007 0 0.016 0 0.025 0 0.247-0.112 0.467-0.287 0.614l-0.001 0.001c-0.168 0.161-0.39 0.266-0.636 0.288l-0.004 0h-2.752v5.472h8.224c0.012-0.001 0.026-0.002 0.039-0.002 0.138 0 0.262 0.063 0.344 0.161l0.001 0.001 2.272 2.784c0.052 0.071 0.087 0.159 0.096 0.254l0 0.002zM29.696 17.824c0.001 0.019 0.002 0.040 0.002 0.062 0 0.208-0.073 0.398-0.195 0.547l0.001-0.002-4.576 5.472c-0.166 0.209-0.419 0.342-0.704 0.342s-0.538-0.133-0.703-0.34l-0.001-0.002-4.576-5.504c-0.121-0.148-0.194-0.338-0.194-0.546 0-0.022 0.001-0.044 0.002-0.065l-0 0.003c0-0.248 0.098-0.474 0.256-0.64l-0 0c0.157-0.159 0.375-0.258 0.616-0.258 0.020 0 0.039 0.001 0.059 0.002l-0.003-0h2.72v-5.472h-8.224c-0.007 0-0.015 0.001-0.024 0.001-0.133 0-0.252-0.063-0.328-0.16l-0.001-0.001-2.304-2.752c-0.060-0.075-0.096-0.172-0.096-0.277 0-0.004 0-0.008 0-0.011v0.001c0.003-0.113 0.052-0.215 0.128-0.288l0-0c0.091-0.092 0.214-0.151 0.35-0.16l0.002-0h13.696c0.029-0.005 0.062-0.008 0.096-0.008s0.067 0.003 0.099 0.009l-0.003-0c0.053 0.018 0.097 0.052 0.127 0.095l0.001 0.001 0.064 0.128c0.025 0.046 0.047 0.099 0.063 0.154l0.001 0.006c0.004 0.029 0.006 0.062 0.006 0.096s-0.002 0.067-0.006 0.1l0-0.004v8.544h2.752c0.253 0.005 0.48 0.115 0.639 0.287l0.001 0.001c0.159 0.147 0.258 0.356 0.258 0.588 0 0.018-0.001 0.036-0.002 0.054l0-0.002z"></path>
</svg>
