<!-- Generated by IcoMoon.io -->
<svg version="1.1" xmlns="http://www.w3.org/2000/svg" width="32" height="32" viewBox="0 0 32 32">
<title>spotify</title>
<path d="M16 0.064c-8.8 0-15.936 7.136-15.936 15.936s7.136 15.968 15.936 15.968c8.8 0 15.968-7.168 15.968-15.968s-7.168-15.936-15.968-15.936v0zM23.328 23.072c-0.288 0.448-0.896 0.608-1.376 0.32-3.744-2.304-8.448-2.816-14.016-1.536-0.544 0.128-1.056-0.224-1.184-0.768-0.128-0.512 0.192-1.056 0.736-1.184 6.080-1.376 11.296-0.8 15.488 1.792 0.48 0.288 0.64 0.896 0.352 1.376zM25.28 18.72c-0.384 0.576-1.152 0.768-1.728 0.416-4.288-2.656-10.816-3.424-15.904-1.888-0.64 0.224-1.344-0.16-1.536-0.8-0.192-0.672 0.16-1.376 0.832-1.568 5.792-1.76 12.992-0.896 17.92 2.112 0.576 0.384 0.768 1.152 0.416 1.728v0zM25.44 14.176c-5.152-3.040-13.632-3.328-18.528-1.824-0.8 0.224-1.632-0.224-1.856-0.992-0.256-0.8 0.192-1.632 0.992-1.856 5.632-1.728 14.976-1.408 20.896 2.112 0.736 0.416 0.96 1.344 0.544 2.048s-1.344 0.96-2.048 0.512z"></path>
</svg>
