<!-- Generated by IcoMoon.io -->
<svg version="1.1" xmlns="http://www.w3.org/2000/svg" width="32" height="32" viewBox="0 0 32 32">
<title>stackexchange</title>
<path d="M26.4 19.84v1.12c0 0.001 0 0.002 0 0.003 0 0.936-0.379 1.783-0.992 2.397l0-0c-0.558 0.611-1.358 0.993-2.247 0.993-0.020 0-0.040-0-0.060-0.001l0.003 0h-0.96l-4.384 4.544v-4.512h-8.864c-0.018 0-0.039 0.001-0.061 0.001-0.898 0-1.707-0.381-2.274-0.991l-0.002-0.002c-0.594-0.606-0.96-1.436-0.96-2.352 0-0.017 0-0.034 0-0.051l-0 0.003v-1.152zM26.4 14.368v4.288h-20.8v-4.288zM26.4 8.832v4.32h-20.8v-4.32zM26.4 6.496v1.152h-20.8v-1.152c-0-0.018-0.001-0.040-0.001-0.061 0-0.912 0.367-1.738 0.961-2.339l-0 0c0.569-0.611 1.377-0.993 2.275-0.993 0.021 0 0.043 0 0.064 0.001l-0.003-0h14.208c0.009-0 0.019-0 0.029-0 0.898 0 1.706 0.381 2.273 0.99l0.002 0.002c0.608 0.618 0.985 1.464 0.992 2.399v0.001z"></path>
</svg>
