<!-- Generated by IcoMoon.io -->
<svg version="1.1" xmlns="http://www.w3.org/2000/svg" width="32" height="32" viewBox="0 0 32 32">
<title>star-filled</title>
<path d="M31.52 12.64c-0.025 0.385-0.205 0.724-0.478 0.958l-0.002 0.002-6.784 6.528 1.6 9.344c0.007 0.058 0.010 0.124 0.010 0.192s-0.004 0.134-0.011 0.2l0.001-0.008c0 0 0 0.001 0 0.001 0 0.243-0.084 0.466-0.226 0.641l0.002-0.002c-0.128 0.172-0.32 0.291-0.54 0.32l-0.004 0c-0.277-0.019-0.529-0.112-0.741-0.259l0.005 0.003-8.352-4.416-8.352 4.416c-0.227 0.146-0.501 0.239-0.796 0.256l-0.004 0c-0.006 0-0.014 0-0.022 0-0.236 0-0.442-0.128-0.553-0.317l-0.002-0.003c-0.12-0.176-0.192-0.393-0.192-0.627 0-0.005 0-0.009 0-0.014v0.001c-0.003-0.057-0.005-0.124-0.005-0.192s0.002-0.135 0.006-0.201l-0 0.009 1.6-9.344-6.72-6.528c-0.272-0.238-0.451-0.575-0.48-0.955l-0-0.005q0-0.704 1.024-0.864l9.376-1.344 4.192-8.48q0.384-0.8 0.928-0.8t0.928 0.8l4.16 8.512 9.376 1.312q1.056 0.192 1.056 0.864z"></path>
</svg>
