<!-- Generated by IcoMoon.io -->
<svg version="1.1" xmlns="http://www.w3.org/2000/svg" width="32" height="32" viewBox="0 0 32 32">
<title>stumbleupon</title>
<path d="M17.472 13.344v-1.664c0-0.007 0-0.016 0-0.025 0-0.391-0.159-0.744-0.416-0.999l-0-0c-0.24-0.258-0.582-0.419-0.962-0.419-0.033 0-0.066 0.001-0.099 0.004l0.004-0c-0.396 0.014-0.754 0.169-1.025 0.417l0.001-0.001c-0.257 0.24-0.418 0.581-0.418 0.96 0 0.023 0.001 0.045 0.002 0.067l-0-0.003v8.736c0.001 0.038 0.001 0.083 0.001 0.128 0 1.631-0.675 3.105-1.76 4.158l-0.001 0.001c-1.084 1.088-2.583 1.761-4.24 1.761-0.040 0-0.079-0-0.118-0.001l0.006 0c-0.036 0.001-0.078 0.001-0.121 0.001-1.66 0-3.159-0.687-4.229-1.792l-0.002-0.002c-1.106-1.072-1.793-2.571-1.793-4.23 0-0.031 0-0.063 0.001-0.094l-0 0.005v-3.808h4.672v3.712c-0 0.004-0 0.008-0 0.012 0 0.411 0.172 0.781 0.447 1.043l0.001 0.001c0.24 0.257 0.581 0.418 0.96 0.418 0.023 0 0.045-0.001 0.067-0.002l-0.003 0c0.396-0.014 0.754-0.169 1.025-0.417l-0.001 0.001c0.258-0.245 0.418-0.591 0.418-0.975 0-0.029-0.001-0.057-0.003-0.085l0 0.004v-8.832c-0-0.025-0.001-0.055-0.001-0.085 0-1.621 0.689-3.081 1.789-4.103l0.004-0.003c1.063-1.050 2.524-1.699 4.138-1.699 0.064 0 0.128 0.001 0.192 0.003l-0.009-0c0.037-0.001 0.081-0.001 0.125-0.001 1.637 0 3.119 0.661 4.195 1.73l-0-0c1.105 1.046 1.792 2.524 1.792 4.162 0 0.011-0 0.021-0 0.032v-0.002 1.952l-2.784 0.8zM25.024 16.544h4.704v3.84c0 0 0 0 0 0 0 3.376-2.736 6.112-6.112 6.112-0.011 0-0.023-0-0.034-0h0.002c-0.028 0-0.061 0.001-0.094 0.001-1.652 0-3.147-0.673-4.226-1.76l-0-0c-1.106-1.062-1.793-2.553-1.793-4.204 0-0.041 0-0.082 0.001-0.122l-0 0.006v-3.872l1.888 0.896 2.784-0.8v3.84c-0 0.003-0 0.007-0 0.012 0 0.395 0.159 0.752 0.416 1.013l-0-0c0.235 0.257 0.572 0.418 0.947 0.418 0.027 0 0.054-0.001 0.081-0.003l-0.004 0c0.396-0.017 0.752-0.171 1.025-0.417l-0.001 0.001c0.258-0.224 0.42-0.553 0.42-0.92 0-0.037-0.002-0.073-0.005-0.109l0 0.005z"></path>
</svg>
