<!-- Generated by IcoMoon.io -->
<svg version="1.1" xmlns="http://www.w3.org/2000/svg" width="32" height="32" viewBox="0 0 32 32">
<title>tsu</title>
<path d="M32.064 26.048c0 0.128 0 0.192 0 0.192h-3.936v-1.152s0 0-0.064 0c-0.393 0.391-0.847 0.722-1.346 0.978l-0.030 0.014c-0.465 0.239-1.005 0.409-1.577 0.478l-0.023 0.002c-0.371 0.067-0.798 0.105-1.234 0.105-0.129 0-0.256-0.003-0.383-0.010l0.018 0.001c-0.462-0.045-0.886-0.135-1.29-0.268l0.042 0.012c-0.844-0.289-1.514-0.897-1.88-1.676l-0.008-0.020c-0.076-0.12-0.142-0.257-0.188-0.403l-0.004-0.013c-0.046-0.161-0.1-0.299-0.166-0.43l0.006 0.014c-0.064 0-0.064 0.064-0.064 0.064-0.427 0.766-1.036 1.385-1.769 1.812l-0.023 0.012c-0.59 0.352-1.274 0.629-2.002 0.791l-0.047 0.009c-0.387 0.070-0.839 0.116-1.3 0.128l-0.012 0c-0.197 0.029-0.425 0.046-0.656 0.046s-0.459-0.017-0.681-0.049l0.025 0.003c-0.784-0.054-1.514-0.202-2.206-0.434l0.062 0.018c-0.356-0.168-0.66-0.349-0.945-0.556l0.017 0.012c-0.307-0.189-0.571-0.412-0.797-0.668l-0.003-0.004c-0.064-0.064-0.128-0.128-0.224-0.288l-0.192-0.32c-0.039 0.022-0.065 0.064-0.065 0.111 0 0.006 0 0.012 0.001 0.017l-0-0.001v1.344c0 0.096 0 0.128 0 0.16-0.014 0.006-0.031 0.009-0.048 0.009s-0.034-0.003-0.049-0.010l0.001 0c-0.512 0.128-1.056 0.224-1.6 0.288s-1.248 0.064-1.92 0c-0.549-0.036-1.062-0.15-1.54-0.332l0.036 0.012c-0.579-0.248-1.037-0.686-1.305-1.233l-0.007-0.015c-0.101-0.187-0.198-0.409-0.278-0.639l-0.010-0.033c0-0.256-0.128-0.448-0.16-0.736-0.053-0.325-0.083-0.7-0.083-1.082 0-0.182 0.007-0.363 0.020-0.542l-0.001 0.024v-9.344c0-0.096 0-0.16-0.064-0.16s-0.064 0-0.096 0h-2.016c-0.064 0-0.096-0.064-0.064-0.096v-3.072c0-0.064 0-0.128 0-0.128h2.272c0.005-0.024 0.008-0.052 0.008-0.080s-0.003-0.056-0.009-0.083l0 0.003v-3.392c-0.004-0.014-0.006-0.031-0.006-0.048s0.002-0.034 0.006-0.049l-0 0.001h2.112c0.672 0 1.344 0.064 2.048 0.096 0.064 0 0.064 0 0.096 0v3.52c0 0.064 0 0.096 0 0.128 0.045 0.032 0.099 0.054 0.158 0.064l0.002 0h2.464c0.035 0 0.064 0.029 0.064 0.064v0 2.048c0.096 0 0.096 0 0.096-0.064 0.209-0.4 0.476-0.739 0.796-1.021l0.004-0.003c0.237-0.22 0.499-0.42 0.778-0.595l0.022-0.013c0.266-0.161 0.573-0.303 0.897-0.407l0.031-0.009c0.44-0.153 0.959-0.276 1.494-0.347l0.042-0.005c0.403-0.079 0.866-0.125 1.34-0.125 0.227 0 0.451 0.010 0.673 0.031l-0.028-0.002c0.79 0.030 1.534 0.192 2.221 0.464l-0.046-0.016c0.637 0.247 1.174 0.63 1.596 1.115l0.004 0.005c0.16 0.16 0.32 0.352 0.448 0.576 0.032 0.023 0.055 0.056 0.064 0.095l0 0.001c0-0.064 0.064-0.064 0-0.096v-1.76h4.16v12.224c-0 0.012-0 0.027-0 0.042 0 0.338 0.047 0.665 0.134 0.975l-0.006-0.025c0.039 0.158 0.094 0.296 0.165 0.425l-0.005-0.009c0.081 0.106 0.165 0.2 0.255 0.287l0.001 0.001c0.146 0.11 0.316 0.198 0.501 0.253l0.011 0.003c0.19 0.039 0.408 0.062 0.632 0.062 0.393 0 0.77-0.070 1.119-0.197l-0.023 0.007c0.621-0.258 1.078-0.8 1.214-1.459l0.002-0.013c0.044-0.13 0.078-0.282 0.095-0.439l0.001-0.009v-12c0-0.096 0-0.16 0-0.16h4.16c0.003 0.010 0.005 0.021 0.005 0.032s-0.002 0.022-0.006 0.033l0-0.001v16.96zM16.576 21.152c-0.068-0.413-0.276-0.768-0.574-1.022l-0.002-0.002c-0.24-0.173-0.514-0.323-0.806-0.439l-0.026-0.009c-0.992-0.384-1.984-0.704-3.008-1.088-0.653-0.249-1.212-0.529-1.738-0.856l0.042 0.024c-0.678-0.527-1.205-1.219-1.525-2.016l-0.011-0.032c-0.188-0.571-0.304-1.229-0.32-1.912l-0-0.008c-0.008-0.105-0.013-0.227-0.013-0.35 0-0.41 0.051-0.807 0.148-1.187l-0.007 0.033h-2.144c-0.096 0-0.128 0-0.128 0-0.005 0.024-0.008 0.052-0.008 0.080s0.003 0.056 0.009 0.083l-0-0.003v9.6c0.011 0.201 0.034 0.388 0.068 0.571l-0.004-0.027c0.064 0.111 0.128 0.205 0.197 0.294l-0.005-0.006c0.080 0.064 0.178 0.109 0.284 0.127l0.004 0.001c0 0.064 0 0.064 0.096 0.064 0.111 0.006 0.242 0.010 0.373 0.010 0.354 0 0.702-0.027 1.041-0.079l-0.038 0.005q0.128 0 0.096-0.096c-0.102-0.357-0.161-0.766-0.161-1.19 0-0.032 0-0.063 0.001-0.095l-0 0.005v-1.344h3.744v0.992c0 0 0 0 0 0 0 0.423 0.070 0.83 0.2 1.21l-0.008-0.026c0.087 0.612 0.549 1.096 1.143 1.214l0.009 0.002c0.253 0.035 0.552 0.058 0.856 0.064l0.008 0c0.034 0.001 0.075 0.002 0.115 0.002 0.384 0 0.752-0.071 1.090-0.201l-0.021 0.007c0.511-0.179 0.89-0.611 0.991-1.143l0.001-0.009c0.061-0.206 0.096-0.442 0.096-0.686 0-0.199-0.023-0.393-0.067-0.579l0.003 0.017zM19.68 17.792v-3.072c0-0.064 0-0.096 0-0.128-0.040-0.040-0.096-0.064-0.157-0.064-0.001 0-0.002 0-0.003 0h-3.104c-0.064 0-0.064 0-0.096 0v-1.184c0-0.006 0-0.012 0-0.019 0-0.282-0.059-0.551-0.165-0.794l0.005 0.013c-0.156-0.459-0.541-0.802-1.015-0.895l-0.008-0.001c-0.192-0.048-0.413-0.075-0.639-0.075-0.309 0-0.607 0.051-0.884 0.145l0.019-0.006c-0.494 0.16-0.863 0.571-0.959 1.079l-0.001 0.009c-0.053 0.181-0.083 0.389-0.083 0.604 0 0.103 0.007 0.204 0.020 0.303l-0.001-0.012c0.016 0.333 0.188 0.622 0.444 0.798l0.004 0.002c0.064 0.096 0.224 0.192 0.384 0.32 0.32 0.16 0.576 0.256 0.896 0.352 0.704 0.288 1.408 0.544 2.144 0.8 0.635 0.219 1.164 0.446 1.672 0.706l-0.072-0.034c0.509 0.252 0.942 0.573 1.31 0.958l0.002 0.002c0.081 0.112 0.176 0.207 0.284 0.285l0.004 0.003s-0.032-0.032 0-0.128zM32.096 7.936c0 0.064 0 0.064 0 0.064h-12.448s0 0 0-0.128v-2.496c0-0.064 0-0.064 0.064-0.064h12.352s0 0 0 0.128z"></path>
</svg>
