<!-- Generated by IcoMoon.io -->
<svg version="1.1" xmlns="http://www.w3.org/2000/svg" width="32" height="32" viewBox="0 0 32 32">
<title>twitter</title>
<path d="M30.976 6.72c-0.854 1.246-1.871 2.304-3.037 3.175l-0.035 0.025v0.8c-0.002 2.966-0.724 5.764-1.999 8.228l0.047-0.1c-1.428 2.729-3.482 4.957-5.979 6.551l-0.069 0.041c-2.583 1.706-5.752 2.722-9.159 2.722-0.099 0-0.197-0.001-0.296-0.003l0.015 0c-0.038 0-0.082 0-0.127 0-3.451 0-6.663-1.027-9.345-2.792l0.064 0.040c0.376 0.042 0.812 0.066 1.253 0.066 0.077 0 0.154-0.001 0.23-0.002l-0.011 0c0.037 0 0.082 0.001 0.126 0.001 2.844 0 5.457-0.989 7.513-2.643l-0.023 0.018c-1.356-0.030-2.598-0.494-3.599-1.259l0.015 0.011c-1.011-0.758-1.763-1.811-2.133-3.030l-0.011-0.042c0.278 0.085 0.598 0.134 0.929 0.134 0.067 0 0.134-0.002 0.2-0.006l-0.009 0c0.003 0 0.006 0 0.009 0 0.565 0 1.113-0.070 1.637-0.202l-0.046 0.010c-2.815-0.599-4.896-3.065-4.896-6.016 0-0.011 0-0.023 0-0.034v0.002-0.064c0.796 0.441 1.733 0.729 2.731 0.799l0.021 0.001c-1.648-1.069-2.722-2.9-2.722-4.982 0-0.060 0.001-0.119 0.003-0.179l-0 0.009c0.019-1.125 0.338-2.171 0.879-3.068l-0.015 0.028c2.969 3.817 7.521 6.281 12.653 6.4l0.019 0c-0.122-0.381-0.193-0.82-0.193-1.275 0-0.024 0-0.048 0.001-0.072l-0 0.004c-0.001-0.036-0.001-0.078-0.001-0.121 0-1.66 0.687-3.159 1.792-4.229l0.002-0.002c1.087-1.107 2.599-1.793 4.271-1.793 0.040 0 0.079 0 0.119 0.001l-0.006-0c0.041-0.001 0.088-0.002 0.136-0.002 1.693 0 3.217 0.727 4.276 1.885l0.004 0.004c1.473-0.314 2.778-0.811 3.977-1.477l-0.073 0.037c-0.442 1.451-1.388 2.636-2.629 3.377l-0.027 0.015c1.315-0.195 2.5-0.542 3.611-1.027l-0.091 0.035z"></path>
</svg>
