<!-- Generated by IcoMoon.io -->
<svg version="1.1" xmlns="http://www.w3.org/2000/svg" width="31" height="32" viewBox="0 0 31 32">
<title>twitch</title>
<path d="M7.776 32c0-1.28 0-2.528 0-3.84-2.624 0-5.184 0-7.776 0 0-0.192 0-0.288 0-0.416 0-7.232 0-14.4 0-21.632 0-0.224 0.032-0.384 0.096-0.64 0.576-1.664 1.184-3.424 1.728-5.152 0.096-0.224 0.192-0.32 0.416-0.32 9.504 0 18.976 0 28.48 0 0.096 0 0.192 0 0.32 0 0 0.128 0 0.288 0 0.416 0 6.208 0 12.384 0 18.592 0 0.288-0.096 0.48-0.288 0.64-2.72 2.752-5.472 5.504-8.224 8.224-0.16 0.192-0.352 0.288-0.64 0.288-1.696 0-3.328 0-5.024 0-0.32 0-0.544 0.096-0.768 0.32-1.088 1.152-2.24 2.24-3.328 3.328-0.096 0.096-0.288 0.224-0.416 0.224-1.504 0-2.976 0-4.48 0 0-0.032-0.064-0.032-0.096-0.032zM4.8 2.88c0 6.816 0 13.632 0 20.448 2.272 0 4.512 0 6.816 0 0 1.28 0 2.56 0 3.872 0.096-0.096 0.192-0.128 0.224-0.224 1.152-1.152 2.272-2.304 3.424-3.424 0.192-0.192 0.32-0.224 0.544-0.224 2.4 0 4.768 0 7.136 0 0.192 0 0.416-0.096 0.512-0.256 1.472-1.44 2.976-2.912 4.416-4.384 0.192-0.16 0.256-0.32 0.256-0.544 0-4.992 0-9.92 0-14.912 0-0.128 0-0.224 0-0.352-7.776 0-15.52 0-23.328 0zM12.608 8.768c0 2.88 0 5.76 0 8.64 0.96 0 1.92 0 2.88 0 0-2.88 0-5.76 0-8.64-0.96 0-1.92 0-2.88 0zM23.232 8.768c-0.96 0-1.888 0-2.848 0 0 2.88 0 5.76 0 8.64 0.96 0 1.888 0 2.848 0 0-2.912 0-5.76 0-8.64z"></path>
</svg>
