<!-- Generated by IcoMoon.io -->
<svg version="1.1" xmlns="http://www.w3.org/2000/svg" width="32" height="32" viewBox="0 0 32 32">
<title>vine</title>
<path d="M29.216 15.904v3.616c-1.076 0.263-2.312 0.415-3.583 0.416h-0.001c-0.906 1.857-1.897 3.452-3.028 4.934l0.052-0.070c-1.060 1.444-2.151 2.719-3.33 3.906l0.002-0.002c-0.687 0.717-1.441 1.359-2.255 1.92l-0.049 0.032c-0.407 0.241-0.897 0.384-1.42 0.384-0.566 0-1.093-0.167-1.535-0.455l0.011 0.007c-0.411-0.257-0.766-0.521-1.099-0.809l0.011 0.009c-0.546-0.489-1.047-0.99-1.52-1.518l-0.016-0.018c-0.656-0.684-1.265-1.426-1.816-2.212l-0.040-0.060c-0.612-0.913-1.26-2.001-1.853-3.123l-0.099-0.205c-0.665-1.225-1.313-2.683-1.851-4.193l-0.069-0.223q-0.832-2.4-1.664-5.728c-0.497-1.921-0.946-4.311-1.25-6.746l-0.030-0.294h5.152c0.304 2.758 0.743 5.206 1.33 7.596l-0.082-0.396c0.54 2.224 1.187 4.133 1.979 5.965l-0.091-0.237c0.707 1.656 1.446 3.054 2.283 4.384l-0.075-0.128c0.879 1.361 1.722 2.519 2.621 3.629l-0.061-0.077c2.063-2.106 3.797-4.546 5.111-7.228l0.073-0.164c-1.721-0.907-3.093-2.279-3.975-3.949l-0.025-0.051c-0.928-1.692-1.474-3.708-1.474-5.851 0-0.069 0.001-0.139 0.002-0.208l-0 0.010c-0.005-0.105-0.007-0.227-0.007-0.351 0-2.043 0.715-3.92 1.908-5.393l-0.013 0.016c1.158-1.361 2.872-2.219 4.786-2.219 0.129 0 0.256 0.004 0.383 0.011l-0.017-0.001c0.116-0.008 0.251-0.012 0.387-0.012 1.783 0 3.393 0.74 4.54 1.93l0.002 0.002c1.086 1.33 1.743 3.047 1.743 4.918 0 0.172-0.006 0.344-0.017 0.513l0.001-0.023c0.001 0.049 0.001 0.107 0.001 0.166 0 1.805-0.389 3.519-1.088 5.063l0.031-0.077-0.352 0.064c-0.124 0.008-0.27 0.012-0.416 0.012s-0.292-0.004-0.436-0.013l0.020 0.001c-0.019 0-0.042 0-0.065 0-0.384 0-0.76-0.035-1.125-0.102l0.038 0.006c-0.412-0.091-0.776-0.246-1.101-0.456l0.013 0.008c-0.392-0.197-0.715-0.479-0.955-0.824l-0.005-0.008c0.333-0.998 0.541-2.148 0.576-3.343l0-0.017c0.005-0.076 0.007-0.165 0.007-0.255 0-0.787-0.204-1.526-0.563-2.167l0.012 0.023c-0.282-0.482-0.797-0.8-1.386-0.8-0.008 0-0.016 0-0.023 0h0.001c-0.005-0-0.010-0-0.016-0-0.66 0-1.236 0.357-1.547 0.888l-0.005 0.008c-0.369 0.65-0.586 1.428-0.586 2.257 0 0.107 0.004 0.212 0.011 0.317l-0.001-0.014c-0.007 0.121-0.011 0.262-0.011 0.405 0 1.898 0.735 3.625 1.935 4.912l-0.004-0.004c1.18 1.207 2.825 1.955 4.645 1.955 0.066 0 0.131-0.001 0.197-0.003l-0.010 0c0.006 0 0.012 0 0.019 0 0.766 0 1.509-0.093 2.221-0.269l-0.063 0.013z"></path>
</svg>
