<!-- Generated by IcoMoon.io -->
<svg version="1.1" xmlns="http://www.w3.org/2000/svg" width="32" height="32" viewBox="0 0 32 32">
<title>wikipedia</title>
<path d="M-0.064 6.496v-0.608l0.064-0.064h7.2l0.064 0.064v0.576q0 0.224-0.288 0.224h-0.768q-0.96 0-0.96 0.608c0.018 0.295 0.099 0.568 0.229 0.81l-0.005-0.010q1.44 3.52 6.432 14.048h0.192l3.2-6.4q-0.384-0.864-0.64-1.408l-2.176-4.32-0.576-1.152c-0.33-0.701-0.66-1.288-1.027-1.849l0.035 0.058c-0.252-0.234-0.588-0.379-0.959-0.384h-0.001q-0.416-0.032-0.416-0.192v-0.608l0.064-0.064h5.92v0.608q0 0.224-0.288 0.224l-0.448 0.064c-0.203 0.030-0.386 0.086-0.556 0.165l0.012-0.005c-0.101 0.055-0.168 0.161-0.168 0.282 0 0.025 0.003 0.049 0.008 0.073l-0-0.002c0.026 0.179 0.070 0.341 0.133 0.494l-0.005-0.014q0.096 0.224 0.416 0.896l2.112 4.384 2.368-4.704q0.448-0.928 0.128-1.248-0.16-0.256-1.056-0.32h-0.288c-0.077-0.006-0.144-0.042-0.192-0.096l-0-0q-0.096 0-0.096-0.192v-0.544l0.096-0.064q1.664 0 5.408 0l0.064 0.064v0.576q0 0.224-0.256 0.224c-0.32 0.002-0.628 0.048-0.92 0.134l0.024-0.006c-0.204 0.112-0.368 0.276-0.477 0.474l-0.003 0.006c-0.278 0.387-0.564 0.836-0.825 1.301l-0.039 0.075-3.072 5.728-0.096 0.192 3.744 7.616 0.224 0.096 5.856-13.984q0.352-0.8-0.064-1.184c-0.294-0.24-0.674-0.385-1.088-0.385-0.023 0-0.045 0-0.068 0.001l0.003-0h-0.544c-0.078-0.003-0.146-0.039-0.192-0.096l-0-0c-0.056-0.033-0.094-0.092-0.096-0.16v-0.64l0.064-0.064h6.656l0.064 0.064v0.576q0 0.224-0.256 0.288c-0.039-0.002-0.085-0.003-0.131-0.003-0.667 0-1.287 0.204-1.8 0.554l0.011-0.007c-0.433 0.375-0.772 0.848-0.984 1.384l-0.008 0.024-7.296 16.48c-0.127 0.354-0.349 0.648-0.635 0.861l-0.005 0.003c-0.098 0.070-0.22 0.112-0.352 0.112s-0.254-0.042-0.354-0.113l0.002 0.001c-0.288-0.227-0.517-0.517-0.666-0.85l-0.006-0.014q-1.088-2.176-3.52-7.648-3.072 6.304-3.808 7.68-1.216 2.080-2.080 0-0.896-2.176-3.776-8.288t-3.744-8.32c-0.17-0.58-0.445-1.082-0.805-1.51l0.005 0.006c-0.41-0.242-0.903-0.385-1.43-0.385-0.026 0-0.052 0-0.078 0.001l0.004-0q-0.416-0.032-0.416-0.192z"></path>
</svg>
