<!-- Generated by IcoMoon.io -->
<svg version="1.1" xmlns="http://www.w3.org/2000/svg" width="32" height="32" viewBox="0 0 32 32">
<title>youtube</title>
<path d="M19.52 21.984v3.648q0 1.152-0.672 1.152c-0.316-0-0.601-0.136-0.799-0.351l-0.001-0.001v-5.216c0.199-0.216 0.484-0.352 0.8-0.352h0q0.672 0 0.672 1.12zM25.344 21.984v0.8h-1.568v-0.8q0-1.152 0.8-1.152t0.768 1.184zM8.672 18.24h1.856v-1.6h-5.408v1.6h1.824v9.856h1.728zM13.6 28.096h1.6v-8.544h-1.6v6.528q-0.512 0.704-0.992 0.704-0.32 0-0.352-0.32c-0.011-0.096-0.018-0.207-0.018-0.32s0.006-0.224 0.019-0.333l-0.001 0.013v-6.272h-1.536v6.752c-0.003 0.052-0.004 0.113-0.004 0.174 0 0.394 0.060 0.775 0.171 1.132l-0.007-0.027c0.123 0.378 0.472 0.646 0.884 0.646 0.038 0 0.075-0.002 0.112-0.007l-0.004 0c0.714-0.093 1.325-0.472 1.723-1.017l0.005-0.007zM21.024 25.536v-3.424c0.004-0.086 0.007-0.187 0.007-0.289 0-0.499-0.061-0.985-0.176-1.449l0.009 0.041c-0.122-0.553-0.608-0.96-1.189-0.96-0.010 0-0.019 0-0.029 0l0.001-0c-0.669 0.045-1.247 0.399-1.595 0.92l-0.005 0.008v-3.744h-1.536v11.456h1.536v-0.8c0.354 0.534 0.929 0.898 1.591 0.959l0.009 0.001c0.018 0.001 0.038 0.001 0.059 0.001 0.581 0 1.067-0.408 1.188-0.953l0.002-0.008c0.106-0.437 0.167-0.938 0.167-1.454 0-0.108-0.003-0.215-0.008-0.321l0.001 0.015zM26.848 25.344v-0.224h-1.6c0.010 0.158 0.015 0.342 0.015 0.528s-0.006 0.37-0.016 0.553l0.001-0.025c-0.034 0.343-0.32 0.608-0.669 0.608-0.001 0-0.002 0-0.003 0h0q-0.8 0-0.8-1.184v-1.504h3.072v-1.76c0.007-0.085 0.012-0.185 0.012-0.285 0-0.637-0.171-1.234-0.469-1.747l0.009 0.017c-0.408-0.528-1.041-0.865-1.753-0.865-0.025 0-0.050 0-0.075 0.001l0.004-0c-0.026-0.001-0.056-0.002-0.087-0.002-0.717 0-1.355 0.337-1.765 0.861l-0.004 0.005c-0.289 0.497-0.46 1.094-0.46 1.731 0 0.1 0.004 0.2 0.013 0.298l-0.001-0.013v2.976c-0.007 0.082-0.011 0.178-0.011 0.275 0 0.644 0.183 1.245 0.5 1.755l-0.008-0.014c0.407 0.547 1.051 0.897 1.777 0.897 0.028 0 0.055-0 0.083-0.002l-0.004 0c0.036 0.002 0.079 0.004 0.122 0.004 0.721 0 1.356-0.367 1.729-0.924l0.005-0.008c0.185-0.253 0.32-0.555 0.382-0.882l0.002-0.014c0.023-0.237 0.036-0.513 0.036-0.792 0-0.093-0.001-0.185-0.004-0.277l0 0.013zM16.384 9.6v-3.616q0-1.184-0.736-1.184t-0.736 1.216v3.584q0 1.216 0.736 1.216t0.736-1.216zM28.8 22.56c0.009 0.277 0.014 0.602 0.014 0.928 0 1.808-0.156 3.58-0.456 5.303l0.026-0.183c-0.168 0.69-0.529 1.279-1.021 1.725l-0.003 0.003c-0.458 0.451-1.070 0.746-1.75 0.799l-0.010 0.001c-2.33 0.216-5.040 0.339-7.777 0.339-0.641 0-1.28-0.007-1.918-0.020l0.095 0.002c-0.444 0.008-0.968 0.012-1.492 0.012-2.855 0-5.678-0.132-8.465-0.391l0.357 0.027c-1.373-0.146-2.474-1.159-2.748-2.476l-0.004-0.020c-0.295-1.531-0.464-3.292-0.464-5.092 0-0.336 0.006-0.671 0.018-1.004l-0.001 0.048c-0.006-0.228-0.010-0.497-0.010-0.766 0-1.868 0.178-3.694 0.519-5.462l-0.029 0.18c0.147-0.691 0.499-1.283 0.989-1.726l0.003-0.002c0.465-0.44 1.073-0.732 1.748-0.799l0.012-0.001q3.2-0.352 9.6-0.352t9.568 0.352c0.685 0.078 1.291 0.368 1.762 0.802l-0.002-0.002c0.489 0.453 0.848 1.041 1.019 1.704l0.005 0.024c0.275 1.527 0.432 3.285 0.432 5.080 0 0.34-0.006 0.68-0.017 1.017l0.001-0.049zM11.552 0.544h1.76l-2.048 6.88v4.672h-1.728v-4.672c-0.322-1.462-0.686-2.693-1.123-3.889l0.067 0.209q-0.64-1.76-1.152-3.2h1.856l1.216 4.544zM17.952 6.272v3.008c0.009 0.093 0.015 0.202 0.015 0.311 0 0.643-0.184 1.243-0.503 1.751l0.008-0.014c-0.387 0.546-1.017 0.898-1.728 0.898-0.034 0-0.067-0.001-0.1-0.002l0.005 0c-0.029 0.001-0.062 0.002-0.096 0.002-0.712 0-1.341-0.352-1.724-0.892l-0.004-0.007c-0.307-0.515-0.489-1.135-0.489-1.798 0-0.088 0.003-0.175 0.009-0.261l-0.001 0.012v-3.008c-0.005-0.069-0.008-0.15-0.008-0.231 0-0.648 0.181-1.253 0.496-1.768l-0.008 0.015c0.387-0.546 1.017-0.898 1.728-0.898 0.034 0 0.067 0.001 0.1 0.002l-0.005-0c0.029-0.001 0.062-0.002 0.096-0.002 0.712 0 1.341 0.352 1.724 0.892l0.004 0.007c0.326 0.493 0.521 1.099 0.521 1.75 0 0.082-0.003 0.164-0.009 0.245l0.001-0.011zM23.744 3.456v8.64h-1.6v-0.96c-0.406 0.591-1.044 0.997-1.78 1.087l-0.012 0.001c-0.028 0.003-0.061 0.005-0.095 0.005-0.423 0-0.784-0.265-0.927-0.638l-0.002-0.007c-0.084-0.338-0.132-0.725-0.132-1.124 0-0.066 0.001-0.132 0.004-0.197l-0 0.009v-6.816h1.6v6.944q0.064 0.352 0.384 0.352 0.448 0 0.992-0.736v-6.56z"></path>
</svg>
