<!-- Generated by IcoMoon.io -->
<svg version="1.1" xmlns="http://www.w3.org/2000/svg" width="32" height="32" viewBox="0 0 32 32">
<title>amazon</title>
<path d="M24.864 22.24c-0.304-0.281-0.56-0.609-0.758-0.972l-0.010-0.020c-0.064-0.192-0.192-0.48-0.416-0.928-0.133-0.448-0.214-0.965-0.224-1.498l-0-0.006v-9.216c-0.042-0.277-0.109-0.525-0.2-0.76l0.008 0.024c-0.104-0.319-0.212-0.583-0.337-0.839l0.017 0.039c-0.108-0.246-0.248-0.458-0.417-0.642l0.001 0.002c-0.224-0.192-0.448-0.416-0.64-0.608-1.383-1.161-3.183-1.867-5.148-1.867-0.148 0-0.294 0.004-0.44 0.012l0.020-0.001h-0.736c-1.812 0.079-3.48 0.628-4.905 1.528l0.041-0.024c-1.396 0.932-2.376 2.394-2.651 4.093l-0.005 0.035v0.224c0 0.32 0.224 0.416 0.544 0.512l3.584 0.544c0.337-0.117 0.585-0.408 0.639-0.763l0.001-0.005c0.073-0.661 0.419-1.229 0.922-1.595l0.006-0.005c0.516-0.308 1.119-0.533 1.763-0.636l0.029-0.004h0.224c0.028-0.001 0.061-0.002 0.095-0.002 0.783 0 1.479 0.375 1.917 0.956l0.004 0.006c0.352 0.448 0.448 1.28 0.448 2.656v0.416c-1.28 0.096-2.24 0.096-2.752 0.224-1.529 0.176-2.925 0.548-4.23 1.094l0.102-0.038c-1.174 0.523-2.139 1.334-2.833 2.345l-0.015 0.023c-0.664 0.94-1.061 2.11-1.061 3.372 0 0.086 0.002 0.171 0.005 0.256l-0-0.012c-0.009 0.114-0.015 0.247-0.015 0.381 0 1.494 0.66 2.833 1.705 3.742l0.006 0.005c1.002 0.951 2.359 1.536 3.853 1.536 0.018 0 0.036-0 0.054-0l-0.003 0c0.046 0.001 0.101 0.001 0.156 0.001 0.891 0 1.751-0.129 2.564-0.37l-0.064 0.016c1.366-0.464 2.52-1.247 3.417-2.263l0.007-0.009c0.064 0.064 0.192 0.288 0.416 0.608s0.32 0.544 0.416 0.64l0.448 0.512c0.219 0.269 0.449 0.51 0.698 0.73l0.006 0.006c0.448 0.128 0.768 0.128 0.96-0.096l2.784-2.464c0.111-0.11 0.191-0.252 0.223-0.411l0.001-0.005c-0.063-0.184-0.139-0.342-0.23-0.49l0.006 0.010zM18.4 18.112c-0.048 0.421-0.127 0.801-0.236 1.167l0.012-0.047c-0.149 0.5-0.345 0.935-0.59 1.337l0.014-0.025c-0.379 0.839-1.108 1.462-1.995 1.691l-0.021 0.005h-0.544c-0.024 0.001-0.051 0.002-0.079 0.002-0.622 0-1.174-0.301-1.518-0.765l-0.004-0.005c-0.402-0.442-0.649-1.031-0.649-1.679 0-0.074 0.003-0.147 0.009-0.219l-0.001 0.009c0-1.696 0.864-2.848 2.752-3.52 0.83-0.122 1.787-0.192 2.762-0.192 0.030 0 0.061 0 0.091 0l-0.005-0zM0.704 25.696c0.064-0.192 0.288-0.192 0.48 0 4.346 2.594 9.585 4.128 15.182 4.128 0.006 0 0.012 0 0.018 0h-0.001c3.893-0.021 7.607-0.759 11.026-2.088l-0.21 0.072 0.384-0.192c0.192-0.064 0.288-0.064 0.384-0.192 0.288-0.064 0.448-0.064 0.672 0.192s0.064 0.48-0.192 0.576c-0.384 0.288-0.768 0.448-1.312 0.864-1.538 0.926-3.317 1.683-5.202 2.176l-0.142 0.032c-1.733 0.45-3.727 0.717-5.78 0.736l-0.012 0c-0.072 0.001-0.156 0.001-0.241 0.001-2.887 0-5.642-0.565-8.16-1.59l0.145 0.052c-2.675-1.077-4.974-2.524-6.966-4.308l0.022 0.020c-0.064-0.064-0.192-0.192-0.192-0.288s0-0.064 0.096-0.192zM25.6 26.208c0.014-0.1 0.092-0.178 0.191-0.192l0.001-0c0.375-0.281 0.811-0.509 1.28-0.663l0.032-0.009c0.627-0.183 1.347-0.288 2.092-0.288 0.007 0 0.014 0 0.021 0h0.543c0.562 0 1.091 0.142 1.553 0.393l-0.017-0.009c0.096 0.064 0.096 0.256 0.096 0.448v0.192c-0.042 0.844-0.25 1.631-0.592 2.34l0.016-0.036c-0.323 0.843-0.851 1.547-1.525 2.072l-0.011 0.008c-0.047 0.123-0.112 0.229-0.193 0.321l0.001-0.001h-0.064c-0.061-0.076-0.098-0.173-0.098-0.279 0-0.014 0.001-0.028 0.002-0.042l-0 0.002c0.482-0.994 0.841-2.147 1.016-3.36l0.008-0.064c0-0.192 0-0.384-0.064-0.448-0.362-0.248-0.81-0.397-1.293-0.397-0.086 0-0.17 0.005-0.253 0.014l0.010-0.001c-0.018-0-0.039-0-0.060-0-0.386 0-0.764 0.035-1.13 0.102l0.038-0.006-1.312 0.192c-0.064 0-0.192 0-0.192-0.096s-0.064-0.064 0-0.064c-0.056-0.015-0.096-0.065-0.096-0.124 0-0.001 0-0.003 0-0.004v0z"></path>
</svg>
