<!-- Generated by IcoMoon.io -->
<svg version="1.1" xmlns="http://www.w3.org/2000/svg" width="32" height="32" viewBox="0 0 32 32">
<title>anchor</title>
<path d="M3.68 20.48c-0.002-0.018-0.003-0.040-0.003-0.061 0-0.136 0.050-0.26 0.132-0.355l-0.001 0.001 3.104-3.712 0.672 0.864 2.336 2.88c0.084 0.095 0.135 0.221 0.135 0.359 0 0.031-0.003 0.062-0.008 0.092l0-0.003c-0.010 0.144-0.083 0.27-0.191 0.351l-0.001 0.001c-0.096 0.075-0.219 0.12-0.352 0.12s-0.256-0.045-0.353-0.121l0.001 0.001-0.704-0.576c0.334 1.223 1.008 2.259 1.912 3.033l0.008 0.007c0.931 0.795 2.081 1.36 3.348 1.593l0.044 0.007c0.053 0.011 0.114 0.017 0.176 0.017s0.123-0.006 0.182-0.018l-0.006 0.001c0.114-0.026 0.212-0.082 0.288-0.16l0-0c0.118-0.17 0.19-0.38 0.192-0.608v-11.776c0-0.003 0-0.006 0-0.010 0-0.183-0.073-0.349-0.192-0.47l0 0c-0.085-0.089-0.193-0.156-0.315-0.191l-0.005-0.001h-1.408c-0.008 0-0.016 0-0.025 0-0.375 0-0.715-0.146-0.967-0.385l0.001 0.001c-0.258-0.245-0.418-0.591-0.418-0.975 0-0.029 0.001-0.057 0.003-0.085l-0 0.004c-0.001-0.018-0.001-0.039-0.001-0.060 0-0.37 0.161-0.702 0.416-0.93l0.001-0.001c0.266-0.229 0.611-0.372 0.989-0.384l0.002-0h1.376c0.049-0.017 0.091-0.039 0.13-0.065l-0.002 0.001c0.061-0.027 0.114-0.059 0.161-0.097l-0.001 0.001 0.128-0.128c0.050-0.039 0.085-0.095 0.096-0.158l0-0.002c-0.004-0.038-0.006-0.083-0.006-0.128s0.002-0.090 0.007-0.134l-0 0.006v-0.352c-0.632-0.282-1.146-0.733-1.496-1.298l-0.008-0.014c-0.351-0.555-0.564-1.227-0.576-1.949l-0-0.003c0.004-0.958 0.408-1.821 1.054-2.43l0.002-0.002c0.612-0.632 1.468-1.024 2.415-1.024 0.017 0 0.034 0 0.051 0l-0.003-0c0.012-0 0.026-0 0.040-0 0.96 0 1.829 0.392 2.455 1.024l0 0c0.632 0.586 1.026 1.421 1.026 2.348 0 0.041-0.001 0.081-0.002 0.122l0-0.006c0 0.011 0 0.025 0 0.038 0 0.702-0.215 1.354-0.584 1.893l0.007-0.012c-0.377 0.562-0.885 1.009-1.482 1.302l-0.022 0.010v0.288c-0.007 0.038-0.010 0.083-0.010 0.128s0.004 0.090 0.011 0.133l-0.001-0.005c0.018 0.074 0.052 0.138 0.097 0.193l-0.001-0.001 0.128 0.096c0.046 0.037 0.099 0.069 0.155 0.094l0.005 0.002q0.128 0.064 0.128 0s0 0 0.064 0.064h1.344c0.008-0 0.016-0 0.025-0 0.375 0 0.715 0.146 0.967 0.385l-0.001-0.001c0.276 0.242 0.448 0.595 0.448 0.988 0 0.013-0 0.025-0.001 0.038l0-0.002c0 0 0 0 0 0 0 0.784-0.627 1.422-1.406 1.44l-0.002 0h-1.44c-0.136 0.041-0.254 0.107-0.353 0.193l0.001-0.001c-0.121 0.095-0.198 0.24-0.198 0.404 0 0.027 0.002 0.053 0.006 0.079l-0-0.003v11.808c-0.001 0.015-0.002 0.034-0.002 0.052 0 0.211 0.073 0.405 0.195 0.558l-0.001-0.002c0.082 0.109 0.208 0.182 0.35 0.192l0.002 0h0.288c1.331-0.249 2.5-0.812 3.469-1.61l-0.013 0.010c0.91-0.777 1.575-1.816 1.879-2.999l0.009-0.041-0.672 0.576c-0.086 0.084-0.204 0.135-0.334 0.135-0.029 0-0.057-0.003-0.085-0.008l0.003 0c-0.154-0.033-0.286-0.113-0.383-0.223l-0.001-0.001c-0.075-0.096-0.12-0.219-0.12-0.352s0.045-0.256 0.121-0.353l-0.001 0.001 2.368-2.88 0.64-0.864 3.104 3.712c0.081 0.123 0.129 0.274 0.129 0.436 0 0.015-0 0.031-0.001 0.046l0-0.002c0 0.003 0 0.006 0 0.010 0 0.17-0.089 0.32-0.222 0.405l-0.002 0.001c-0.11 0.098-0.256 0.158-0.416 0.16h-0c-0.15-0-0.286-0.061-0.384-0.16v0l-0.928-0.8c-0.348 2.108-1.283 3.955-2.631 5.415l0.007-0.007c-1.343 1.499-3.111 2.592-5.114 3.089l-0.070 0.015c-0.010 0.003-0.021 0.006-0.032 0.006s-0.022-0.002-0.033-0.006l0.001 0c-0.277 0.063-0.516 0.198-0.704 0.384l0-0c-0.191 0.174-0.344 0.388-0.444 0.628l-0.004 0.012c-0.167 0.624-0.727 1.075-1.393 1.075-0.318 0-0.613-0.103-0.851-0.278l0.004 0.003c-0.251-0.191-0.427-0.471-0.479-0.793l-0.001-0.007c-0.076-0.264-0.234-0.485-0.445-0.638l-0.003-0.002c-0.199-0.165-0.433-0.295-0.689-0.38l-0.015-0.004c-0.014 0.006-0.031 0.009-0.048 0.009s-0.034-0.003-0.049-0.010l0.001 0c-4.036-1.072-7.087-4.359-7.799-8.448l-0.009-0.064-0.864 0.768c-0.096 0.087-0.224 0.14-0.365 0.14-0.041 0-0.081-0.005-0.119-0.013l0.004 0.001c-0.179-0.015-0.336-0.098-0.447-0.223l-0.001-0.001c-0.080-0.102-0.128-0.232-0.128-0.373 0-0.004 0-0.008 0-0.011v0.001zM14.272 4.64c-0 0.004-0 0.009-0 0.014 0 0.389 0.12 0.75 0.324 1.048l-0.004-0.006v-0.16c-0-0.010-0-0.022-0-0.033 0-0.378 0.16-0.719 0.416-0.958l0.001-0.001c0.26-0.245 0.606-0.4 0.989-0.416l0.003-0c0.023-0.001 0.049-0.002 0.076-0.002 0.359 0 0.684 0.148 0.916 0.386l0 0c0.275 0.256 0.446 0.62 0.448 1.024v0.16c0.2-0.289 0.32-0.646 0.32-1.032 0-0.008-0-0.017-0-0.025v0.001c0-0.005 0-0.010 0-0.015 0-0.472-0.196-0.897-0.512-1.2l-0.001-0.001c-0.291-0.298-0.697-0.483-1.146-0.483-0.036 0-0.072 0.001-0.107 0.004l0.005-0c-0.47 0.005-0.897 0.186-1.217 0.481l0.001-0.001c-0.316 0.308-0.512 0.738-0.512 1.214 0 0.001 0 0.001 0 0.002v-0z"></path>
</svg>
