<!-- Generated by IcoMoon.io -->
<svg version="1.1" xmlns="http://www.w3.org/2000/svg" width="21" height="32" viewBox="0 0 21 32">
<title>angle-double-down</title>
<path d="M19.2 15.424q0 0.224-0.192 0.416l-8.32 8.32q-0.16 0.192-0.416 0.192t-0.384-0.192l-8.32-8.32q-0.192-0.192-0.192-0.416t0.192-0.416l0.864-0.896q0.192-0.16 0.416-0.16t0.416 0.16l7.008 7.040 7.040-7.040q0.16-0.16 0.416-0.16t0.384 0.16l0.896 0.896q0.192 0.192 0.192 0.416zM19.2 8.576q0 0.224-0.192 0.416l-8.32 8.32q-0.16 0.16-0.416 0.16t-0.384-0.16l-8.32-8.32q-0.192-0.192-0.192-0.416t0.192-0.416l0.864-0.896q0.192-0.16 0.416-0.16t0.416 0.16l7.008 7.040 7.040-7.040q0.16-0.16 0.416-0.16t0.384 0.16l0.896 0.896q0.192 0.192 0.192 0.416z"></path>
</svg>
