<!-- Generated by IcoMoon.io -->
<svg version="1.1" xmlns="http://www.w3.org/2000/svg" width="21" height="32" viewBox="0 0 21 32">
<title>angle-double-up</title>
<path d="M19.2 23.424q0 0.224-0.192 0.416l-0.896 0.896q-0.16 0.16-0.384 0.16t-0.416-0.16l-7.040-7.008-7.008 7.008q-0.16 0.16-0.416 0.16t-0.416-0.16l-0.864-0.896q-0.192-0.192-0.192-0.416t0.192-0.416l8.32-8.32q0.16-0.16 0.384-0.16t0.416 0.16l8.32 8.32q0.192 0.192 0.192 0.416zM19.2 16.576q0 0.224-0.192 0.416l-0.896 0.896q-0.16 0.16-0.384 0.16t-0.416-0.16l-7.040-7.040-7.008 7.040q-0.16 0.16-0.416 0.16t-0.416-0.16l-0.864-0.896q-0.192-0.192-0.192-0.416t0.192-0.416l8.32-8.32q0.16-0.192 0.384-0.192t0.416 0.192l8.32 8.32q0.192 0.192 0.192 0.416z"></path>
</svg>
