<!-- Generated by IcoMoon.io -->
<svg version="1.1" xmlns="http://www.w3.org/2000/svg" width="27" height="32" viewBox="0 0 27 32">
<title>angle-circled-right</title>
<path d="M12.8 24.896l8.096-8.096q0.352-0.352 0.352-0.8t-0.352-0.8l-8.096-8.096q-0.32-0.352-0.8-0.352t-0.8 0.352l-1.824 1.792q-0.352 0.352-0.352 0.832t0.352 0.8l5.472 5.472-5.472 5.472q-0.352 0.352-0.352 0.8t0.352 0.832l1.824 1.824q0.352 0.32 0.8 0.32t0.8-0.32zM27.424 16q0 3.744-1.824 6.88t-4.992 4.992-6.88 1.856-6.912-1.856-4.96-4.992-1.856-6.88 1.856-6.88 4.96-4.992 6.912-1.856 6.88 1.856 4.992 4.992 1.824 6.88z"></path>
</svg>
