<!-- Generated by IcoMoon.io -->
<svg version="1.1" xmlns="http://www.w3.org/2000/svg" width="32" height="32" viewBox="0 0 32 32">
<title>at</title>
<path d="M29.408 23.744h-5.664c-0.006 0-0.014 0-0.021 0-1.25 0-2.354-0.629-3.011-1.588l-0.008-0.012c-1.257 0.998-2.866 1.601-4.616 1.601-0.042 0-0.084-0-0.126-0.001l0.006 0c-0.028 0-0.061 0.001-0.094 0.001-2.098 0-3.994-0.871-5.344-2.27l-0.002-0.002c-1.403-1.377-2.272-3.294-2.272-5.413 0-0.021 0-0.041 0-0.062l-0 0.003c-0.002-0.065-0.003-0.142-0.003-0.22 0-2.070 0.873-3.935 2.272-5.249l0.004-0.004c1.397-1.403 3.33-2.272 5.466-2.272 0.002 0 0.004 0 0.006 0h7.776v11.584h3.136c0.426-1.137 0.672-2.451 0.672-3.822 0-0.029-0-0.058-0-0.086l0 0.004c0.001-0.060 0.002-0.13 0.002-0.2 0-3.12-1.287-5.94-3.359-7.957l-0.002-0.002c-2.067-2.095-4.937-3.393-8.111-3.393-0.040 0-0.079 0-0.119 0.001l0.006-0c-0.084-0.002-0.182-0.004-0.281-0.004-3.111 0-5.918 1.302-7.906 3.391l-0.004 0.005c-2.114 2.080-3.424 4.971-3.424 8.169 0 0.019 0 0.039 0 0.058v-0.003c-0.001 0.060-0.002 0.131-0.002 0.202 0 3.152 1.313 5.997 3.422 8.018l0.004 0.004c1.995 2.075 4.794 3.364 7.894 3.364 0.105 0 0.209-0.001 0.313-0.004l-0.015 0c0.073 0.002 0.16 0.003 0.246 0.003 3.132 0 5.961-1.301 7.975-3.391l0.003-0.003 2.752 2.752c-2.707 2.824-6.511 4.578-10.724 4.578-0.089 0-0.177-0.001-0.266-0.002l0.013 0c-0.041 0-0.089 0.001-0.137 0.001-4.245 0-8.077-1.766-10.803-4.604l-0.005-0.005c-2.804-2.7-4.546-6.486-4.546-10.679 0-0.082 0.001-0.164 0.002-0.245l-0 0.012c-0-0.029-0-0.062-0-0.096 0-4.256 1.738-8.105 4.543-10.878l0.001-0.001c2.654-2.804 6.403-4.549 10.559-4.549 0.136 0 0.271 0.002 0.405 0.006l-0.020-0c0.043-0 0.094-0.001 0.144-0.001 4.231 0 8.055 1.739 10.797 4.542l0.003 0.003c2.806 2.745 4.545 6.569 4.545 10.8 0 0.062-0 0.124-0.001 0.185l0-0.009c0 0.013 0 0.028 0 0.043 0 2.837-0.773 5.495-2.119 7.772l0.039-0.071zM19.872 16v-3.84h-3.872c-0.009-0-0.020-0-0.031-0-1.041 0-1.982 0.429-2.657 1.119l-0.001 0.001c-0.727 0.682-1.18 1.648-1.184 2.719v0.001c-0 0.012-0 0.027-0 0.041 0 1.044 0.442 1.985 1.15 2.645l0.002 0.002c0.694 0.709 1.652 1.157 2.715 1.184l0.005 0c0.051 0.003 0.11 0.004 0.169 0.004 1.009 0 1.917-0.432 2.548-1.122l0.002-0.003c0.699-0.709 1.136-1.678 1.152-2.749l0-0.003z"></path>
</svg>
