<!-- Generated by IcoMoon.io -->
<svg version="1.1" xmlns="http://www.w3.org/2000/svg" width="25" height="32" viewBox="0 0 25 32">
<title>attach</title>
<path d="M25.056 24.736q0 2.080-1.408 3.488t-3.488 1.408q-2.4 0-4.192-1.76l-13.888-13.888q-2.016-2.048-2.016-4.832 0-2.816 1.984-4.8t4.8-1.984 4.864 2.016l10.816 10.816q0.16 0.16 0.16 0.384 0 0.288-0.544 0.832t-0.832 0.544q-0.224 0-0.416-0.16l-10.816-10.848q-1.408-1.376-3.232-1.376-1.888 0-3.2 1.344t-1.28 3.232q0 1.856 1.344 3.232l13.856 13.856q1.12 1.152 2.592 1.152 1.152 0 1.888-0.768t0.768-1.888q0-1.472-1.152-2.592l-10.368-10.368q-0.448-0.448-1.056-0.448-0.512 0-0.864 0.352t-0.352 0.864q0 0.576 0.448 1.056l7.328 7.296q0.192 0.192 0.192 0.416 0 0.288-0.576 0.832t-0.832 0.544q-0.224 0-0.384-0.16l-7.328-7.328q-1.12-1.088-1.12-2.656 0-1.472 1.024-2.496t2.464-1.024q1.568 0 2.656 1.152l10.4 10.368q1.76 1.728 1.76 4.192z"></path>
</svg>
