<!-- Generated by IcoMoon.io -->
<svg version="1.1" xmlns="http://www.w3.org/2000/svg" width="32" height="32" viewBox="0 0 32 32">
<title>bitbucket</title>
<path d="M2.816 5.152q0-1.824 3.872-3.104c2.566-0.798 5.515-1.257 8.572-1.257 0.26 0 0.519 0.003 0.778 0.010l-0.038-0.001c0.194-0.005 0.424-0.007 0.653-0.007 3.1 0 6.090 0.47 8.903 1.344l-0.212-0.057q3.872 1.28 3.84 3.104 0 0.352-2.208 13.376-0.256 1.408-3.36 2.72c-2.076 0.817-4.481 1.29-6.996 1.29-0.218 0-0.436-0.004-0.652-0.011l0.032 0.001c-0.162 0.005-0.352 0.008-0.543 0.008-2.544 0-4.975-0.484-7.206-1.366l0.133 0.046q-3.104-1.28-3.328-2.688-2.24-12.608-2.24-13.408zM6.080 22.848v-0.128q0-0.512 0.448-0.512c0.149 0.004 0.284 0.064 0.384 0.16l-0-0c1.053 0.789 2.294 1.396 3.639 1.744l0.073 0.016c1.115 0.353 2.412 0.604 3.752 0.701l0.056 0.003 1.568 0.096h0.672l1.6-0.16c0.886-0.102 1.659-0.237 2.416-0.412l-0.144 0.028c0.924-0.22 1.724-0.494 2.488-0.835l-0.088 0.035c0.843-0.33 1.571-0.728 2.239-1.205l-0.031 0.021 0.32-0.16q0.48 0 0.48 0.512c0.005 0.019 0.007 0.041 0.007 0.064s-0.003 0.045-0.008 0.066l0-0.002q-0.672 3.68-0.896 4.928-0.352 1.472-2.912 2.496c-1.607 0.579-3.461 0.913-5.393 0.913-0.264 0-0.526-0.006-0.787-0.019l0.037 0.001c-0.070 0.001-0.153 0.002-0.236 0.002-2.092 0-4.101-0.352-5.972-1l0.128 0.039q-2.592-0.96-2.912-2.496-0.576-2.88-0.928-4.896zM7.584 4.704q0 0.736 2.496 1.248c1.738 0.346 3.737 0.544 5.781 0.544 0.049 0 0.097-0 0.146-0l-0.008 0c0.142 0.002 0.31 0.004 0.478 0.004 1.958 0 3.873-0.188 5.726-0.546l-0.189 0.030q2.496-0.512 2.464-1.248t-2.464-1.312c-1.589-0.332-3.414-0.522-5.284-0.522-0.257 0-0.514 0.004-0.77 0.011l0.038-0.001c-0.061-0-0.134-0.001-0.207-0.001-2.031 0-4.018 0.187-5.945 0.543l0.2-0.031q-2.432 0.48-2.464 1.28zM11.808 15.456c-0 0.012-0 0.027-0 0.041 0 1.142 0.479 2.173 1.246 2.901l0.002 0.002c0.751 0.761 1.791 1.237 2.942 1.248l0.002 0c0.022 0 0.047 0.001 0.073 0.001 1.142 0 2.173-0.479 2.902-1.247l0.002-0.002c0.751-0.703 1.218-1.7 1.218-2.806 0-0.049-0.001-0.097-0.003-0.145l0 0.007c-0.032-1.164-0.489-2.216-1.219-3.011l0.003 0.003c-0.655-0.754-1.615-1.228-2.686-1.228-0.102 0-0.203 0.004-0.303 0.013l0.013-0.001c-1.146 0.017-2.182 0.477-2.945 1.217l0.001-0.001c-0.751 0.781-1.222 1.837-1.248 3.003l-0 0.005zM13.92 15.456c-0 0.003-0 0.007-0 0.011 0 0.561 0.233 1.068 0.607 1.429l0.001 0.001c0.376 0.382 0.894 0.624 1.469 0.64l0.003 0c0.030 0.002 0.064 0.003 0.1 0.003 0.56 0 1.062-0.248 1.403-0.64l0.002-0.002c0.364-0.373 0.593-0.878 0.608-1.437l0-0.003c-0.008-0.583-0.238-1.111-0.609-1.505l0.001 0.001c-0.308-0.38-0.774-0.621-1.297-0.621-0.073 0-0.145 0.005-0.216 0.014l0.008-0.001c-0.566 0.051-1.072 0.272-1.476 0.611l0.004-0.003c-0.395 0.342-0.643 0.844-0.643 1.404 0 0.035 0.001 0.070 0.003 0.104l-0-0.005z"></path>
</svg>
