<!-- Generated by IcoMoon.io -->
<svg version="1.1" xmlns="http://www.w3.org/2000/svg" width="34" height="32" viewBox="0 0 34 32">
<title>bites</title>
<path d="M27.936 5.536c0-1.728 0.416-3.488 1.248-5.024 0.032-0.032 0-0.064 0-0.064s0 0 0 0c-3.52-1.088-7.296-0.128-9.888 2.432l-1.216 1.216-0.928-0.928c-3.84-3.808-10.144-4.192-14.080-0.48-3.936 3.744-4.096 10.016-0.352 13.952 0.032 0.064 0.096 0.128 0.192 0.192l15.136 15.136c0.032 0.032 0.064 0.032 0.064 0l13.92-13.888 1.216-1.248c0.416-0.416 0.8-0.864 1.12-1.344-3.904-1.76-6.432-5.632-6.432-9.952z"></path>
</svg>
