<!-- Generated by IcoMoon.io -->
<svg version="1.1" xmlns="http://www.w3.org/2000/svg" width="32" height="32" viewBox="0 0 32 32">
<title>bookbub</title>
<path d="M7.264 28.32v-24h8.128c0.17-0.011 0.369-0.017 0.57-0.017 1.923 0 3.717 0.554 5.23 1.512l-0.040-0.024c1.283 0.868 2.115 2.318 2.115 3.962 0 0.059-0.001 0.117-0.003 0.175l0-0.008c0 0.023 0.001 0.049 0.001 0.076 0 1.278-0.46 2.449-1.223 3.356l0.006-0.008c-0.833 0.991-1.947 1.722-3.219 2.070l-0.045 0.010c1.576 0.143 2.967 0.838 3.999 1.887l0.001 0.001c0.932 0.956 1.507 2.264 1.507 3.706 0 0.058-0.001 0.116-0.003 0.174l0-0.008c0.005 0.095 0.008 0.206 0.008 0.319 0 1.961-0.882 3.716-2.27 4.89l-0.009 0.008c-1.555 1.207-3.534 1.935-5.683 1.935-0.185 0-0.368-0.005-0.551-0.016l0.025 0.001zM11.904 7.936v6.272h2.496c0.086 0.006 0.186 0.009 0.286 0.009 1.015 0 1.951-0.34 2.7-0.913l-0.011 0.008c0.633-0.576 1.029-1.403 1.029-2.323 0-0.061-0.002-0.122-0.005-0.182l0 0.008c0-1.92-1.408-2.88-4.16-2.88zM11.904 17.792v7.008h3.2c0.092 0.006 0.199 0.010 0.307 0.010 1.092 0 2.098-0.364 2.905-0.978l-0.012 0.009c0.69-0.607 1.123-1.492 1.123-2.478 0-0.051-0.001-0.102-0.003-0.153l0 0.007c0-2.272-1.472-3.392-4.48-3.392z"></path>
</svg>
