<!-- Generated by IcoMoon.io -->
<svg version="1.1" xmlns="http://www.w3.org/2000/svg" width="32" height="32" viewBox="0 0 32 32">
<title>chrome</title>
<path d="M15.936 0c-4.704 0.032-9.312 2.144-12.384 5.952l4.928 7.584c1.248-3.552 4.8-5.824 8.544-5.44l13.248 0.704c-1.344-2.688-3.456-5.024-6.272-6.656-2.528-1.472-5.312-2.144-8.064-2.144zM2.624 7.232c-1.664 2.528-2.624 5.536-2.624 8.768 0 8 5.856 14.624 13.536 15.808l4.096-8.064c-3.712 0.704-7.456-1.248-8.992-4.672l-6.016-11.84zM30.944 10.24l-9.024 0.48c2.432 2.848 2.624 7.072 0.416 10.144l-7.232 11.104c3.008 0.192 6.080-0.48 8.896-2.112 6.912-4 9.728-12.384 6.944-19.616zM16 10.592c-2.976 0-5.408 2.432-5.408 5.408s2.432 5.408 5.408 5.408 5.408-2.432 5.408-5.408-2.432-5.408-5.408-5.408z"></path>
</svg>
