<!-- Generated by IcoMoon.io -->
<svg version="1.1" xmlns="http://www.w3.org/2000/svg" width="32" height="32" viewBox="0 0 32 32">
<title>comment-2</title>
<path d="M31.296 13.472c0 0.007 0 0.015 0 0.023 0 2.362-0.768 4.544-2.069 6.311l0.021-0.029c-1.44 1.966-3.325 3.523-5.512 4.539l-0.088 0.037c-2.2 1.071-4.786 1.697-7.517 1.697-0.046 0-0.092-0-0.138-0.001l0.007 0c-0.879-0.010-1.734-0.067-2.574-0.171l0.11 0.011c-2.116 2.181-4.768 3.83-7.743 4.734l-0.129 0.034c-0.553 0.186-1.203 0.332-1.873 0.412l-0.047 0.004c-0.028 0.005-0.061 0.007-0.094 0.007-0.178 0-0.339-0.077-0.45-0.199l-0-0c-0.138-0.148-0.239-0.332-0.286-0.536l-0.002-0.008q-0.064-0.064 0-0.224c0.010-0.029 0.016-0.062 0.016-0.096s-0.006-0.067-0.017-0.098l0.001 0.002q0-0.064 0.064-0.192l0.096-0.16 0.128-0.192 0.128-0.16q0.128-0.192 0.512-0.672l0.608-0.8q0.224-0.288 0.512-0.8t0.64-0.992c0.156-0.317 0.308-0.699 0.432-1.093l0.016-0.059q0.192-0.672 0.448-1.472c-1.732-1.12-3.15-2.579-4.191-4.293l-0.033-0.059c-0.965-1.57-1.546-3.467-1.568-5.498l-0-0.006c0.005-1.795 0.467-3.481 1.275-4.949l-0.027 0.053c0.836-1.571 1.918-2.899 3.212-3.983l0.020-0.017c1.388-1.133 3.016-2.038 4.789-2.625l0.107-0.031c1.764-0.628 3.8-0.992 5.92-0.992h0c0.048-0 0.105-0.001 0.162-0.001 2.732 0 5.318 0.626 7.622 1.742l-0.104-0.046c2.272 1.045 4.157 2.591 5.573 4.505l0.027 0.039c1.26 1.728 2.016 3.895 2.016 6.237 0 0.023-0 0.047-0 0.070l0-0.004z"></path>
</svg>
