<!-- Generated by IcoMoon.io -->
<svg version="1.1" xmlns="http://www.w3.org/2000/svg" width="32" height="32" viewBox="0 0 32 32">
<title>diamond</title>
<path d="M4.384 13.28l8.928 9.472-4.288-9.472zM16 24.288l4.992-11.008h-9.952zM9.056 11.424l2.944-5.472h-3.776l-4.096 5.472zM18.72 22.752l8.896-9.472h-4.64zM11.136 11.424h9.76l-2.944-5.472h-3.904zM22.944 11.424h4.96l-4.128-5.472h-3.776zM24.96 4.48l5.504 7.328c0.102 0.153 0.162 0.341 0.162 0.543 0 0.023-0.001 0.045-0.002 0.068l0-0.003c-0.004 0.217-0.102 0.411-0.255 0.543l-0.001 0.001-13.696 14.656c-0.164 0.177-0.398 0.288-0.658 0.288-0.005 0-0.010-0-0.014-0h0.001c-0.017 0.001-0.036 0.002-0.056 0.002-0.247 0-0.469-0.112-0.615-0.289l-0.001-0.001-13.728-14.656c-0.143-0.14-0.237-0.33-0.256-0.541l-0-0.003c-0.003-0.025-0.004-0.054-0.004-0.083 0-0.201 0.074-0.385 0.197-0.526l-0.001 0.001 5.536-7.328c0.143-0.232 0.395-0.384 0.684-0.384 0.007 0 0.014 0 0.022 0l-0.001-0h16.448c0.015-0.001 0.033-0.002 0.052-0.002 0.289 0 0.542 0.153 0.682 0.382l0.002 0.003z"></path>
</svg>
