<!-- Generated by IcoMoon.io -->
<svg version="1.1" xmlns="http://www.w3.org/2000/svg" width="32" height="32" viewBox="0 0 32 32">
<title>ello</title>
<path d="M16 1.696c-7.9 0-14.304 6.404-14.304 14.304s6.404 14.304 14.304 14.304c7.9 0 14.304-6.404 14.304-14.304v0c0-7.9-6.404-14.304-14.304-14.304v0zM24.288 18.144c-0.961 3.745-4.306 6.468-8.288 6.468s-7.327-2.723-8.275-6.409l-0.013-0.059c-0.019-0.065-0.030-0.139-0.030-0.216 0-0.373 0.255-0.686 0.6-0.775l0.006-0.001c0.065-0.019 0.139-0.030 0.216-0.030 0.373 0 0.686 0.255 0.775 0.6l0.001 0.006c0.803 3.012 3.507 5.194 6.72 5.194s5.917-2.183 6.709-5.146l0.011-0.049c0.090-0.351 0.403-0.606 0.776-0.606 0.077 0 0.151 0.011 0.222 0.031l-0.006-0.001c0.351 0.090 0.606 0.403 0.606 0.776 0 0.077-0.011 0.151-0.031 0.222l0.001-0.006z"></path>
</svg>
