<!-- Generated by IcoMoon.io -->
<svg version="1.1" xmlns="http://www.w3.org/2000/svg" width="32" height="32" viewBox="0 0 32 32">
<title>email</title>
<path d="M30.624 11.904v12.96c-0.006 0.719-0.312 1.366-0.799 1.823l-0.001 0.001c-0.463 0.479-1.107 0.782-1.821 0.8l-0.003 0h-24c-0.719-0.006-1.366-0.312-1.823-0.799l-0.001-0.001c-0.492-0.441-0.8-1.079-0.8-1.789 0-0.012 0-0.025 0-0.037l-0 0.002v-12.96c0.471 0.541 0.996 1.015 1.572 1.421l0.028 0.019q5.888 4 8.128 5.6 0.928 0.704 1.472 1.056c0.45 0.296 0.966 0.564 1.51 0.78l0.058 0.020c0.517 0.24 1.122 0.381 1.759 0.384h0.097c0.661-0.011 1.286-0.151 1.856-0.396l-0.032 0.012c0.587-0.228 1.094-0.497 1.562-0.817l-0.026 0.017q0.608-0.416 1.504-1.088 2.784-1.984 8.128-5.6c0.616-0.417 1.151-0.881 1.626-1.401l0.006-0.007zM30.624 7.104c-0.009 0.925-0.307 1.779-0.809 2.477l0.009-0.013c-0.542 0.794-1.201 1.463-1.96 2l-0.024 0.016q-6.144 4.256-7.68 5.28l-0.672 0.512-0.864 0.64c-0.248 0.177-0.531 0.347-0.827 0.495l-0.037 0.017c-0.262 0.148-0.578 0.298-0.904 0.428l-0.056 0.020c-0.203 0.083-0.439 0.131-0.686 0.131-0.040 0-0.080-0.001-0.119-0.004l0.005 0c-0.002 0-0.004 0-0.006 0-0.284 0-0.557-0.047-0.812-0.133l0.018 0.005c-0.371-0.135-0.688-0.286-0.987-0.463l0.027 0.015c-0.339-0.176-0.622-0.346-0.893-0.531l0.029 0.019-0.864-0.64-0.672-0.512-4.32-2.944q-2.816-1.92-3.328-2.336c-0.755-0.517-1.392-1.144-1.904-1.865l-0.016-0.023c-0.498-0.612-0.824-1.382-0.895-2.225l-0.001-0.015c-0.001-0.034-0.002-0.074-0.002-0.115 0-0.754 0.253-1.45 0.68-2.005l-0.006 0.008c0.431-0.513 1.074-0.837 1.792-0.837 0.056 0 0.112 0.002 0.167 0.006l-0.007-0h24c0.002 0 0.004 0 0.007 0 0.719 0 1.365 0.308 1.816 0.798l0.002 0.002c0.472 0.456 0.773 1.086 0.8 1.787l0 0.005z"></path>
</svg>
