<!-- Generated by IcoMoon.io -->
<svg version="1.1" xmlns="http://www.w3.org/2000/svg" width="32" height="32" viewBox="0 0 32 32">
<title>evernote</title>
<path d="M3.296 10.176c-0.007-0.072-0.010-0.155-0.010-0.239 0-0.567 0.171-1.093 0.465-1.531l-0.006 0.010c0.193-0.289 0.466-0.511 0.789-0.636l0.011-0.004c0.372-0.164 0.806-0.259 1.262-0.259 0.051 0 0.102 0.001 0.153 0.004l-0.007-0h2.848c0 0 0 0 0 0 0.625 0 1.134-0.498 1.152-1.118l0-0.002q0-0.64 0-1.344v-1.792c-0.001-0.022-0.001-0.047-0.001-0.073 0-0.47 0.131-0.908 0.359-1.282l-0.006 0.011c0.383-0.465 0.913-0.797 1.518-0.925l0.018-0.003c0.388-0.129 0.834-0.203 1.298-0.203 0.106 0 0.212 0.004 0.316 0.012l-0.014-0.001h0.576c1.068 0.007 2.090 0.194 3.041 0.532l-0.065-0.020c0.75 0.331 1.278 1.041 1.344 1.88l0 0.008q0.8 0 1.44 0c0.053-0.001 0.116-0.001 0.179-0.001 0.896 0 1.778 0.058 2.643 0.172l-0.102-0.011c1.444 0.122 2.773 0.372 4.051 0.74l-0.147-0.036c0.877 0.312 1.511 1.096 1.599 2.038l0.001 0.010c0.273 1.85 0.468 4.061 0.541 6.302l0.003 0.098q0.16 2.72 0.16 4.48c0 0.048 0.001 0.105 0.001 0.161 0 0.698-0.035 1.388-0.104 2.068l0.007-0.086c-0.175 2.831-0.631 5.475-1.344 8.011l0.064-0.267c-0.27 0.816-0.563 1.504-0.903 2.163l0.039-0.083c-0.235 0.488-0.502 0.908-0.81 1.293l0.010-0.013c-0.297 0.323-0.675 0.567-1.102 0.699l-0.018 0.005c-0.374 0.142-0.808 0.244-1.26 0.287l-0.020 0.002q-0.544 0-1.792 0-3.296 0-4.416-0.768t-1.152-3.264c-0.004-0.084-0.006-0.182-0.006-0.28 0-0.688 0.108-1.351 0.307-1.973l-0.013 0.046c0.171-0.506 0.54-0.906 1.012-1.115l0.012-0.005c0.4-0.179 0.863-0.314 1.349-0.381l0.027-0.003q0.48 0 1.216 0h0.864c0.029-0.007 0.062-0.011 0.096-0.011s0.067 0.004 0.099 0.012l-0.003-0.001q0.064 0 0 0.16c-0.036 0.065-0.059 0.141-0.064 0.222l-0 0.002c-0.009 0.13-0.044 0.25-0.098 0.357l0.002-0.005c-0.043 0.089-0.069 0.193-0.069 0.303 0 0.028 0.002 0.057 0.005 0.084l-0-0.003c0.002 0.194 0.025 0.381 0.067 0.561l-0.003-0.017c0.012 0.053 0.020 0.114 0.020 0.176s-0.007 0.123-0.021 0.181l0.001-0.005q0 0.096-0.224 0.096h-0.864q-0.32 0-0.32 0.064t-0.224 0.064q-0.256 0-0.256 0.128t-0.192 0.192q-0.16 0.064-0.096 0.256c0.027 0.056 0.043 0.122 0.043 0.192s-0.016 0.136-0.044 0.195l0.001-0.003c-0.003 0.037-0.004 0.080-0.004 0.123 0 0.208 0.037 0.408 0.104 0.593l-0.004-0.012c0.073 0.159 0.159 0.295 0.259 0.42l-0.003-0.004c0.144 0.131 0.333 0.215 0.542 0.224l0.002 0c0.197 0.034 0.429 0.057 0.665 0.064l0.007 0h0.96c0.126 0.014 0.272 0.022 0.42 0.022 0.664 0 1.291-0.162 1.842-0.449l-0.022 0.011q0.48-0.384 0.48-1.952c0.012-0.147 0.019-0.318 0.019-0.49 0-0.961-0.22-1.871-0.612-2.683l0.016 0.037c-0.395-0.543-1.017-0.899-1.724-0.928l-0.004-0c-1.326-0.091-2.56-0.307-3.745-0.639l0.13 0.031q-1.6-0.608-1.6-3.616c0-0.035-0.029-0.064-0.064-0.064v0c-0.002-0-0.004-0-0.005-0-0.042 0-0.077 0.026-0.090 0.064l-0 0.001c0.001 0.052 0.001 0.114 0.001 0.175 0 1.241-0.2 2.435-0.568 3.553l0.023-0.080-0.224 0.704c-0.175 0.471-0.62 0.8-1.143 0.8-0.003 0-0.007 0-0.010-0h-0.159c-0.592-0.001-1.165-0.083-1.709-0.235l0.045 0.011c-2.22-0.223-4.259-0.732-6.169-1.494l0.153 0.054c-0.523-0.251-0.929-0.677-1.146-1.201l-0.006-0.015c-0.463-1.134-0.831-2.459-1.043-3.836l-0.013-0.1q-0.544-2.848-0.736-4.032c-0.059-0.468-0.094-1.013-0.096-1.565v-0.003zM3.456 6.56v-0.064l5.6-5.472-0.064 0.192c-0.222 0.407-0.353 0.891-0.353 1.405 0 0.023 0 0.047 0.001 0.070l-0-0.003q0 0.672 0 3.104c0.001 0.010 0.002 0.021 0.002 0.032 0 0.159-0.129 0.288-0.288 0.288-0.001 0-0.001 0-0.002 0h-2.816c-0.063-0.003-0.136-0.005-0.21-0.005-0.569 0-1.112 0.108-1.612 0.303l0.030-0.010zM20.736 15.36c0.346-0.043 0.747-0.067 1.153-0.067 0.090 0 0.179 0.001 0.268 0.004l-0.013-0c0.894 0.006 1.741 0.205 2.501 0.559l-0.037-0.015q0-2.592-1.856-2.656h-0.096c-0.035-0.003-0.076-0.004-0.117-0.004-0.5 0-0.944 0.239-1.225 0.609l-0.003 0.004c-0.31 0.452-0.517 0.997-0.575 1.586l-0.001 0.014z"></path>
</svg>
