<!-- Generated by IcoMoon.io -->
<svg version="1.1" xmlns="http://www.w3.org/2000/svg" width="32" height="32" viewBox="0 0 32 32">
<title>feather</title>
<path d="M28.288 29.984q0.544 0.416-0.064 0.864c-0.168 0.148-0.39 0.238-0.633 0.238-0.206 0-0.398-0.065-0.554-0.176l0.003 0.002c-2.32-1.101-4.313-2.461-6.064-4.079l0.016 0.015c-0.826 0.211-1.774 0.332-2.75 0.332-2.691 0-5.167-0.92-7.131-2.463l0.025 0.019c0.397 0.029 0.861 0.046 1.328 0.046s0.931-0.017 1.39-0.050l-0.062 0.004c1.066-0.077 2.041-0.213 2.994-0.409l-0.146 0.025q1.248-0.256 1.248-0.576t-2.4-0.96q-2.4-0.672-4.992-1.6c-1.664-0.579-3.094-1.452-4.296-2.567l0.008 0.007c-0.817-0.975-1.462-2.126-1.868-3.384l-0.020-0.072c-0.451-1.137-0.758-2.453-0.861-3.827l-0.003-0.045c0.689 0.791 1.48 1.469 2.356 2.022l0.044 0.026c0.633 0.44 1.368 0.79 2.157 1.012l0.051 0.012q0.96 0.192 1.184-0.256t-2.528-3.84q-2.72-3.488-2.368-4.512c0.471-1.208 1.216-2.222 2.163-2.998l0.013-0.010q1.728-1.6 2.848-1.632c0.881 0.054 1.677 0.383 2.311 0.902l-0.007-0.006c0.853 0.516 1.531 1.245 1.97 2.114l0.014 0.030q0.8 1.792 0.128 4.992c-0.257 1.016-0.471 2.246-0.599 3.503l-0.009 0.113q0.096 0.576 1.12 0 2.048-1.024 2.624-4.928c1.050 1.486 1.708 3.314 1.791 5.292l0.001 0.020c0.015 0.243 0.024 0.527 0.024 0.813 0 1.235-0.16 2.432-0.462 3.572l0.022-0.097q-0.48 1.6-0.32 1.696 0.64 0.416 2.144-0.8c0.894-0.636 1.497-1.63 1.599-2.769l0.001-0.015c0.708 0.796 1.282 1.73 1.675 2.754l0.021 0.062c0.243 0.585 0.394 1.264 0.416 1.975l0 0.009c-0.11 0.873-0.3 1.662-0.569 2.415l0.025-0.079q-0.512 1.664-0.736 2.592z"></path>
</svg>
