<!-- Generated by IcoMoon.io -->
<svg version="1.1" xmlns="http://www.w3.org/2000/svg" width="32" height="32" viewBox="0 0 32 32">
<title>firefox</title>
<path d="M16.128 31.584c-6.912 0-12.384-4.032-14.912-9.792-2.784-6.4-0.544-16.672 4.448-21.216l-0.192 4.992c0.256-0.288 2.176-0.384 2.496 0.032 1.024-1.984 4.352-3.488 7.040-3.52-1.024 0.832-3.392 3.968-3.168 5.568 1.28 0.416 3.296 0.416 4.352 0.48 0.32 0.192 0.256 1.28-0.384 2.176-0.864 1.152-3.104 1.568-3.104 1.568l0.256 3.392-2.464-1.216c-0.832 2.048 1.12 3.84 3.104 3.52 2.208-0.384 3.008-1.824 4.544-1.728 1.568 0.064 2.176 0.928 1.952 1.728-0.224 0.96-1.888 0.8-1.888 0.8-1.408 2.24-3.296 3.2-6.336 2.944 4.608 3.808 10.816 0.352 12.384-2.752 1.6-3.104 0.224-7.744-1.376-9.056 1.888 0.8 3.168 1.632 3.84 3.424 0.352-3.968-1.472-8.512-4.768-11.168 6.176 1.792 9.952 6.56 10.048 14.208s-6.752 15.616-15.872 15.616z"></path>
</svg>
