<!-- Generated by IcoMoon.io -->
<svg version="1.1" xmlns="http://www.w3.org/2000/svg" width="32" height="32" viewBox="0 0 32 32">
<title>flashlight</title>
<path d="M27.616 4.384c1.212 1.149 2.161 2.562 2.759 4.148l0.025 0.076q0.768 2.24-0.16 3.008l-4.384 4.384c-0.561 0.432-1.246 0.729-1.994 0.83l-0.022 0.002c-0.585 0.129-1.257 0.204-1.946 0.204-0.419 0-0.832-0.027-1.237-0.081l0.048 0.005-13.344 13.376c-0.298 0.228-0.675 0.366-1.085 0.366-0.28 0-0.545-0.064-0.781-0.179l0.011 0.005c-0.978-0.33-1.807-0.88-2.46-1.595l-0.004-0.005c-0.693-0.654-1.238-1.456-1.585-2.356l-0.015-0.044c-0.135-0.238-0.214-0.522-0.214-0.825 0-0.404 0.141-0.775 0.377-1.066l-0.002 0.003 13.344-13.344c-0.048-0.357-0.076-0.77-0.076-1.19 0-0.689 0.074-1.361 0.215-2.008l-0.011 0.062c0.113-0.772 0.421-1.458 0.871-2.025l-0.007 0.009 4.448-4.448q0.768-0.896 3.008-0.096c1.658 0.635 3.068 1.582 4.22 2.78l0.004 0.004zM12.992 17.696q1.024 1.056 2.592-0.448t0.48-2.688c-0.239-0.224-0.562-0.361-0.917-0.361-0.118 0-0.232 0.015-0.34 0.043l0.009-0.002c-0.574 0.112-1.068 0.397-1.438 0.798l-0.002 0.002c-0.399 0.358-0.676 0.845-0.766 1.394l-0.002 0.014c-0.010 0.065-0.015 0.139-0.015 0.215 0 0.398 0.152 0.761 0.4 1.034l-0.001-0.001zM24 8c0.643 0.626 1.381 1.159 2.189 1.576l0.051 0.024c0.58 0.33 1.251 0.604 1.958 0.787l0.058 0.013q0.8 0.16 0.896 0c0.004-0.048 0.006-0.104 0.006-0.161 0-0.264-0.049-0.517-0.139-0.749l0.005 0.014c-0.226-0.746-0.509-1.393-0.856-1.998l0.024 0.046c-0.449-0.832-0.981-1.548-1.601-2.177l0.001 0.001c-0.63-0.615-1.345-1.147-2.125-1.575l-0.051-0.025c-0.579-0.334-1.248-0.618-1.954-0.817l-0.062-0.015q-0.736-0.224-0.864-0.064t0 0.896c0.196 0.765 0.47 1.436 0.821 2.057l-0.021-0.041c0.457 0.849 1.011 1.577 1.662 2.206l0.002 0.002z"></path>
</svg>
