<!-- Generated by IcoMoon.io -->
<svg version="1.1" xmlns="http://www.w3.org/2000/svg" width="32" height="32" viewBox="0 0 32 32">
<title>goodreads</title>
<path d="M22.4 0.896v2.656c-0.516-0.724-1.142-1.33-1.862-1.808l-0.026-0.016c-1.295-0.843-2.88-1.344-4.581-1.344-0.009 0-0.019 0-0.028 0h0.001c-0.060-0.002-0.131-0.003-0.202-0.003-2.669 0-5.031 1.318-6.469 3.338l-0.016 0.024c-1.446 2.055-2.311 4.609-2.311 7.366 0 0.144 0.002 0.288 0.007 0.431l-0.001-0.021c-0.006 0.153-0.010 0.332-0.010 0.512 0 2.727 0.816 5.263 2.217 7.377l-0.031-0.050c1.504 2.176 3.808 3.296 6.848 3.328 0.058 0.002 0.127 0.003 0.195 0.003 2.584 0 4.868-1.281 6.252-3.242l0.016-0.024v2.688c0 0.32 0 0.896-0.064 1.6-0.129 0.895-0.387 1.704-0.757 2.446l0.021-0.046c-0.445 0.83-1.087 1.502-1.865 1.971l-0.023 0.013c-0.96 0.587-2.122 0.934-3.365 0.934-0.1 0-0.199-0.002-0.297-0.007l0.014 0c-0.054 0.002-0.118 0.003-0.182 0.003-1.36 0-2.618-0.433-3.645-1.168l0.019 0.013c-1.068-0.847-1.757-2.131-1.792-3.578l-0-0.006-0.032-0.544h-2.624l0.032 0.64c0.16 2.592 1.024 4.48 2.624 5.6 1.481 1.006 3.309 1.606 5.276 1.606 0.114 0 0.227-0.002 0.34-0.006l-0.016 0c0.145 0.008 0.315 0.012 0.486 0.012 1.741 0 3.372-0.468 4.775-1.285l-0.045 0.024c1.18-0.734 2.112-1.768 2.701-2.997l0.019-0.043c0.476-0.978 0.815-2.114 0.955-3.31l0.005-0.050c0.064-1.024 0.128-1.76 0.128-2.208v-20.832zM20.736 17.536c-0.962 1.549-2.653 2.564-4.582 2.564-0.077 0-0.153-0.002-0.229-0.005l0.011 0c-0.063 0.003-0.137 0.004-0.211 0.004-1.897 0-3.563-0.988-4.512-2.479l-0.013-0.022c-1.067-1.622-1.701-3.611-1.701-5.748 0-0.117 0.002-0.233 0.006-0.349l-0 0.017c-0.001-0.044-0.001-0.097-0.001-0.149 0-2.165 0.633-4.183 1.723-5.878l-0.026 0.043c0.947-1.546 2.627-2.562 4.545-2.562 0.056 0 0.112 0.001 0.167 0.003l-0.008-0c0.055-0.002 0.121-0.003 0.186-0.003 1.932 0 3.635 0.984 4.633 2.479l0.013 0.020c1.046 1.638 1.667 3.636 1.667 5.779 0 0.095-0.001 0.189-0.004 0.283l0-0.014c0.005 0.116 0.007 0.252 0.007 0.389 0 2.084-0.599 4.029-1.633 5.672l0.026-0.044z"></path>
</svg>
