<!-- Generated by IcoMoon.io -->
<svg version="1.1" xmlns="http://www.w3.org/2000/svg" width="32" height="32" viewBox="0 0 32 32">
<title>google-groups</title>
<path d="M19.2 0.608c0.066-0.001 0.145-0.002 0.223-0.002 3.299 0 6.281 1.361 8.415 3.552l0.003 0.003c2.192 2.121 3.553 5.089 3.553 8.376 0 0.059-0 0.118-0.001 0.177l0-0.009c0.001 0.047 0.001 0.103 0.001 0.159 0 3.135-1.218 5.985-3.207 8.103l0.006-0.006c-1.963 2.209-4.749 3.649-7.872 3.838l-0.032 0.002c-0.781 1.943-2.073 3.544-3.71 4.682l-0.034 0.022c-1.586 1.16-3.574 1.856-5.726 1.856-0.012 0-0.024-0-0.036-0h0.002c-0.049 0.001-0.107 0.001-0.165 0.001-2.765 0-5.261-1.154-7.032-3.006l-0.003-0.004c-1.818-1.784-2.945-4.267-2.945-7.013 0-0.043 0-0.086 0.001-0.129l-0 0.007c-0.001-0.053-0.002-0.116-0.002-0.179 0-2.101 0.659-4.047 1.782-5.645l-0.021 0.031c1.151-1.66 2.741-2.941 4.604-3.688l0.069-0.024c0.253-3.143 1.705-5.905 3.893-7.862l0.011-0.010c2.097-2.001 4.945-3.233 8.079-3.233 0.051 0 0.102 0 0.152 0.001l-0.008-0zM10.784 28c0.091 0.005 0.197 0.007 0.304 0.007 2.391 0 4.467-1.352 5.504-3.333l0.016-0.034c-4.639-1.006-8.226-4.604-9.202-9.17l-0.014-0.078c-2.033 1.048-3.399 3.132-3.399 5.536 0 0.101 0.002 0.202 0.007 0.302l-0.001-0.014c-0.001 0.033-0.001 0.073-0.001 0.112 0 1.839 0.76 3.5 1.983 4.686l0.002 0.002c1.188 1.225 2.849 1.985 4.688 1.985 0.039 0 0.079-0 0.118-0.001l-0.006 0zM10.912 14.496c0.345 1.707 1.173 3.182 2.335 4.319l0.001 0.001c1.142 1.132 2.601 1.945 4.232 2.294l0.056 0.010c-0.035-1.813-0.801-3.44-2.014-4.606l-0.002-0.002c-1.163-1.227-2.791-2.004-4.6-2.048l-0.008-0zM20.96 21.12c1.969-0.398 3.643-1.455 4.819-2.928l0.013-0.016c1.195-1.43 1.921-3.289 1.921-5.317 0-0.043-0-0.086-0.001-0.129l0 0.007c0.001-0.037 0.001-0.080 0.001-0.124 0-2.317-0.97-4.408-2.526-5.889l-0.003-0.003c-1.528-1.521-3.635-2.462-5.961-2.462-2.059 0-3.946 0.737-5.412 1.961l0.013-0.011c-1.483 1.194-2.524 2.884-2.873 4.815l-0.007 0.049c2.759 0.005 5.252 1.143 7.038 2.974l0.002 0.002c1.833 1.788 2.971 4.281 2.976 7.039v0.001zM4.096 7.776c-0.001 0-0.002 0-0.003 0-0.936 0-1.783-0.379-2.397-0.992l0 0c-0.631-0.586-1.024-1.42-1.024-2.347 0-0.019 0-0.037 0-0.056l-0 0.003c-0.002-0.041-0.003-0.088-0.003-0.136 0-0.925 0.381-1.76 0.994-2.359l0.001-0.001c0.614-0.613 1.461-0.992 2.397-0.992 0.001 0 0.002 0 0.003 0h-0c0.029-0.001 0.062-0.001 0.096-0.001 1.891 0 3.424 1.533 3.424 3.424 0 0.012-0 0.023-0 0.035v-0.002c0 0.013 0 0.028 0 0.043 0 0.923-0.38 1.758-0.992 2.357l-0.001 0.001c-0.612 0.632-1.468 1.025-2.416 1.025-0.028 0-0.056-0-0.084-0.001l0.004 0zM4.096 2.4c-0.003-0-0.006-0-0.010-0-0.515 0-0.979 0.222-1.301 0.575l-0.001 0.001c-0.337 0.345-0.544 0.818-0.544 1.339 0 0.002 0 0.003 0 0.005v-0c0 0.512 0.208 0.976 0.544 1.312v0c0.323 0.354 0.787 0.576 1.302 0.576 0.003 0 0.007 0 0.010-0h-0.001c0.009 0 0.021 0 0.032 0 0.529 0 1.006-0.221 1.344-0.576l0.001-0.001c0.354-0.327 0.575-0.794 0.576-1.312v-0c0-0.528-0.221-1.005-0.575-1.343l-0.001-0.001c-0.339-0.355-0.816-0.576-1.344-0.576-0.011 0-0.022 0-0.033 0l0.002-0z"></path>
</svg>
