<!-- Generated by IcoMoon.io -->
<svg version="1.1" xmlns="http://www.w3.org/2000/svg" width="32" height="32" viewBox="0 0 32 32">
<title>gplus</title>
<path d="M10.464 14.144q0 1.92 0 3.84h5.408c-0.224 1.286-0.952 2.37-1.968 3.062l-0.016 0.010c-0.629 0.421-1.373 0.724-2.175 0.859l-0.033 0.005c-0.361 0.071-0.776 0.112-1.2 0.112s-0.839-0.041-1.241-0.118l0.041 0.007c-0.817-0.185-1.536-0.517-2.161-0.972l0.017 0.012c-1.045-0.745-1.837-1.784-2.259-2.997l-0.013-0.043c-0.201-0.573-0.316-1.233-0.316-1.92s0.116-1.347 0.329-1.962l-0.013 0.042c0.315-0.913 0.808-1.694 1.441-2.337l-0.001 0.001c1.061-1.098 2.546-1.779 4.19-1.779 0.594 0 1.167 0.089 1.707 0.254l-0.041-0.011c0.839 0.268 1.557 0.708 2.145 1.281l-0.001-0.001 1.824-1.824c0.32-0.32 0.64-0.64 0.96-0.992-0.897-0.828-1.961-1.491-3.134-1.93l-0.066-0.022c-1.021-0.389-2.201-0.614-3.434-0.614-3.847 0-7.182 2.189-8.828 5.39l-0.026 0.056c-0.669 1.294-1.061 2.825-1.061 4.448s0.392 3.154 1.087 4.503l-0.026-0.055c0.673 1.309 1.577 2.407 2.668 3.281l0.020 0.015c1.019 0.807 2.229 1.425 3.547 1.776l0.069 0.016c0.798 0.215 1.714 0.339 2.658 0.339 0.85 0 1.677-0.1 2.47-0.29l-0.072 0.015c1.582-0.363 2.956-1.102 4.071-2.118l-0.007 0.006c1.158-1.088 2.025-2.473 2.48-4.032l0.016-0.064c0.281-0.951 0.442-2.044 0.442-3.175 0-0.733-0.068-1.45-0.198-2.145l0.011 0.072h-9.312zM31.456 14.336h-3.392v-3.36h-2.464v3.36h-3.392v2.464h3.392v3.392h2.464v-3.392h3.392z"></path>
</svg>
