<!-- Generated by IcoMoon.io -->
<svg version="1.1" xmlns="http://www.w3.org/2000/svg" width="32" height="32" viewBox="0 0 32 32">
<title>gplus-old</title>
<path d="M1.312 13.312c0.206 0.271 0.416 0.511 0.64 0.736l-0-0c1.258 1.211 2.971 1.957 4.858 1.957 0.092 0 0.184-0.002 0.275-0.005l-0.013 0q0.288 0 1.376-0.096-0.064 0.192-0.32 0.832c-0.082 0.239-0.129 0.515-0.129 0.802 0 0.022 0 0.044 0.001 0.066l-0-0.003c0.097 1.143 0.566 2.161 1.284 2.948l-0.004-0.004c-1.061 0.013-2.090 0.106-3.094 0.272l0.118-0.016c-1.861 0.264-3.544 0.803-5.086 1.579l0.094-0.043v9.888h12.576c0.429-0.242 0.795-0.485 1.142-0.752l-0.022 0.016c0.886-0.698 1.6-1.575 2.093-2.58l0.019-0.044c0.451-0.895 0.74-1.943 0.799-3.052l0.001-0.020c0.001-0.041 0.002-0.089 0.002-0.137 0-1.383-0.457-2.66-1.229-3.687l0.011 0.016c-0.684-0.924-1.476-1.716-2.37-2.379l-0.030-0.021c-0.414-0.306-0.779-0.621-1.12-0.96l0 0c-0.665-0.427-1.123-1.128-1.215-1.94l-0.001-0.012q0-1.12 1.6-2.56 0.544-0.448 1.312-1.28c0.466-0.535 0.845-1.161 1.106-1.846l0.014-0.042c0.285-0.698 0.45-1.509 0.45-2.358 0-0.060-0.001-0.119-0.002-0.179l0 0.009c0-0.001 0-0.001 0-0.002 0-1.236-0.296-2.403-0.82-3.433l0.020 0.043c-0.499-1.028-1.254-1.865-2.184-2.45l-0.024-0.014h2.656l2.656-1.536h-8.64c-1.315 0.002-2.597 0.141-3.832 0.406l0.12-0.022c-1.881 0.403-3.482 1.409-4.629 2.802l-0.011 0.014q-0.256 0.288-0.448 0.576zM12.992 23.584c0.094 0.121 0.199 0.226 0.316 0.317l0.004 0.003q0.288 0.256 0.448 0.416c0.108 0.103 0.203 0.219 0.284 0.345l0.004 0.007c0.045 0.053 0.079 0.118 0.095 0.189l0.001 0.003c0.039 0.077 0.093 0.141 0.159 0.191l0.001 0.001c0.065 0.073 0.118 0.158 0.158 0.25l0.002 0.006c0.13 0.193 0.248 0.414 0.343 0.648l0.009 0.024c0.148 0.447 0.24 0.962 0.256 1.496l0 0.008c0 0.021 0.001 0.045 0.001 0.069 0 0.762-0.202 1.478-0.555 2.095l0.011-0.021c-0.357 0.626-0.855 1.135-1.454 1.494l-0.018 0.010c-1.148 0.667-2.527 1.060-3.997 1.060-0.091 0-0.182-0.002-0.272-0.005l0.013 0c-0.023 0-0.051 0-0.079 0-1.769 0-3.429-0.463-4.867-1.274l0.050 0.026c-0.762-0.396-1.388-0.96-1.845-1.646l-0.011-0.018c-0.441-0.657-0.704-1.465-0.704-2.336 0-0.023 0-0.045 0.001-0.068l-0 0.003c-0.001-0.028-0.001-0.061-0.001-0.094 0-0.754 0.202-1.461 0.556-2.070l-0.011 0.020c0.755-1.181 1.92-2.043 3.29-2.392l0.038-0.008c1.259-0.406 2.708-0.64 4.211-0.64 0.004 0 0.009 0 0.013 0h-0.001q0.32 0 0.992 0.096c0.207 0.125 0.384 0.252 0.552 0.39l-0.008-0.006c0.205 0.161 0.436 0.31 0.679 0.436l0.025 0.012c0.5 0.326 0.928 0.642 1.337 0.98l-0.025-0.020zM4.576 3.776c0.662-0.841 1.68-1.376 2.823-1.376 0.009 0 0.017 0 0.026 0h-0.001c0.884 0.002 1.697 0.303 2.345 0.806l-0.009-0.006c0.715 0.551 1.28 1.261 1.65 2.078l0.014 0.034c0.775 1.478 1.244 3.224 1.28 5.077l0 0.011c0.005 0.088 0.008 0.191 0.008 0.294 0 1.086-0.338 2.094-0.915 2.923l0.011-0.017c-0.591 0.694-1.465 1.132-2.442 1.132-0.098 0-0.195-0.004-0.29-0.013l0.012 0.001c-0.004 0-0.008 0-0.012 0-0.71 0-1.378-0.178-1.962-0.491l0.022 0.011c-1.179-0.777-2.094-1.868-2.639-3.154l-0.017-0.046c-0.588-1.167-0.941-2.54-0.96-3.994l-0-0.006c-0.002-0.047-0.002-0.102-0.002-0.157 0-1.175 0.398-2.257 1.067-3.118l-0.009 0.012zM18.016 6.048h5.088v-5.024h2.496v5.024h5.088v2.528h-5.088v5.12h-2.496v-5.12h-5.088z"></path>
</svg>
