<!-- Generated by IcoMoon.io -->
<svg version="1.1" xmlns="http://www.w3.org/2000/svg" width="32" height="32" viewBox="0 0 32 32">
<title>heart-outline</title>
<path d="M29.376 10.784c0.002-0.063 0.003-0.138 0.003-0.213 0-0.816-0.13-1.601-0.37-2.336l0.015 0.053c-0.23-0.655-0.568-1.22-0.996-1.701l0.004 0.005c-0.385-0.44-0.854-0.796-1.382-1.045l-0.026-0.011c-0.45-0.206-0.983-0.393-1.535-0.53l-0.065-0.014c-0.385-0.092-0.828-0.145-1.282-0.145-0.157 0-0.312 0.006-0.466 0.019l0.020-0.001c-0.706 0.060-1.357 0.22-1.966 0.464l0.046-0.016c-0.759 0.273-1.416 0.642-1.999 1.1l0.015-0.012q-0.928 0.8-1.472 1.28c-0.39 0.337-0.745 0.682-1.079 1.047l-0.009 0.009c-0.201 0.237-0.499 0.387-0.832 0.387s-0.631-0.15-0.831-0.385l-0.001-0.002q-0.448-0.48-1.088-1.056c-0.452-0.441-0.932-0.86-1.434-1.252l-0.038-0.028c-0.565-0.421-1.207-0.796-1.889-1.095l-0.063-0.025c-0.561-0.279-1.221-0.444-1.919-0.448h-0.001q-0.864 0-1.728 0.128c-0.601 0.081-1.143 0.285-1.616 0.586l0.016-0.010c-0.543 0.334-1.014 0.682-1.452 1.066l0.012-0.010c-0.469 0.445-0.808 1.023-0.956 1.674l-0.004 0.022c-0.206 0.737-0.343 1.591-0.383 2.471l-0.001 0.025q0 2.912 3.264 6.176l10.112 9.728 10.112-9.728q3.264-3.264 3.264-6.176zM31.616 10.784q0 3.84-4 7.84l-10.816 10.464c-0.202 0.198-0.479 0.32-0.784 0.32s-0.582-0.122-0.784-0.32l0 0-10.848-10.496-0.48-0.48q-0.32-0.288-0.96-1.12c-0.409-0.506-0.8-1.070-1.148-1.663l-0.036-0.065c-0.357-0.593-0.681-1.28-0.935-2l-0.025-0.080c-0.259-0.714-0.411-1.539-0.416-2.398v-0.002c-0.007-0.126-0.011-0.273-0.011-0.421 0-2.163 0.858-4.125 2.253-5.565l-0.002 0.002c1.502-1.356 3.502-2.186 5.695-2.186 0.146 0 0.292 0.004 0.437 0.011l-0.020-0.001c0.001 0 0.002 0 0.004 0 0.777 0 1.524 0.129 2.221 0.366l-0.048-0.014c0.805 0.264 1.504 0.612 2.142 1.043l-0.030-0.019q0.96 0.64 1.664 1.184c0.487 0.37 0.917 0.769 1.304 1.207l0.008 0.009q0.64-0.64 1.312-1.184c0.498-0.41 1.051-0.811 1.629-1.176l0.067-0.040c0.595-0.379 1.281-0.723 2.001-0.998l0.079-0.026c0.614-0.244 1.326-0.385 2.070-0.385 0.037 0 0.074 0 0.111 0.001l-0.006-0c0.136-0.008 0.294-0.012 0.454-0.012 2.188 0 4.178 0.844 5.663 2.225l-0.005-0.005c1.393 1.438 2.251 3.4 2.251 5.563 0 0.148-0.004 0.295-0.012 0.441l0.001-0.020z"></path>
</svg>
