<!-- Generated by IcoMoon.io -->
<svg version="1.1" xmlns="http://www.w3.org/2000/svg" width="30" height="32" viewBox="0 0 30 32">
<title>ie</title>
<path d="M27.008 0c-2.592 0.032-5.792 1.472-8.992 3.392-7.648-1.12-15.936 3.296-16.288 12.352 1.92-2.976 7.168-8.224 11.744-9.632v0.416c-5.728 2.88-18.272 19.584-11.52 24.736 2.88 2.208 9.92-1.184 11.008-2.432 0.928 0.16 1.888 0.256 2.848 0.256 6.432 0 11.872-3.968 13.568-9.344h-9.632c-0.416 1.792-1.792 2.944-3.872 2.944-3.264 0-4.032-2.176-4.032-4.832h17.952c0.928-6.528-3.648-12.32-9.792-14.048 5.568-3.68 11.616-5.152 9.568 3.328h0.64c1.12-3.488 0.672-6.112-1.216-6.816-0.576-0.224-1.184-0.32-1.856-0.32-0.032 0-0.096 0-0.128 0zM15.744 9.696c2.528 0 4.096 1.536 4.096 4.128h-8.064c0-2.464 1.472-4.128 3.968-4.128zM4 23.2c1.856 2.656 4.768 4.64 8.192 5.472-2.464 1.856-7.232 2.688-8.512 1.664-1.536-1.28-1.152-3.968 0.32-7.136z"></path>
</svg>
