<!-- Generated by IcoMoon.io -->
<svg version="1.1" xmlns="http://www.w3.org/2000/svg" width="32" height="32" viewBox="0 0 32 32">
<title>iheartradio</title>
<path d="M23.2 5.088c-3.008 0-5.6 1.6-7.2 3.904-1.504-2.304-4.192-3.904-7.2-3.904-4.704 0-8.608 3.808-8.608 8.608 0 3.008 1.92 5.216 3.904 7.2l7.808 7.392c0.384 0.416 1.088 0.128 1.088-0.48v-5.824c0-1.696 1.312-2.976 3.008-2.976s3.008 1.28 3.008 2.976v5.728c0 0.576 0.704 0.896 1.088 0.48l7.808-7.392c1.984-2.016 3.904-4.192 3.904-7.2 0-4.704-3.904-8.512-8.608-8.512zM8.192 20.288c-0.096 0.096-0.288 0.224-0.384 0.224s-0.32 0-0.416-0.128c-2.592-2.272-3.904-4.576-3.904-7.072v0c0-2.112 1.312-4.416 2.912-5.504 0.288-0.224 0.704-0.096 0.8 0.192 0.192 0.288 0.096 0.608-0.192 0.8-1.312 0.8-2.4 2.784-2.4 4.512v0c0 2.080 1.184 4.096 3.488 6.176 0.32 0.224 0.32 0.512 0.096 0.8zM12 18.112c-0.096 0.192-0.288 0.288-0.512 0.288-0.096 0-0.192 0-0.288-0.096-1.696-0.992-2.912-2.912-2.912-4.8v0c0-1.792 1.024-3.392 2.624-4.192 0.288-0.224 0.704 0 0.8 0.192 0.192 0.288 0 0.704-0.224 0.8-1.184 0.608-1.888 1.888-1.888 3.2 0 1.504 0.896 3.008 2.304 3.68 0.192 0.224 0.288 0.608 0.096 0.928zM16 16.512c-1.408 0-2.592-1.216-2.592-2.624 0-1.376 1.184-2.592 2.592-2.592s2.592 1.216 2.592 2.592c0 1.504-1.184 2.624-2.592 2.624zM20.8 18.304c-0.096 0.096-0.192 0.096-0.288 0.096-0.224 0-0.416-0.096-0.512-0.288-0.192-0.32-0.096-0.704 0.192-0.8 1.408-0.8 2.304-2.304 2.304-3.712 0-1.312-0.704-2.592-1.888-3.2-0.32-0.192-0.416-0.512-0.192-0.8 0.192-0.288 0.48-0.416 0.8-0.192 1.6 0.8 2.592 2.496 2.592 4.192v0c-0.096 1.792-1.312 3.712-3.008 4.704zM28.512 13.312c0 2.4-1.312 4.8-3.904 7.072-0.096 0.128-0.32 0.128-0.416 0.128-0.192 0-0.288-0.128-0.384-0.224-0.192-0.192-0.192-0.576 0.096-0.8 2.304-1.984 3.488-4.096 3.488-6.176v0c0-1.728-0.992-3.616-2.4-4.512-0.288-0.192-0.384-0.512-0.192-0.8s0.512-0.416 0.8-0.192c1.6 0.992 2.912 3.392 2.912 5.504v0z"></path>
</svg>
