<!-- Generated by IcoMoon.io -->
<svg version="1.1" xmlns="http://www.w3.org/2000/svg" width="32" height="32" viewBox="0 0 32 32">
<title>location</title>
<path d="M4.256 12.064c-0.001-0.049-0.001-0.106-0.001-0.164 0-3.194 1.311-6.082 3.423-8.155l0.002-0.002c2.043-2.133 4.913-3.458 8.094-3.458 0.080 0 0.159 0.001 0.238 0.002l-0.012-0c0.028-0 0.060-0 0.093-0 3.222 0 6.135 1.323 8.225 3.455l0.002 0.002c2.133 2.058 3.458 4.941 3.458 8.134 0 0.066-0.001 0.131-0.002 0.196l0-0.010c0.010 0.162 0.015 0.352 0.015 0.543 0 2.043-0.628 3.939-1.701 5.507l0.022-0.033-10.112 13.44-10.112-13.44c-1.033-1.525-1.65-3.405-1.65-5.43 0-0.206 0.006-0.411 0.019-0.614l-0.001 0.028zM11.072 12.064c-0 0.010-0 0.021-0 0.032 0 2.704 2.192 4.896 4.896 4.896 0.011 0 0.023-0 0.034-0h-0.002c0.010 0 0.021 0 0.032 0 2.704 0 4.896-2.192 4.896-4.896 0-0.011-0-0.023-0-0.034v0.002c0-0.010 0-0.021 0-0.032 0-2.704-2.192-4.896-4.896-4.896-0.011 0-0.023 0-0.034 0h0.002c-0.010-0-0.021-0-0.032-0-2.704 0-4.896 2.192-4.896 4.896 0 0.011 0 0.023 0 0.034v-0.002z"></path>
</svg>
