<!-- Generated by IcoMoon.io -->
<svg version="1.1" xmlns="http://www.w3.org/2000/svg" width="27" height="32" viewBox="0 0 27 32">
<title>pencil</title>
<path d="M6.496 27.424l1.6-1.632-4.192-4.192-1.632 1.632v1.92h2.304v2.272h1.92zM15.808 10.848q0-0.384-0.384-0.384-0.16 0-0.288 0.128l-9.696 9.664q-0.128 0.128-0.128 0.32 0 0.384 0.416 0.384 0.16 0 0.288-0.128l9.696-9.664q0.096-0.128 0.096-0.32zM14.848 7.424l7.424 7.424-14.848 14.88h-7.424v-7.456zM27.040 9.152q0 0.928-0.64 1.6l-2.976 2.976-7.424-7.456 2.976-2.944q0.64-0.672 1.6-0.672 0.928 0 1.632 0.672l4.192 4.192q0.64 0.704 0.64 1.632z"></path>
</svg>
