<!-- Generated by IcoMoon.io -->
<svg version="1.1" xmlns="http://www.w3.org/2000/svg" width="32" height="32" viewBox="0 0 32 32">
<title>periscope</title>
<path d="M16.16 1.184c-6.545 0.107-11.81 5.438-11.81 11.998 0 0.068 0.001 0.136 0.002 0.204l-0-0.010c0 7.040 9.184 17.44 11.808 17.44 2.304 0 11.488-10.432 11.488-17.44 0.032-6.656-5.248-12.192-11.488-12.192zM16.192 19.776c-0.059 0.002-0.128 0.003-0.198 0.003-3.823 0-6.941-3.020-7.098-6.805l-0-0.014c-0.001-0.039-0.001-0.084-0.001-0.129 0-1.649 0.567-3.165 1.516-4.365l-0.011 0.015c0 0.001 0 0.002 0 0.003 0 1.538 1.246 2.784 2.784 2.784s2.784-1.246 2.784-2.784c0-1.145-0.691-2.128-1.678-2.556l-0.018-0.007c0.561-0.142 1.206-0.224 1.869-0.224 0.018 0 0.036 0 0.054 0h-0.003c3.679 0.256 6.566 3.303 6.566 7.024s-2.887 6.768-6.544 7.023l-0.022 0.001z"></path>
</svg>
