<!-- Generated by IcoMoon.io -->
<svg version="1.1" xmlns="http://www.w3.org/2000/svg" width="32" height="32" viewBox="0 0 32 32">
<title>phone-2</title>
<path d="M3.36 9.216c-0.005-0.058-0.007-0.126-0.007-0.194 0-0.684 0.271-1.304 0.712-1.759l-0.001 0.001 3.552-3.52c0.218-0.249 0.537-0.406 0.892-0.406 0.488 0 0.908 0.296 1.089 0.718l0.003 0.008 2.912 5.408c0.092 0.189 0.146 0.411 0.146 0.646 0 0.458-0.205 0.868-0.528 1.144l-0.002 0.002-1.312 1.344c-0.080 0.094-0.128 0.217-0.128 0.351 0 0.001 0 0.001 0 0.002v-0c0.639 2.015 1.808 3.71 3.342 4.978l0.018 0.014 0.8 0.8 0.928 0.896q0.928 0.864 0.864 0.64t1.056 0.64q1.088 0.864 1.024 0.384 0.512 0.128 0.672-0.064l1.6-1.536c0.289-0.287 0.687-0.464 1.127-0.464 0.266 0 0.517 0.065 0.738 0.18l-0.009-0.004 5.152 3.040c0.343 0.203 0.584 0.548 0.639 0.953l0.001 0.007c0.009 0.054 0.014 0.117 0.014 0.181 0 0.317-0.128 0.603-0.334 0.811l0-0-3.616 3.584c-0.459 0.438-1.081 0.707-1.766 0.707-0.043 0-0.085-0.001-0.128-0.003l0.006 0q-3.616-0.128-8.16-3.104-6.592-4.8-9.6-10.4-1.856-3.904-1.696-5.984z"></path>
</svg>
