<!-- Generated by IcoMoon.io -->
<svg version="1.1" xmlns="http://www.w3.org/2000/svg" width="32" height="32" viewBox="0 0 32 32">
<title>picasa</title>
<path d="M9.12 2.528q0.32 0.384 5.184 4.736l-13.024 11.872c-0.244-0.94-0.384-2.019-0.384-3.131 0-0.002 0-0.003 0-0.005v0c0-0.008-0-0.017-0-0.026 0-5.83 3.303-10.889 8.14-13.406l0.084-0.040zM22.24 2.208v9.12l-10.784-9.728c1.302-0.447 2.803-0.705 4.364-0.705 0.063 0 0.127 0 0.19 0.001l-0.010-0c0 0 0.001 0 0.001 0 2.258 0 4.402 0.483 6.337 1.351l-0.098-0.039zM24.544 3.52c2.018 1.385 3.641 3.203 4.761 5.327l0.039 0.081c1.108 2.039 1.76 4.466 1.76 7.044 0 0.010 0 0.020-0 0.029v-0.002c0 0.040 0.001 0.087 0.001 0.133 0 1.741-0.305 3.412-0.865 4.96l0.032-0.102h-5.728zM2.016 21.6q0.384-0.384 2.176-1.984l3.328-3.008v11.872c-2.459-1.689-4.359-4.032-5.468-6.779l-0.036-0.101zM9.824 29.824v-6.528h19.392c-1.228 2.18-2.899 3.975-4.904 5.309l-0.056 0.035c-1.947 1.315-4.289 2.198-6.816 2.459l-0.064 0.005h-2.752c-1.775-0.184-3.401-0.649-4.892-1.351l0.092 0.039z"></path>
</svg>
