<!-- Generated by IcoMoon.io -->
<svg version="1.1" xmlns="http://www.w3.org/2000/svg" width="32" height="32" viewBox="0 0 32 32">
<title>pinterest</title>
<path d="M0.672 16c-0-0.019-0-0.042-0-0.064 0-4.257 1.765-8.103 4.604-10.844l0.004-0.004c2.703-2.728 6.451-4.417 10.593-4.417 0.045 0 0.089 0 0.134 0.001l-0.007-0c0.063-0.001 0.138-0.001 0.212-0.001 4.225 0 8.041 1.754 10.759 4.573l0.004 0.005c2.692 2.759 4.352 6.535 4.352 10.699 0 0.018-0 0.037-0 0.055v-0.003c0 0.017 0 0.038 0 0.058 0 4.233-1.753 8.057-4.572 10.786l-0.004 0.004c-2.729 2.769-6.521 4.485-10.714 4.485-1.554 0-3.054-0.236-4.464-0.674l0.107 0.029q0.448-0.672 0.864-1.504c0.417-1.038 0.823-2.32 1.142-3.636l0.042-0.204q0.192-0.8 0.544-2.112c0.361 0.554 0.847 0.999 1.419 1.302l0.021 0.010c0.763 0.356 1.656 0.563 2.597 0.563 1.14 0 2.208-0.304 3.129-0.835l-0.030 0.016c2.067-1.224 3.6-3.163 4.271-5.47l0.017-0.066c0.314-0.985 0.495-2.119 0.495-3.294 0-1.451-0.276-2.837-0.778-4.109l0.026 0.076c-0.9-2.229-2.619-3.968-4.774-4.874l-0.058-0.022c-1.16-0.367-2.494-0.579-3.878-0.579-1.664 0-3.257 0.306-4.725 0.865l0.091-0.030c-2.577 0.886-4.612 2.774-5.672 5.187l-0.024 0.061c-0.259 0.797-0.441 1.724-0.51 2.682l-0.002 0.038c-0.019 0.262-0.031 0.568-0.031 0.876 0 0.628 0.046 1.245 0.135 1.848l-0.008-0.068c0.121 0.873 0.439 1.653 0.907 2.321l-0.011-0.017c0.481 0.695 1.131 1.242 1.891 1.588l0.029 0.012c0.064 0.038 0.142 0.060 0.224 0.060s0.16-0.022 0.226-0.061l-0.002 0.001q0.256-0.128 0.512-0.96c0.106-0.291 0.167-0.628 0.167-0.978 0-0.072-0.003-0.144-0.008-0.215l0.001 0.010-0.224-0.384c-0.573-0.889-0.913-1.975-0.913-3.141 0-0.406 0.041-0.802 0.12-1.185l-0.007 0.038c0.259-1.478 0.906-2.773 1.831-3.816l-0.007 0.008c1.376-1.243 3.178-2.039 5.163-2.143l0.021-0.001c0.193-0.020 0.417-0.031 0.644-0.031 1.689 0 3.234 0.617 4.421 1.638l-0.009-0.008c0.736 0.867 1.249 1.945 1.435 3.132l0.005 0.036c0.107 0.534 0.168 1.148 0.168 1.776s-0.061 1.242-0.178 1.836l0.010-0.060c-0.245 1.206-0.644 2.276-1.182 3.26l0.030-0.060q-1.504 2.336-3.552 2.4c-0.779-0.028-1.471-0.38-1.949-0.925l-0.003-0.003c-0.326-0.357-0.526-0.834-0.526-1.358 0-0.236 0.040-0.462 0.115-0.672l-0.004 0.014c0.198-1.010 0.43-1.869 0.715-2.704l-0.043 0.144c0.304-0.832 0.54-1.806 0.665-2.814l0.007-0.066q-0.192-2.272-2.112-2.336c-0.936 0.068-1.739 0.583-2.201 1.332l-0.007 0.012c-0.464 0.77-0.755 1.69-0.8 2.676l-0 0.012c0.036 0.875 0.233 1.695 0.561 2.444l-0.017-0.044q-0.64 2.688-0.992 4.32-0.128 0.416-0.672 2.56c-0.295 0.96-0.511 2.082-0.604 3.239l-0.004 0.057v1.696c-2.771-1.288-5.039-3.259-6.651-5.701l-0.037-0.059c-1.544-2.298-2.464-5.128-2.464-8.173 0-0.041 0-0.081 0-0.121l-0 0.006z"></path>
</svg>
