<!-- Generated by IcoMoon.io -->
<svg version="1.1" xmlns="http://www.w3.org/2000/svg" width="30" height="32" viewBox="0 0 30 32">
<title>quote-left</title>
<path d="M13.728 17.152v6.848q0 1.44-1.024 2.432t-2.432 0.992h-6.848q-1.408 0-2.432-0.992t-0.992-2.432v-12.576q0-1.856 0.736-3.552t1.952-2.912 2.912-1.952 3.552-0.736h1.12q0.48 0 0.832 0.352t0.32 0.8v2.304q0 0.448-0.32 0.8t-0.832 0.32h-1.12q-1.888 0-3.232 1.344t-1.344 3.232v0.576q0 0.704 0.512 1.216t1.184 0.512h4q1.44 0 2.432 0.992t1.024 2.432zM29.728 17.152v6.848q0 1.44-1.024 2.432t-2.432 0.992h-6.848q-1.408 0-2.432-0.992t-0.992-2.432v-12.576q0-1.856 0.736-3.552t1.952-2.912 2.912-1.952 3.552-0.736h1.12q0.48 0 0.832 0.352t0.32 0.8v2.304q0 0.448-0.32 0.8t-0.832 0.32h-1.12q-1.888 0-3.232 1.344t-1.344 3.232v0.576q0 0.704 0.48 1.216t1.216 0.512h4q1.44 0 2.432 0.992t1.024 2.432z"></path>
</svg>
