<!-- Generated by IcoMoon.io -->
<svg version="1.1" xmlns="http://www.w3.org/2000/svg" width="32" height="32" viewBox="0 0 32 32">
<title>rocket</title>
<path d="M26.144 7.552c0-0.014 0.001-0.031 0.001-0.048 0-0.919-0.745-1.664-1.664-1.664s-1.664 0.745-1.664 1.664c0 0.471 0.196 0.897 0.511 1.2l0.001 0.001c0.299 0.287 0.705 0.464 1.153 0.464 0.902 0 1.637-0.718 1.663-1.613l0-0.002zM29.952 2.624c0.003 0.127 0.005 0.277 0.005 0.427 0 2.496-0.484 4.879-1.362 7.061l0.045-0.127c-1.090 2.391-2.543 4.428-4.314 6.138l-0.006 0.006q-1.376 1.344-3.328 3.008l-0.352 6.464c-0.020 0.184-0.115 0.343-0.254 0.447l-0.002 0.001-6.56 3.84c-0.077 0.038-0.168 0.061-0.265 0.061-0.157 0-0.3-0.059-0.408-0.157l0.001 0-1.088-1.088c-0.101-0.088-0.164-0.218-0.164-0.361 0-0.066 0.013-0.129 0.037-0.186l-0.001 0.003 1.44-4.736-4.8-4.8-4.736 1.44c-0.024 0.008-0.051 0.013-0.080 0.013s-0.056-0.005-0.082-0.013l0.002 0.001c-0.027 0.005-0.058 0.008-0.090 0.008-0.097 0-0.187-0.027-0.264-0.073l0.002 0.001-1.088-1.152c-0.111-0.095-0.181-0.234-0.181-0.39 0-0.105 0.032-0.202 0.086-0.284l-0.001 0.002 3.84-6.528c0.093-0.146 0.24-0.252 0.412-0.287l0.004-0.001 6.464-0.32q1.664-1.984 3.008-3.36c1.709-1.792 3.734-3.265 5.989-4.332l0.123-0.052c2.023-0.795 4.367-1.256 6.818-1.256 0.191 0 0.381 0.003 0.57 0.008l-0.028-0.001c0 0 0.001 0 0.001 0 0.166 0 0.314 0.074 0.414 0.191l0.001 0.001c0.11 0.094 0.183 0.23 0.192 0.382l0 0.002z"></path>
</svg>
