<!-- Generated by IcoMoon.io -->
<svg version="1.1" xmlns="http://www.w3.org/2000/svg" width="32" height="32" viewBox="0 0 32 32">
<title>rss</title>
<path d="M1.088 1.056c0.112-0.002 0.244-0.002 0.376-0.002 8.13 0 15.472 3.372 20.703 8.794l0.008 0.009c5.431 5.24 8.803 12.582 8.803 20.712 0 0.143-0.001 0.287-0.003 0.43l0-0.022h-4.672c0.002-0.118 0.003-0.256 0.003-0.395 0-6.829-2.833-12.996-7.388-17.39l-0.007-0.007c-4.436-4.563-10.633-7.394-17.491-7.394-0.117 0-0.234 0.001-0.351 0.002l0.018-0zM1.088 10.4c0.097-0.002 0.212-0.003 0.326-0.003 5.581 0 10.624 2.305 14.229 6.014l0.005 0.005c3.713 3.595 6.018 8.624 6.018 14.193 0 0.107-0.001 0.213-0.003 0.319l0-0.016h-4.64c0.001-0.062 0.001-0.135 0.001-0.208 0-4.315-1.79-8.212-4.669-10.988l-0.005-0.004c-2.796-2.884-6.705-4.674-11.033-4.674-0.081 0-0.162 0.001-0.243 0.002l0.012-0zM5.568 22.016c0.002 0 0.005 0 0.008 0 1.224 0 2.332 0.502 3.127 1.311l0.001 0.001c0.829 0.778 1.345 1.881 1.345 3.105 0 0.033-0 0.067-0.001 0.1l0-0.005c-0.001 1.213-0.517 2.305-1.341 3.070l-0.003 0.002c-0.796 0.81-1.903 1.312-3.128 1.312-0.003 0-0.006 0-0.009 0h0c-0.012 0-0.026 0-0.040 0-1.225 0-2.332-0.502-3.127-1.312l-0.001-0.001c-0.828-0.768-1.344-1.862-1.344-3.076 0-0.010 0-0.020 0-0.029v0.002c-0.001-0.028-0.001-0.062-0.001-0.095 0-1.223 0.516-2.326 1.343-3.103l0.002-0.002c0.79-0.773 1.872-1.249 3.065-1.249 0.036 0 0.073 0 0.109 0.001l-0.005-0z"></path>
</svg>
