<!-- Generated by IcoMoon.io -->
<svg version="1.1" xmlns="http://www.w3.org/2000/svg" width="32" height="32" viewBox="0 0 32 32">
<title>slack</title>
<path d="M26.624 15.136c0.021-0.001 0.046-0.001 0.071-0.001 0.599 0 1.14 0.245 1.529 0.641l0 0c0.403 0.39 0.658 0.932 0.672 1.533l0 0.003c0.002 0.032 0.003 0.070 0.003 0.107 0 0.903-0.603 1.665-1.429 1.905l-0.014 0.003-2.656 0.928 0.8 2.56c0.079 0.219 0.126 0.472 0.128 0.735v0.001c0 0.008 0 0.018 0 0.027 0 0.618-0.258 1.176-0.671 1.572l-0.001 0.001c-0.392 0.414-0.945 0.672-1.559 0.672-0.003 0-0.006 0-0.010-0h0c-0.491-0.002-0.946-0.157-1.319-0.421l0.007 0.005c-0.38-0.27-0.662-0.656-0.796-1.105l-0.004-0.015-0.8-2.56-4.8 1.6 0.864 2.528c0.061 0.215 0.096 0.462 0.096 0.716 0 0.007-0 0.014-0 0.021v-0.001c0 0.013 0 0.029 0 0.045 0 0.607-0.245 1.156-0.641 1.555l0-0c-0.387 0.414-0.936 0.673-1.546 0.673-0.019 0-0.038-0-0.057-0.001l0.003 0c-0.003 0-0.008 0-0.012 0-0.488 0-0.939-0.156-1.307-0.421l0.007 0.005c-0.378-0.272-0.66-0.657-0.796-1.105l-0.004-0.015-0.896-2.528-2.336 0.8c-0.238 0.076-0.513 0.123-0.797 0.128l-0.003 0c-0.023 0.001-0.050 0.001-0.077 0.001-0.591 0-1.128-0.232-1.524-0.61l0.001 0.001c-0.394-0.399-0.637-0.946-0.637-1.551 0-0.501 0.167-0.964 0.449-1.334l-0.004 0.005c0.287-0.362 0.666-0.638 1.103-0.795l0.017-0.005 2.4-0.8-1.6-4.832-2.4 0.8c-0.221 0.081-0.476 0.128-0.741 0.128-0.009 0-0.019-0-0.028-0h0.001c-0 0-0 0-0 0-1.202 0-2.176-0.974-2.176-2.176 0-0.011 0-0.022 0-0.034l-0 0.002c0-0 0-0 0-0 0-0.481 0.156-0.925 0.42-1.286l-0.004 0.006c0.279-0.37 0.661-0.649 1.104-0.795l0.016-0.005 2.4-0.8-0.8-2.4c-0.075-0.228-0.122-0.492-0.128-0.765l-0-0.003c-0-0.013-0-0.029-0-0.045 0-0.607 0.245-1.156 0.641-1.555l-0 0c0.384-0.396 0.922-0.642 1.516-0.642 0.030 0 0.059 0.001 0.088 0.002l-0.004-0c0.016-0 0.034-0.001 0.053-0.001 0.485 0 0.933 0.156 1.297 0.421l-0.006-0.004c0.38 0.27 0.662 0.656 0.796 1.105l0.004 0.015 0.8 2.464 4.8-1.6-0.8-2.464c-0.074-0.209-0.12-0.45-0.128-0.7l-0-0.004c-0-0.013-0-0.029-0-0.045 0-0.607 0.245-1.156 0.641-1.555l-0 0c0.387-0.414 0.936-0.673 1.546-0.673 0.019 0 0.038 0 0.057 0.001l-0.003-0c0.007-0 0.015-0 0.023-0 0.494 0 0.953 0.156 1.328 0.421l-0.007-0.005c0.38 0.27 0.662 0.656 0.796 1.105l0.004 0.015 0.8 2.496 2.496-0.96c0.172-0.042 0.37-0.066 0.574-0.066 0.035 0 0.069 0.001 0.103 0.002l-0.005-0c0.016-0 0.034-0.001 0.052-0.001 0.599 0 1.143 0.231 1.549 0.61l-0.001-0.001c0.406 0.37 0.66 0.901 0.66 1.492 0 0.493-0.177 0.945-0.471 1.295l0.003-0.003c-0.286 0.376-0.68 0.657-1.136 0.796l-0.016 0.004-2.4 0.8 1.6 4.928 2.528-0.928c0.17-0.043 0.366-0.068 0.567-0.068 0.048 0 0.096 0.001 0.144 0.004l-0.007-0zM14.368 19.2l4.8-1.6-1.6-4.864-4.8 1.664z"></path>
</svg>
