<!-- Generated by IcoMoon.io -->
<svg version="1.1" xmlns="http://www.w3.org/2000/svg" width="32" height="32" viewBox="0 0 32 32">
<title>soundcloud</title>
<path d="M9.312 23.808h-1.312v-11.104c0.416-0.32 0.896-0.608 1.312-0.8v11.904zM13.312 23.808h1.28v-12.704c-0.288 0.384-0.576 0.8-0.8 1.184l-0.48-0.288v11.808zM10.688 23.808h1.312v-12.224c-0.704-0.096-0.8-0.096-1.312 0v12.224zM5.312 23.808h1.28v-9.696c-0.384 0.576-0.704 1.28-0.896 2.080l-0.384-0.192v7.808zM1.312 16.608c-0.8 0.704-1.312 1.792-1.312 3.104s0.512 2.4 1.312 3.072v-6.176zM26.496 15.584c-0.288-3.872-3.2-6.976-6.784-6.976-1.408 0-2.624 0.48-3.712 1.184v13.92h12.096c2.112 0 3.904-1.92 3.904-4.32 0-3.008-2.912-5.088-5.504-3.808zM4 15.584c-0.384 0-0.704 0-1.312 0.224v7.776c0.608 0.224 0.8 0.224 1.312 0.224v-8.224z"></path>
</svg>
