<!-- Generated by IcoMoon.io -->
<svg version="1.1" xmlns="http://www.w3.org/2000/svg" width="32" height="32" viewBox="0 0 32 32">
<title>spin5</title>
<path d="M14.784 0c-0.192 0-0.352 0.16-0.352 0.352v5.856c0 0.192 0.16 0.352 0.352 0.352h2.208c0.032 0 0.032 0 0.032 0 0.224 0 0.384-0.16 0.384-0.352v-5.856c0-0.192-0.16-0.352-0.384-0.352h-2.208c0 0 0 0-0.032 0zM22.784 1.504c-0.128-0.032-0.256 0.064-0.32 0.16l-2.912 5.056c-0.128 0.192-0.064 0.416 0.128 0.512l1.92 1.088c0 0.032 0 0.032 0 0.032 0.192 0.096 0.416 0.032 0.512-0.128l2.912-5.056c0.096-0.192 0.064-0.416-0.128-0.512l-1.952-1.12c-0.032-0.032-0.096-0.032-0.16-0.032zM9.088 1.568c-0.064 0-0.128 0.032-0.192 0.064l-1.952 1.12c-0.16 0.096-0.224 0.32-0.128 0.512l2.912 5.024c0 0 0 0 0 0 0.096 0.192 0.32 0.256 0.512 0.16l1.952-1.12c0.16-0.128 0.224-0.352 0.128-0.512l-2.912-5.024c0-0.032 0-0.032 0-0.032-0.064-0.128-0.192-0.192-0.32-0.192zM28.928 6.784c-0.064 0-0.128 0-0.192 0.032l-5.024 2.912c0 0 0 0 0 0-0.192 0.096-0.256 0.32-0.16 0.512l1.12 1.952c0.128 0.16 0.352 0.224 0.512 0.128l5.024-2.912c0.032 0 0.032 0 0.032 0 0.192-0.096 0.224-0.352 0.128-0.512l-1.12-1.952c-0.064-0.128-0.192-0.192-0.32-0.16zM3.008 6.912c-0.16 0-0.288 0.064-0.352 0.192l-1.12 1.952c-0.096 0.16-0.032 0.384 0.128 0.48l5.056 2.912c0.192 0.128 0.416 0.064 0.512-0.128l1.12-1.92c0 0 0 0 0 0 0.096-0.192 0.032-0.416-0.128-0.512l-5.056-2.912c-0.064-0.032-0.128-0.064-0.16-0.064zM25.792 14.432v0c-0.192 0-0.352 0.16-0.352 0.352v2.208c0 0.032 0 0.032 0 0.032 0 0.224 0.16 0.384 0.352 0.384h5.856c0.192 0 0.352-0.16 0.352-0.384v-2.208c0 0 0 0 0-0.032 0-0.192-0.16-0.352-0.352-0.352h-5.856zM0.384 14.592v0c-0.224 0-0.384 0.16-0.384 0.384v2.208c0 0 0 0 0 0.032 0 0.192 0.16 0.352 0.384 0.352h5.824c0.192 0 0.352-0.16 0.352-0.352v-2.208c0-0.032 0-0.032 0-0.032 0-0.224-0.16-0.384-0.352-0.384h-5.824zM25.088 19.488c-0.128 0-0.256 0.064-0.32 0.192l-1.088 1.92c-0.032 0-0.032 0-0.032 0-0.096 0.192-0.032 0.416 0.128 0.512l5.056 2.912c0.192 0.096 0.416 0.032 0.512-0.128l1.12-1.952c0.096-0.16 0.032-0.384-0.128-0.48l-5.056-2.944c-0.064-0.032-0.128-0.032-0.192-0.032zM6.976 19.648c-0.032 0-0.096 0-0.16 0.032l-5.024 2.912c0 0-0.032 0-0.032 0-0.16 0.096-0.224 0.32-0.128 0.512l1.12 1.952c0.096 0.16 0.32 0.224 0.512 0.128l5.024-2.912c0 0 0 0 0 0 0.192-0.096 0.256-0.32 0.16-0.512l-1.12-1.952c-0.096-0.096-0.224-0.192-0.352-0.16zM21.952 23.52c-0.064 0-0.128 0-0.192 0.032l-1.952 1.12c-0.16 0.128-0.224 0.352-0.128 0.512l2.912 5.024c0 0.032 0 0.032 0 0.032 0.096 0.192 0.352 0.224 0.512 0.128l1.952-1.12c0.16-0.096 0.224-0.32 0.128-0.512l-2.912-5.024c0 0 0 0 0 0-0.064-0.128-0.192-0.192-0.32-0.192zM10.208 23.584c-0.128 0-0.256 0.064-0.32 0.192l-2.912 5.056c-0.096 0.192-0.032 0.416 0.128 0.512l1.952 1.12c0.16 0.096 0.384 0.032 0.48-0.128l2.944-5.056c0.096-0.192 0.032-0.416-0.16-0.512l-1.92-1.12c0 0 0 0 0 0-0.064-0.032-0.128-0.032-0.192-0.064zM14.976 25.44c-0.224 0-0.384 0.16-0.384 0.352v5.856c0 0.192 0.16 0.352 0.384 0.352h2.208c0 0 0 0 0.032 0 0.192 0 0.352-0.16 0.352-0.352v-5.856c0-0.192-0.16-0.352-0.352-0.352h-2.208c-0.032 0-0.032 0-0.032 0z"></path>
</svg>
