<!-- Generated by IcoMoon.io -->
<svg version="1.1" xmlns="http://www.w3.org/2000/svg" width="32" height="32" viewBox="0 0 32 32">
<title>spin3</title>
<path d="M15.808 0c-8.512 0-15.456 6.72-15.808 15.104-0.032 0.608 0.416 0.64 0.416 0.64h2.688c0.512 0 0.608-0.32 0.608-0.576 0.32-6.368 5.632-11.456 12.096-11.456 3.424 0 6.56 1.44 8.736 3.776l-1.856 1.824c-0.352 0.384-0.352 0.864 0.16 0.992l7.904 1.6c0.672 0.16 1.472-0.352 1.184-1.408l-1.856-7.264c-0.064-0.288-0.512-0.704-0.928-0.416l-2.080 1.92c-2.848-2.912-6.848-4.736-11.264-4.736zM28.896 16.256c-0.512 0-0.608 0.32-0.608 0.576-0.32 6.368-5.632 11.456-12.064 11.456-3.456 0-6.56-1.44-8.768-3.776l1.888-1.824c0.32-0.384 0.32-0.864-0.16-0.992l-7.936-1.6c-0.672-0.16-1.472 0.352-1.184 1.408l1.856 7.264c0.064 0.288 0.512 0.704 0.96 0.416l2.048-1.92c2.848 2.912 6.848 4.736 11.296 4.736 8.48 0 15.424-6.72 15.776-15.136 0.032-0.576-0.416-0.608-0.416-0.608h-2.688z"></path>
</svg>
