<!-- Generated by IcoMoon.io -->
<svg version="1.1" xmlns="http://www.w3.org/2000/svg" width="32" height="32" viewBox="0 0 32 32">
<title>spotify-nobg</title>
<path d="M25.6 27.2c-0.384 0.608-1.184 0.8-1.792 0.416-5.12-3.104-11.392-3.808-18.912-2.112-0.704 0.192-1.408-0.32-1.6-0.992-0.192-0.704 0.32-1.408 0.992-1.6 8.224-1.92 15.2-1.12 20.928 2.4 0.576 0.384 0.8 1.184 0.384 1.888zM27.712 19.008c-6.624-4.096-16.416-5.216-24.224-2.912-0.896 0.288-1.376 1.216-1.088 2.112s1.216 1.376 2.112 1.088c6.784-2.112 15.68-0.992 21.376 2.496 0.8 0.512 1.824 0.192 2.304-0.608v0c0.608-0.672 0.32-1.696-0.48-2.176zM30.592 11.712c-8-4.704-20.704-5.216-28.288-2.816-0.992 0.288-1.6 1.408-1.312 2.496 0.32 1.12 1.408 1.696 2.496 1.312 6.624-2.016 18.112-1.6 25.024 2.496v0c0.992 0.608 2.176 0.288 2.784-0.704 0.512-0.992 0.192-2.208-0.704-2.784z"></path>
</svg>
