<!-- Generated by IcoMoon.io -->
<svg version="1.1" xmlns="http://www.w3.org/2000/svg" width="30" height="32" viewBox="0 0 30 32">
<title>star-half-alt</title>
<path d="M21.184 17.088l4.576-4.448-6.336-0.928-1.184-0.192-0.544-1.088-2.848-5.728v17.184l1.056 0.544 5.696 3.008-1.088-6.336-0.224-1.184zM29.248 12.416l-6.464 6.304 1.504 8.928q0.096 0.608-0.096 0.928t-0.608 0.352q-0.288 0-0.704-0.224l-8.032-4.224-8 4.224q-0.416 0.224-0.736 0.224-0.384 0-0.608-0.352t-0.096-0.928l1.536-8.928-6.496-6.304q-0.576-0.576-0.416-1.056t0.96-0.64l8.96-1.28 4.032-8.128q0.352-0.736 0.864-0.736t0.896 0.736l4 8.128 8.96 1.28q0.8 0.128 0.96 0.64t-0.416 1.056z"></path>
</svg>
