<!-- Generated by IcoMoon.io -->
<svg version="1.1" xmlns="http://www.w3.org/2000/svg" width="32" height="32" viewBox="0 0 32 32">
<title>the-dots</title>
<path d="M15.904 0c-8.768 0-15.904 7.136-15.904 15.904s7.136 15.872 15.904 15.872 15.872-7.136 15.872-15.872c0.128-8.768-7.040-15.904-15.872-15.904zM15.904 29.984c-7.68 0-13.984-6.304-13.984-13.984s6.304-14.080 13.984-14.080 13.952 6.304 13.952 13.984-6.176 14.080-13.952 14.080zM15.904 13.984c1.056 0 1.92 0.832 1.92 1.92 0 1.056-0.864 1.92-1.92 1.92-1.088 0-1.92-0.864-1.92-1.92 0-1.088 0.832-1.92 1.92-1.92zM15.904 8.224c1.056 0 1.92 0.832 1.92 1.92s-0.864 1.92-1.92 1.92c-1.088 0-1.92-0.864-1.92-1.92s0.832-1.92 1.92-1.92zM10.144 13.984c1.056 0 1.92 0.832 1.92 1.92 0 1.056-0.864 1.92-1.92 1.92s-1.92-0.864-1.92-1.92c0-1.088 0.832-1.92 1.92-1.92zM21.76 13.984c1.056 0 1.92 0.832 1.92 1.92 0 1.056-0.864 1.92-1.92 1.92s-1.92-0.864-1.92-1.92c0-1.088 0.864-1.92 1.92-1.92zM15.904 19.84c1.056 0 1.92 0.864 1.92 1.92s-0.864 1.92-1.92 1.92c-1.088 0-1.92-0.864-1.92-1.92s0.832-1.92 1.92-1.92z"></path>
</svg>
