<!-- Generated by IcoMoon.io -->
<svg version="1.1" xmlns="http://www.w3.org/2000/svg" width="37" height="32" viewBox="0 0 37 32">
<title>toggle-on</title>
<path d="M0 16q0-2.336 0.928-4.448t2.432-3.648 3.648-2.432 4.416-0.896h13.728q2.304 0 4.416 0.896t3.648 2.432 2.432 3.648 0.928 4.448-0.928 4.448-2.432 3.616-3.648 2.464-4.416 0.896h-13.728q-2.304 0-4.416-0.896t-3.648-2.464-2.432-3.616-0.928-4.448zM25.152 25.152q1.856 0 3.52-0.736t2.944-1.952 1.952-2.912 0.704-3.552-0.704-3.552-1.952-2.912-2.944-1.952-3.52-0.736-3.552 0.736-2.912 1.952-1.952 2.912-0.736 3.552 0.736 3.552 1.952 2.912 2.912 1.952 3.552 0.736z"></path>
</svg>
