<!-- Generated by IcoMoon.io -->
<svg version="1.1" xmlns="http://www.w3.org/2000/svg" width="32" height="32" viewBox="0 0 32 32">
<title>trello</title>
<path d="M14.912 23.744v-17.696c0-0 0-0.001 0-0.001 0-0.3-0.244-0.544-0.544-0.544-0.011 0-0.022 0-0.034 0.001l0.002-0h-8.288c-0.010-0.001-0.021-0.001-0.032-0.001-0.3 0-0.544 0.244-0.544 0.544 0 0 0 0.001 0 0.001v-0 17.696c0 0 0 0.001 0 0.001 0 0.3 0.244 0.544 0.544 0.544 0.011 0 0.022-0 0.034-0.001l-0.002 0h8.288c0.010 0.001 0.021 0.001 0.032 0.001 0.3 0 0.544-0.244 0.544-0.544 0-0 0-0.001 0-0.001v0zM26.528 17.12v-11.072c0-0 0-0.001 0-0.001 0-0.3-0.244-0.544-0.544-0.544-0.011 0-0.022 0-0.034 0.001l0.002-0h-8.288c-0.010-0.001-0.021-0.001-0.032-0.001-0.3 0-0.544 0.244-0.544 0.544 0 0 0 0.001 0 0.001v-0 11.072c0 0 0 0.001 0 0.001 0 0.3 0.244 0.544 0.544 0.544 0.011 0 0.022-0 0.034-0.001l-0.002 0h8.288c0.010 0.001 0.021 0.001 0.032 0.001 0.3 0 0.544-0.244 0.544-0.544 0-0 0-0.001 0-0.001v0zM29.28 3.808v24.384c0 0.005 0 0.010 0 0.016 0 0.305-0.122 0.582-0.32 0.784l0-0c-0.192 0.198-0.461 0.321-0.758 0.321-0.015 0-0.029-0-0.044-0.001l0.002 0h-24.32c-0.020 0.002-0.044 0.002-0.068 0.002-0.289 0-0.55-0.124-0.731-0.322l-0.001-0.001c-0.203-0.208-0.334-0.487-0.352-0.797l-0-0.003v-24.384c-0-0.004-0-0.008-0-0.013 0-0.312 0.136-0.593 0.351-0.786l0.001-0.001c0.192-0.198 0.461-0.321 0.758-0.321 0.015 0 0.029 0 0.044 0.001l-0.002-0h24.32c0.005-0 0.010-0 0.016-0 0.305 0 0.582 0.122 0.784 0.32l-0-0c0.199 0.177 0.323 0.433 0.323 0.719 0 0.029-0.001 0.057-0.004 0.085l0-0.004z"></path>
</svg>
