<!-- Generated by IcoMoon.io -->
<svg version="1.1" xmlns="http://www.w3.org/2000/svg" width="30" height="32" viewBox="0 0 30 32">
<title>upload</title>
<path d="M22.848 26.272q0-0.448-0.32-0.8t-0.8-0.32-0.832 0.32-0.32 0.8 0.32 0.832 0.832 0.32 0.8-0.32 0.32-0.832zM27.424 26.272q0-0.448-0.32-0.8t-0.832-0.32-0.8 0.32-0.32 0.8 0.32 0.832 0.8 0.32 0.832-0.32 0.32-0.832zM29.728 22.272v5.728q0 0.704-0.512 1.216t-1.216 0.512h-26.272q-0.736 0-1.216-0.512t-0.512-1.216v-5.728q0-0.704 0.512-1.216t1.216-0.48h7.616q0.384 0.992 1.248 1.632t1.984 0.64h4.576q1.088 0 1.952-0.64t1.28-1.632h7.616q0.704 0 1.216 0.48t0.512 1.216zM23.904 10.72q-0.288 0.704-1.056 0.704h-4.576v8q0 0.48-0.32 0.8t-0.8 0.352h-4.576q-0.48 0-0.8-0.352t-0.352-0.8v-8h-4.576q-0.736 0-1.056-0.704-0.288-0.704 0.256-1.248l8-8q0.32-0.32 0.8-0.32t0.8 0.32l8 8q0.576 0.544 0.256 1.248z"></path>
</svg>
