<!-- Generated by IcoMoon.io -->
<svg version="1.1" xmlns="http://www.w3.org/2000/svg" width="32" height="32" viewBox="0 0 32 32">
<title>wordpress</title>
<path d="M2.784 16c0-0.001 0-0.003 0-0.005 0-1.957 0.424-3.815 1.186-5.486l-0.034 0.083 6.304 17.312c-2.259-1.102-4.103-2.751-5.408-4.78l-0.032-0.052c-1.265-1.929-2.018-4.293-2.018-6.833 0-0.084 0.001-0.168 0.002-0.252l-0 0.012zM24.928 15.328c-0.001 0.238-0.025 0.471-0.068 0.696l0.004-0.024-0.16 0.8c-0.037 0.298-0.105 0.568-0.2 0.825l0.008-0.025c-0.116 0.281-0.226 0.623-0.31 0.975l-0.010 0.049q-0.192 0.736-0.288 0.96l-1.312 4.416-4.8-14.208 1.504-0.128c0.002 0 0.003 0 0.005 0 0.214 0 0.397-0.131 0.473-0.317l0.001-0.003c0.029-0.060 0.046-0.131 0.046-0.206 0-0.117-0.042-0.224-0.111-0.307l0.001 0.001c-0.112-0.138-0.282-0.225-0.472-0.225-0.014 0-0.028 0-0.041 0.001l0.002-0-3.488 0.192q-1.312 0-3.456-0.192c-0.029-0.006-0.062-0.010-0.096-0.010-0.095 0-0.183 0.027-0.258 0.075l0.002-0.001c-0.104 0.060-0.177 0.164-0.192 0.286l-0 0.002c-0.003 0.043-0.005 0.093-0.005 0.144s0.002 0.101 0.006 0.151l-0-0.007c0.012 0.118 0.072 0.22 0.159 0.287l0.001 0.001c0.087 0.097 0.212 0.158 0.352 0.16h0l1.344 0.128 2.048 5.6-2.912 8.672-4.8-14.304q0.8 0 1.504-0.096c0.223-0.003 0.411-0.148 0.479-0.348l0.001-0.004c0.029-0.060 0.046-0.131 0.046-0.206 0-0.117-0.042-0.224-0.111-0.307l0.001 0.001c-0.106-0.137-0.271-0.225-0.456-0.225-0.008 0-0.017 0-0.025 0.001l0.001-0-3.52 0.192h-0.8c2.358-3.631 6.389-6.003 10.974-6.016h0.002c1.729 0.001 3.379 0.341 4.886 0.959l-0.086-0.031c1.581 0.636 2.939 1.5 4.106 2.569l-0.010-0.009h-0.192c-0.024-0.001-0.053-0.002-0.082-0.002-0.601 0-1.142 0.259-1.517 0.672l-0.002 0.002c-0.396 0.439-0.639 1.023-0.64 1.664v0c-0.005 0.062-0.008 0.135-0.008 0.208s0.003 0.146 0.008 0.218l-0.001-0.010q0 0.192 0.064 0.352c0.038 0.158 0.093 0.296 0.164 0.425l-0.004-0.009c0.059 0.1 0.113 0.216 0.156 0.338l0.004 0.014c0.045 0.147 0.11 0.274 0.194 0.387l-0.002-0.003c0.091 0.1 0.166 0.217 0.221 0.344l0.003 0.008c0.064 0.16 0.15 0.298 0.257 0.417l-0.001-0.001c0.105 0.103 0.183 0.232 0.223 0.378l0.001 0.006c0.696 1.027 1.131 2.282 1.184 3.635l0 0.013zM16.224 17.12l4.096 11.136c-0 0.003-0 0.007-0 0.011 0 0.079 0.024 0.153 0.065 0.214l-0.001-0.001c-1.306 0.466-2.812 0.736-4.381 0.736-0.001 0-0.002 0-0.003 0h0c-0.020 0-0.043 0-0.066 0-1.312 0-2.578-0.199-3.768-0.568l0.090 0.024zM27.584 9.632c1.007 1.808 1.6 3.966 1.6 6.263 0 0.037-0 0.074-0 0.11l0-0.006c0 0.027 0 0.059 0 0.092 0 2.41-0.666 4.665-1.825 6.59l0.032-0.058c-1.185 1.995-2.805 3.615-4.738 4.766l-0.062 0.034 4.064-11.68c0.548-1.396 0.905-3.012 0.991-4.699l0.002-0.037c0.002-0.064 0.002-0.14 0.002-0.216 0-0.397-0.024-0.789-0.071-1.174l0.005 0.046zM16 0.608c0.031-0 0.068-0 0.105-0 2.126 0 4.147 0.448 5.974 1.254l-0.095-0.037c1.906 0.826 3.538 1.925 4.933 3.269l-0.005-0.005c1.387 1.361 2.494 3.002 3.23 4.833l0.034 0.095c0.736 1.768 1.179 3.819 1.216 5.969l0 0.015c0.002 0.091 0.003 0.199 0.003 0.307 0 2.057-0.449 4.009-1.255 5.763l0.035-0.086c-0.837 1.903-1.934 3.533-3.27 4.935l0.006-0.007c-1.367 1.378-3.006 2.483-4.831 3.229l-0.097 0.035c-1.764 0.781-3.821 1.236-5.984 1.236s-4.22-0.455-6.081-1.274l0.097 0.038c-1.922-0.781-3.561-1.886-4.927-3.263l-0.001-0.001c-1.33-1.395-2.427-3.025-3.221-4.82l-0.043-0.108c-0.77-1.668-1.219-3.62-1.219-5.677 0-0.108 0.001-0.216 0.004-0.323l-0 0.016c0.037-2.165 0.48-4.216 1.257-6.095l-0.041 0.111c0.77-1.926 1.877-3.567 3.262-4.926l0.002-0.002c1.389-1.339 3.022-2.438 4.822-3.223l0.106-0.041c1.733-0.769 3.754-1.216 5.879-1.216 0.037 0 0.074 0 0.111 0l-0.006-0zM16 30.688c0.025 0 0.055 0 0.085 0 2.028 0 3.957-0.424 5.703-1.188l-0.092 0.036c3.555-1.512 6.328-4.285 7.804-7.745l0.036-0.095c0.739-1.68 1.169-3.638 1.169-5.696s-0.43-4.016-1.205-5.789l0.036 0.093c-1.512-3.555-4.285-6.328-7.745-7.804l-0.095-0.036c-1.68-0.739-3.638-1.169-5.696-1.169s-4.016 0.43-5.789 1.205l0.093-0.036c-3.542 1.518-6.304 4.29-7.772 7.745l-0.036 0.095c-0.739 1.68-1.169 3.638-1.169 5.696s0.43 4.016 1.205 5.789l-0.036-0.093c1.504 3.55 4.266 6.322 7.713 7.804l0.095 0.036c1.655 0.728 3.583 1.152 5.611 1.152 0.030 0 0.059-0 0.089-0l-0.005 0z"></path>
</svg>
