<!-- Generated by IcoMoon.io -->
<svg version="1.1" xmlns="http://www.w3.org/2000/svg" width="32" height="32" viewBox="0 0 32 32">
<title>behance</title>
<path d="M27.136 8.48h-6.816v1.632h6.816zM23.776 14.176c-0.033-0.001-0.072-0.002-0.111-0.002-0.709 0-1.355 0.268-1.843 0.708l0.002-0.002c-0.485 0.484-0.789 1.149-0.8 1.886l-0 0.002h5.376q-0.192-2.592-2.624-2.592zM24 21.952c0.587-0.004 1.138-0.157 1.617-0.425l-0.017 0.009c0.483-0.23 0.85-0.639 1.020-1.138l0.004-0.014h2.976q-1.312 4.096-5.696 4.096c-0.081 0.004-0.177 0.006-0.273 0.006-1.668 0-3.177-0.675-4.271-1.766l0 0c-1.092-1.146-1.764-2.701-1.764-4.412 0-0.080 0.001-0.16 0.004-0.239l-0 0.011c-0.001-0.051-0.002-0.112-0.002-0.172 0-1.719 0.671-3.281 1.765-4.439l-0.003 0.003c1.080-1.127 2.597-1.827 4.278-1.827 0.071 0 0.142 0.001 0.213 0.004l-0.010-0c0.044-0.001 0.097-0.002 0.149-0.002 1.134 0 2.189 0.335 3.073 0.911l-0.022-0.013c0.888 0.596 1.588 1.409 2.033 2.365l0.015 0.035c0.426 0.914 0.675 1.985 0.675 3.114 0 0.075-0.001 0.15-0.003 0.225l0-0.011q0 0.224 0 0.64h-8.8c-0.002 0.045-0.004 0.098-0.004 0.151 0 0.815 0.305 1.559 0.806 2.124l-0.003-0.003c0.509 0.484 1.2 0.782 1.96 0.782 0.099 0 0.196-0.005 0.292-0.015l-0.012 0.001zM6.176 21.312h3.936q2.72 0 2.72-2.24 0-2.4-2.656-2.4h-4zM6.176 14.144h3.712c0.043 0.003 0.093 0.004 0.144 0.004 0.575 0 1.104-0.194 1.526-0.52l-0.006 0.004c0.376-0.351 0.611-0.85 0.611-1.404 0-0.035-0.001-0.070-0.003-0.105l0 0.005q0-1.888-2.528-1.888h-3.456zM2.464 7.36h7.936c0.027-0 0.059-0 0.091-0 0.693 0 1.369 0.070 2.022 0.203l-0.065-0.011c0.639 0.131 1.207 0.341 1.729 0.624l-0.033-0.016c0.534 0.288 0.954 0.728 1.209 1.263l0.007 0.017c0.264 0.576 0.418 1.249 0.418 1.958 0 0.043-0.001 0.086-0.002 0.128l0-0.006c0.001 0.032 0.002 0.069 0.002 0.106 0 1.537-0.942 2.854-2.281 3.405l-0.024 0.009c0.953 0.21 1.755 0.751 2.296 1.493l0.008 0.011c0.491 0.772 0.783 1.713 0.783 2.722 0 0.655-0.123 1.281-0.347 1.857l0.012-0.035c-0.21 0.548-0.514 1.017-0.897 1.409l0.001-0.001c-0.374 0.368-0.807 0.678-1.283 0.915l-0.029 0.013c-0.459 0.236-0.993 0.434-1.552 0.566l-0.048 0.010c-0.46 0.105-0.989 0.165-1.531 0.165-0.092 0-0.183-0.002-0.274-0.005l0.013 0h-8.16z"></path>
</svg>
