<!-- Generated by IcoMoon.io -->
<svg version="1.1" xmlns="http://www.w3.org/2000/svg" width="32" height="32" viewBox="0 0 32 32">
<title>bookbub-new</title>
<path d="M17.28 26.4v-20.256h6.816c1.664-0.064 3.424 0.32 4.864 1.28 1.12 0.8 1.856 2.080 1.76 3.456 0 1.024-0.32 2.080-1.024 2.88-0.736 0.864-1.696 1.44-2.72 1.76v0c1.28 0.064 2.464 0.704 3.36 1.6 0.864 0.864 1.28 2.080 1.28 3.264 0.064 1.696-0.64 3.296-1.92 4.416-1.536 1.12-3.36 1.664-5.216 1.6h-7.2zM21.216 9.184v5.28h2.080c0.864 0.096 1.76-0.224 2.464-0.704 0.576-0.576 0.896-1.28 0.896-2.080 0-1.6-1.216-2.4-3.52-2.4l-1.92-0.096zM21.216 17.504v5.92h2.72c0.96 0.096 1.92-0.224 2.72-0.8 0.64-0.544 0.96-1.344 0.96-2.24 0-1.92-1.28-2.88-3.776-2.88h-2.624zM0.96 26.4v-20.256h6.816c1.664-0.064 3.424 0.32 4.864 1.28 1.12 0.8 1.856 2.080 1.76 3.456 0 1.024-0.32 2.080-1.024 2.88-0.736 0.864-1.696 1.44-2.72 1.76v0c1.28 0.064 2.464 0.704 3.36 1.6 0.864 0.864 1.28 2.080 1.28 3.264 0.064 1.696-0.64 3.296-1.92 4.416-1.536 1.12-3.36 1.664-5.216 1.6h-7.2zM4.896 9.184v5.28h2.080c0.864 0.096 1.76-0.224 2.464-0.704 0.576-0.576 0.896-1.28 0.896-2.080 0-1.6-1.216-2.4-3.52-2.4l-1.92-0.096zM4.896 17.504v5.92h2.72c0.96 0.096 1.92-0.224 2.72-0.8 0.64-0.544 0.96-1.344 0.96-2.24 0-1.92-1.28-2.88-3.776-2.88h-2.624z"></path>
</svg>
