<!-- Generated by IcoMoon.io -->
<svg version="1.1" xmlns="http://www.w3.org/2000/svg" width="30" height="32" viewBox="0 0 30 32">
<title>cart-plus</title>
<path d="M21.728 12.576q0-0.48-0.352-0.8t-0.8-0.352h-2.304v-2.272q0-0.48-0.32-0.8t-0.8-0.352-0.8 0.352-0.352 0.8v2.272h-2.272q-0.48 0-0.832 0.352t-0.32 0.8 0.32 0.8 0.832 0.352h2.272v2.272q0 0.448 0.352 0.8t0.8 0.352 0.8-0.352 0.32-0.8v-2.272h2.304q0.448 0 0.8-0.352t0.352-0.8zM11.424 27.424q0 0.96-0.672 1.632t-1.6 0.672-1.632-0.672-0.672-1.632 0.672-1.6 1.632-0.672 1.6 0.672 0.672 1.6zM27.424 27.424q0 0.96-0.672 1.632t-1.6 0.672-1.632-0.672-0.672-1.632 0.672-1.6 1.632-0.672 1.6 0.672 0.672 1.6zM29.728 8v9.152q0 0.416-0.288 0.736t-0.736 0.384l-18.656 2.176q0.032 0.128 0.096 0.384t0.096 0.48 0.032 0.416q0 0.256-0.416 1.12h16.416q0.48 0 0.832 0.352t0.32 0.8-0.32 0.8-0.832 0.352h-18.272q-0.448 0-0.8-0.352t-0.352-0.8q0-0.256 0.192-0.704t0.544-1.056 0.352-0.672l-3.136-14.72h-3.648q-0.48 0-0.8-0.32t-0.352-0.8 0.352-0.832 0.8-0.32h4.576q0.288 0 0.512 0.096t0.352 0.288 0.224 0.448 0.128 0.48 0.096 0.512 0.096 0.448h21.44q0.448 0 0.8 0.352t0.352 0.8z"></path>
</svg>
