<!-- Generated by IcoMoon.io -->
<svg version="1.1" xmlns="http://www.w3.org/2000/svg" width="32" height="32" viewBox="0 0 32 32">
<title>cloudapp</title>
<path d="M0.928 20c-0-0.012-0-0.027-0-0.041 0-1.867 0.772-3.553 2.014-4.757l0.002-0.002c1.196-1.244 2.873-2.016 4.732-2.016 0.024 0 0.048 0 0.072 0l-0.004-0v-0.192c0.005-0.024 0.008-0.052 0.008-0.080s-0.003-0.056-0.009-0.083l0 0.003c-0.001-0.043-0.001-0.093-0.001-0.143 0-2.087 0.858-3.974 2.24-5.328l0.001-0.001c1.347-1.402 3.238-2.272 5.332-2.272 0.027 0 0.053 0 0.080 0l-0.004-0c0.020-0 0.043-0 0.066-0 1.866 0 3.57 0.691 4.871 1.832l-0.008-0.007c1.353 1.118 2.301 2.683 2.617 4.467l0.007 0.045h0.48c0 0 0 0 0 0 4.242 0 7.68 3.438 7.68 7.68 0 0.023-0 0.045-0 0.067l0-0.003c0 0.019 0 0.041 0 0.064 0 2.112-0.856 4.024-2.24 5.408v0c-1.33 1.383-3.196 2.242-5.262 2.242-0.063 0-0.125-0.001-0.187-0.002l0.009 0c-0.053 0.007-0.114 0.011-0.176 0.011s-0.123-0.004-0.183-0.012l0.007 0.001h-15.712c-1.805-0.065-3.412-0.864-4.539-2.107l-0.005-0.005c-1.169-1.217-1.888-2.873-1.888-4.696 0-0.025 0-0.050 0-0.076l-0 0.004z"></path>
</svg>
