<!-- Generated by IcoMoon.io -->
<svg version="1.1" xmlns="http://www.w3.org/2000/svg" width="32" height="32" viewBox="0 0 32 32">
<title>google-play</title>
<path d="M22.144 16c0.003-0.026 0.004-0.056 0.004-0.086 0-0.332-0.18-0.621-0.448-0.776l-0.004-0.002-8.192-5.12c-0.149-0.099-0.331-0.158-0.528-0.158s-0.379 0.059-0.532 0.16l0.004-0.002c-0.325 0.159-0.544 0.486-0.544 0.865 0 0.011 0 0.021 0.001 0.032l-0-0.002v10.208c-0 0.009-0.001 0.020-0.001 0.031 0 0.379 0.22 0.707 0.539 0.863l0.006 0.003c0.14 0.061 0.303 0.097 0.475 0.097 0.013 0 0.026-0 0.039-0.001l-0.002 0c0.014 0.001 0.030 0.001 0.046 0.001 0.183 0 0.354-0.048 0.503-0.132l-0.005 0.003 8.192-5.12c0.272-0.157 0.452-0.447 0.452-0.778 0-0.030-0.002-0.060-0.004-0.089l0 0.004zM30.336 16q0 1.536 0 2.4t-0.128 2.176c-0.042 0.849-0.168 1.649-0.37 2.417l0.018-0.081c-0.163 0.785-0.548 1.463-1.087 1.983l-0.001 0.001c-0.525 0.518-1.225 0.859-2.004 0.927l-0.012 0.001c-2.718 0.253-5.877 0.397-9.070 0.397-0.58 0-1.159-0.005-1.737-0.014l0.087 0.001c-0.491 0.008-1.070 0.013-1.65 0.013-3.193 0-6.353-0.144-9.472-0.426l0.402 0.029c-0.777-0.085-1.463-0.423-1.985-0.929l0.001 0.001c-0.555-0.516-0.952-1.194-1.116-1.959l-0.004-0.025q-0.224-1.024-0.352-2.336c-0.082-0.607-0.129-1.309-0.129-2.022 0-0.054 0-0.109 0.001-0.163l-0 0.008q0-0.864 0-2.4c-0.024-0.359-0.038-0.778-0.038-1.2s0.014-0.841 0.041-1.256l-0.003 0.056q0.096-0.864 0.128-2.176c0.001-0.834 0.13-1.637 0.367-2.393l-0.015 0.057c0.163-0.785 0.548-1.463 1.087-1.983l0.001-0.001c0.525-0.518 1.225-0.859 2.004-0.927l0.012-0.001c2.809-0.27 6.074-0.424 9.375-0.424 0.462 0 0.923 0.003 1.383 0.009l-0.070-0.001c0.399-0.006 0.87-0.009 1.341-0.009 3.302 0 6.568 0.154 9.791 0.456l-0.412-0.031c0.789 0.077 1.487 0.417 2.017 0.929l-0.001-0.001c0.55 0.508 0.946 1.175 1.115 1.927l0.005 0.025c0.145 0.674 0.258 1.484 0.317 2.31l0.003 0.058q0.128 1.312 0.128 2.176t0.032 2.4z"></path>
</svg>
