<!-- Generated by IcoMoon.io -->
<svg version="1.1" xmlns="http://www.w3.org/2000/svg" width="32" height="32" viewBox="0 0 32 32">
<title>instagram</title>
<path d="M24.768 16c0-0.023 0-0.050 0-0.076 0-0.575-0.070-1.133-0.202-1.667l0.010 0.047h5.92v11.584c0 0.019 0 0.041 0 0.064 0 1.237-0.502 2.357-1.312 3.168v0c-0.784 0.829-1.891 1.345-3.118 1.345-0.029 0-0.057-0-0.086-0.001l0.004 0h-19.936c-0.024 0-0.053 0.001-0.082 0.001-1.228 0-2.335-0.516-3.116-1.343l-0.002-0.002c-0.811-0.811-1.312-1.931-1.312-3.168 0-0.022 0-0.045 0-0.067l-0 0.003v-11.584h5.856c-0.080 0.491-0.138 1.076-0.159 1.67l-0.001 0.026c-0 0.021-0 0.047-0 0.072 0 2.38 0.98 4.53 2.559 6.070l0.002 0.002c1.532 1.618 3.695 2.625 6.093 2.625 0.040 0 0.081-0 0.121-0.001l-0.006 0c0.030 0 0.065 0.001 0.1 0.001 2.387 0 4.542-0.994 6.073-2.59l0.003-0.003c1.599-1.534 2.593-3.689 2.593-6.076 0-0.035-0-0.070-0.001-0.105l0 0.005zM25.984 1.504c0.025-0.001 0.055-0.001 0.085-0.001 1.221 0 2.324 0.503 3.114 1.312l0.001 0.001c0.81 0.791 1.313 1.894 1.313 3.115 0 0.030-0 0.060-0.001 0.089l0-0.004v4.928h-7.36c-1.513-2.252-4.050-3.715-6.929-3.715-0.073 0-0.145 0.001-0.218 0.003l0.011-0c-0.097-0.004-0.211-0.007-0.325-0.007-2.845 0-5.348 1.468-6.791 3.687l-0.019 0.031h-7.328v-4.928c-0.001-0.025-0.001-0.055-0.001-0.085 0-1.221 0.503-2.324 1.312-3.114l0.001-0.001c0.791-0.81 1.894-1.313 3.115-1.313 0.030 0 0.060 0 0.089 0.001l-0.004-0zM28.128 7.104v-2.4c0.005-0.031 0.008-0.067 0.008-0.104 0-0.389-0.315-0.704-0.704-0.704-0.037 0-0.073 0.003-0.108 0.008l0.004-0.001h-2.4c-0.031-0.005-0.067-0.008-0.104-0.008-0.389 0-0.704 0.315-0.704 0.704 0 0.037 0.003 0.073 0.008 0.108l-0-0.004v2.4c0.003 0.212 0.088 0.403 0.224 0.544l-0-0c0.134 0.174 0.342 0.285 0.576 0.288h2.4c0.033 0.005 0.071 0.009 0.109 0.009 0.389 0 0.704-0.315 0.704-0.704 0-0.048-0.005-0.096-0.014-0.141l0.001 0.005zM21.408 16c-0.018 2.973-2.432 5.376-5.408 5.376-0 0-0 0-0 0v0c-2.962-0.018-5.358-2.414-5.376-5.374v-0.002c-0.001-0.032-0.001-0.069-0.001-0.107 0-1.468 0.614-2.792 1.599-3.731l0.002-0.002c0.953-0.968 2.277-1.568 3.742-1.568 0.012 0 0.024 0 0.036 0h-0.002c0.020-0 0.043-0 0.066-0 1.465 0 2.789 0.6 3.741 1.568l0.001 0.001c0.987 0.94 1.601 2.265 1.601 3.733 0 0.038-0 0.075-0.001 0.113l0-0.006z"></path>
</svg>
