<!-- Generated by IcoMoon.io -->
<svg version="1.1" xmlns="http://www.w3.org/2000/svg" width="32" height="32" viewBox="0 0 32 32">
<title>jsfiddle</title>
<path d="M27.072 15.072c1.072 0.436 1.954 1.153 2.58 2.061l0.012 0.019c0.602 0.846 0.962 1.901 0.962 3.039 0 0.057-0.001 0.113-0.003 0.169l0-0.008c0.001 0.029 0.001 0.063 0.001 0.097 0 1.533-0.638 2.917-1.663 3.901l-0.002 0.002c-1.016 1.028-2.426 1.665-3.985 1.665-0.039 0-0.078-0-0.117-0.001l0.006 0h-17.664c-1.614-0.074-3.058-0.744-4.129-1.793l0.001 0.001c-1.027-0.981-1.665-2.361-1.665-3.89 0-0.039 0-0.077 0.001-0.116l-0 0.006c0-0.001 0-0.003 0-0.004 0-1.062 0.298-2.055 0.814-2.9l-0.014 0.024c0.499-0.886 1.192-1.609 2.023-2.13l0.025-0.014c-0.102-0.331-0.161-0.711-0.161-1.104 0-0.028 0-0.056 0.001-0.084l-0 0.004c-0-0.021-0.001-0.045-0.001-0.070 0-1.081 0.454-2.056 1.183-2.745l0.002-0.002c0.719-0.726 1.714-1.177 2.815-1.184h0.001c0.001 0 0.002 0 0.003 0 0.935 0 1.793 0.326 2.468 0.87l-0.008-0.006c0.731-1.489 1.823-2.705 3.165-3.563l0.035-0.021c1.263-0.824 2.808-1.314 4.468-1.314 0.060 0 0.12 0.001 0.18 0.002l-0.009-0c0.024-0 0.053-0 0.081-0 1.584 0 3.068 0.428 4.343 1.174l-0.041-0.022c1.331 0.763 2.413 1.824 3.178 3.097l0.022 0.039c0.724 1.186 1.153 2.62 1.153 4.155 0 0.047-0 0.093-0.001 0.14l0-0.007v0.256c-0.009 0.094-0.032 0.181-0.066 0.262l0.002-0.006zM8.064 18.88c-0.002 0.043-0.003 0.094-0.003 0.145 0 1.038 0.458 1.97 1.183 2.603l0.004 0.003c0.761 0.639 1.75 1.026 2.83 1.026 0.051 0 0.102-0.001 0.153-0.003l-0.007 0c0.016 0 0.035 0 0.054 0 1.318 0 2.511-0.539 3.369-1.408l0-0-0.672-0.8q-0.416-0.512-0.64-0.736c-0.514 0.552-1.238 0.904-2.044 0.928l-0.004 0c-0.012 0-0.027 0-0.042 0-0.488 0-0.934-0.182-1.273-0.482l0.002 0.002c-0.354-0.312-0.576-0.767-0.576-1.274 0-0.002 0-0.005 0-0.007v0c0-0 0-0.001 0-0.002 0-0.488 0.223-0.925 0.573-1.212l0.003-0.002c0.341-0.298 0.79-0.48 1.282-0.48 0.010 0 0.021 0 0.031 0l-0.002-0c0.433 0.001 0.84 0.107 1.198 0.295l-0.014-0.007c0.406 0.22 0.754 0.486 1.055 0.799l0.001 0.001c0.326 0.331 0.63 0.686 0.909 1.061l0.019 0.027q0.448 0.608 0.96 1.152c0.353 0.385 0.718 0.741 1.103 1.074l0.017 0.014c0.393 0.351 0.863 0.625 1.381 0.792l0.027 0.008c0.501 0.156 1.081 0.259 1.68 0.287l0.016 0.001c0.038 0.001 0.084 0.002 0.129 0.002 1.065 0 2.039-0.388 2.789-1.031l-0.006 0.005c0.766-0.644 1.249-1.603 1.249-2.674 0-0.027-0-0.055-0.001-0.082l0 0.004c0.002-0.047 0.004-0.102 0.004-0.157 0-1.025-0.459-1.943-1.183-2.559l-0.005-0.004c-0.774-0.619-1.767-0.994-2.847-0.994-0.045 0-0.090 0.001-0.135 0.002l0.007-0c-0.035-0.001-0.076-0.001-0.117-0.001-1.303 0-2.483 0.526-3.339 1.378l0-0 0.416 0.48q0.224 0.256 0.48 0.608c0.136 0.176 0.272 0.333 0.417 0.481l-0.001-0.001c0.505-0.548 1.217-0.898 2.011-0.928l0.005-0c0.001 0 0.002 0 0.003 0 0.511 0 0.979 0.181 1.344 0.483l-0.004-0.003c0.333 0.26 0.546 0.662 0.546 1.113 0 0.025-0.001 0.050-0.002 0.074l0-0.003c0.002 0.032 0.003 0.070 0.003 0.108 0 0.473-0.198 0.901-0.515 1.203l-0.001 0.001c-0.337 0.299-0.783 0.481-1.271 0.481-0.026 0-0.051-0-0.076-0.001l0.004 0c-0.018 0-0.038 0.001-0.059 0.001-0.409 0-0.796-0.095-1.14-0.263l0.015 0.007c-0.4-0.208-0.74-0.476-1.021-0.796l-0.003-0.004-0.928-1.088-0.992-1.216c-0.331-0.396-0.698-0.743-1.103-1.044l-0.017-0.012c-0.398-0.295-0.85-0.562-1.329-0.781l-0.047-0.019c-0.403-0.172-0.871-0.272-1.362-0.272-0.117 0-0.234 0.006-0.348 0.017l0.015-0.001c-0.042-0.001-0.091-0.002-0.141-0.002-1.066 0-2.045 0.375-2.811 1.001l0.008-0.006c-0.746 0.632-1.217 1.57-1.217 2.618 0 0.025 0 0.049 0.001 0.074l-0-0.004z"></path>
</svg>
