<!-- Generated by IcoMoon.io -->
<svg version="1.1" xmlns="http://www.w3.org/2000/svg" width="32" height="32" viewBox="0 0 32 32">
<title>linkedin</title>
<path d="M7.584 10.816v20h-6.656v-20zM8 4.64c0.001 0.026 0.001 0.057 0.001 0.087 0 0.942-0.407 1.789-1.054 2.374l-0.003 0.002c-0.67 0.598-1.558 0.963-2.531 0.963-0.055 0-0.11-0.001-0.164-0.003l0.008 0c-0.070 0.005-0.151 0.007-0.233 0.007-0.96 0-1.834-0.368-2.489-0.97l0.003 0.002c-0.632-0.597-1.025-1.44-1.025-2.375 0-0.031 0-0.062 0.001-0.093l-0 0.005c-0-0.018-0.001-0.039-0.001-0.059 0-0.957 0.42-1.815 1.085-2.401l0.004-0.003c0.67-0.598 1.558-0.963 2.531-0.963 0.055 0 0.11 0.001 0.164 0.003l-0.008-0c0.052-0.003 0.112-0.004 0.173-0.004 0.958 0 1.831 0.366 2.486 0.967l-0.003-0.002c0.651 0.619 1.056 1.492 1.056 2.459 0 0.002 0 0.003 0 0.005v-0zM31.488 19.328v11.456h-6.624v-10.688c0.004-0.075 0.006-0.164 0.006-0.253 0-1.127-0.324-2.179-0.884-3.067l0.014 0.024c-0.536-0.726-1.388-1.192-2.349-1.192-0.074 0-0.148 0.003-0.22 0.008l0.010-0.001c-0.044-0.002-0.095-0.003-0.146-0.003-0.744 0-1.43 0.254-1.973 0.681l0.007-0.005c-0.545 0.464-0.98 1.042-1.268 1.698l-0.012 0.030c-0.143 0.443-0.225 0.954-0.225 1.483 0 0.041 0 0.082 0.002 0.123l-0-0.006v11.232h-6.624q0-8.064 0-13.056v-6.976h6.656v2.88c0.247-0.424 0.511-0.79 0.807-1.128l-0.007 0.008c0.35-0.373 0.715-0.718 1.1-1.040l0.020-0.016c0.493-0.398 1.084-0.697 1.729-0.857l0.031-0.007c0.686-0.185 1.477-0.301 2.292-0.32l0.012-0c0.088-0.004 0.191-0.006 0.295-0.006 2.067 0 3.929 0.875 5.237 2.274l0.004 0.004q2.112 2.272 2.112 6.72z"></path>
</svg>
