<!-- Generated by IcoMoon.io -->
<svg version="1.1" xmlns="http://www.w3.org/2000/svg" width="32" height="32" viewBox="0 0 32 32">
<title>mail-outline</title>
<path d="M29.216 25.344v-13.216c-0.374 0.415-0.772 0.792-1.196 1.137l-0.020 0.015q-4.576 3.52-7.296 5.792-0.864 0.736-1.44 1.184c-0.425 0.307-0.91 0.576-1.426 0.784l-0.046 0.016c-0.517 0.237-1.121 0.378-1.758 0.384l-0.002 0h-0.032c-0.639-0.011-1.242-0.151-1.789-0.396l0.029 0.012c-0.562-0.213-1.048-0.483-1.488-0.811l0.016 0.011-1.408-1.184q-2.752-2.272-7.36-5.792c-0.431-0.359-0.818-0.736-1.174-1.14l-0.010-0.012v13.216c-0 0.004-0 0.008-0 0.012 0 0.146 0.061 0.278 0.16 0.372l0 0c0.1 0.096 0.235 0.156 0.383 0.16h25.313c0.139-0.006 0.263-0.066 0.352-0.16l0-0c0.101-0.1 0.17-0.233 0.192-0.38l0-0.004zM29.216 7.264v-0.864l-0.096-0.128q-0.096-0.16-0.128-0.128t-0.256-0.064h-25.408c-0.144 0.010-0.27 0.083-0.351 0.191l-0.001 0.001c-0.090 0.096-0.157 0.215-0.191 0.346l-0.001 0.006c0.008 2.011 0.995 3.79 2.51 4.884l0.018 0.012q3.328 2.592 6.912 5.472c0.227 0.152 0.426 0.31 0.611 0.483l-0.003-0.003q0.512 0.448 0.8 0.64t0.8 0.544q0.512 0.288 0.864 0.48c0.188 0.102 0.411 0.163 0.649 0.163 0.031 0 0.061-0.001 0.091-0.003l-0.004 0h-0.032c0.268-0.009 0.519-0.067 0.75-0.165l-0.014 0.005c0.33-0.132 0.615-0.294 0.874-0.487l-0.010 0.007q0.48-0.352 0.8-0.544c0.302-0.19 0.564-0.401 0.8-0.64l0-0c0.167-0.196 0.369-0.357 0.597-0.475l0.011-0.005q3.584-2.88 6.912-5.472c0.676-0.561 1.25-1.216 1.708-1.95l0.020-0.034c0.445-0.637 0.727-1.418 0.768-2.262l0-0.010zM31.424 6.624v18.72c0 0.015 0 0.033 0 0.052 0 0.745-0.306 1.418-0.8 1.9l-0 0c-0.497 0.494-1.183 0.8-1.94 0.8-0.004 0-0.009 0-0.013-0h-25.343c-0.006 0-0.013 0-0.020 0-0.744 0-1.417-0.306-1.899-0.8l-0-0c-0.494-0.468-0.802-1.128-0.802-1.861 0-0.032 0.001-0.064 0.002-0.096l-0 0.005v-18.72c-0-0.015-0-0.033-0-0.052 0-0.745 0.306-1.418 0.8-1.9l0-0c0.483-0.494 1.156-0.8 1.9-0.8 0.007 0 0.014 0 0.021 0h25.343c1.52 0 2.752 1.232 2.752 2.752v0z"></path>
</svg>
