<!-- Generated by IcoMoon.io -->
<svg version="1.1" xmlns="http://www.w3.org/2000/svg" width="32" height="32" viewBox="0 0 32 32">
<title>phone</title>
<path d="M29.312 23.712c-0.025 0.477-0.106 0.925-0.234 1.352l0.010-0.040c-0.11 0.499-0.242 0.927-0.405 1.34l0.021-0.060q-0.384 0.96-2.304 2.048c-1.002 0.583-2.201 0.936-3.481 0.96l-0.007 0c-0.019 0-0.041 0-0.064 0-0.339 0-0.672-0.023-0.998-0.069l0.038 0.004c-0.416-0.074-0.772-0.163-1.118-0.273l0.062 0.017q-0.608-0.16-0.896-0.256l-1.056-0.384-0.96-0.352c-1.253-0.467-2.329-1.006-3.337-1.643l0.073 0.043c-1.898-1.207-3.545-2.548-5.019-4.058l-0.005-0.006c-1.503-1.471-2.833-3.107-3.966-4.881l-0.066-0.111c-0.607-0.937-1.147-2.014-1.564-3.151l-0.036-0.113q-0.064-0.192-0.32-0.96c-0.144-0.432-0.285-0.781-0.443-1.121l0.027 0.065c-0.107-0.248-0.196-0.537-0.252-0.838l-0.004-0.025-0.224-1.088c-0.047-0.217-0.074-0.467-0.074-0.722 0-0.095 0.004-0.189 0.011-0.282l-0.001 0.012c0.024-1.301 0.39-2.512 1.010-3.553l-0.018 0.033q1.024-1.92 1.984-2.272c0.353-0.151 0.78-0.294 1.219-0.403l0.061-0.013c0.39-0.109 0.84-0.178 1.304-0.192l0.008-0c0.020-0.001 0.043-0.002 0.066-0.002 0.126 0 0.247 0.024 0.357 0.069l-0.006-0.002q0.352 0.096 1.024 1.44 0.192 0.352 0.544 1.024c0.23 0.453 0.453 0.83 0.697 1.191l-0.025-0.039c0.198 0.291 0.39 0.627 0.556 0.977l0.020 0.047c0.106 0.131 0.211 0.277 0.308 0.429l0.012 0.019c0.136 0.198 0.275 0.428 0.399 0.667l0.017 0.037c0.081 0.158 0.128 0.345 0.128 0.543 0 0 0 0.001 0 0.001v-0c-0.073 0.375-0.268 0.696-0.542 0.926l-0.002 0.002c-0.352 0.378-0.74 0.715-1.161 1.008l-0.023 0.015c-0.435 0.301-0.814 0.639-1.146 1.017l-0.006 0.007c-0.241 0.224-0.428 0.503-0.54 0.818l-0.004 0.014c0.006 0.163 0.041 0.316 0.099 0.457l-0.003-0.009 0.16 0.352c0.080 0.185 0.166 0.343 0.263 0.492l-0.007-0.012q0.256 0.384 0.256 0.352c0.918 1.701 2.003 3.164 3.267 4.451l-0.003-0.003c1.286 1.27 2.748 2.365 4.346 3.245l0.102 0.051c0.122 0.058 0.227 0.122 0.325 0.195l-0.005-0.003c0.138 0.093 0.295 0.178 0.461 0.249l0.019 0.007 0.352 0.192c0.094 0.047 0.205 0.075 0.323 0.075 0.044 0 0.087-0.004 0.129-0.011l-0.004 0.001c0.353-0.059 0.655-0.245 0.862-0.509l0.002-0.003c0.347-0.359 0.672-0.745 0.97-1.153l0.022-0.031c0.329-0.438 0.675-0.825 1.052-1.18l0.004-0.004c0.246-0.274 0.576-0.468 0.949-0.542l0.011-0.002c0.177 0.008 0.341 0.054 0.486 0.131l-0.006-0.003c0.276 0.141 0.506 0.279 0.727 0.431l-0.023-0.015c0.171 0.109 0.317 0.214 0.457 0.327l-0.009-0.007 1.024 0.576 1.184 0.704q0.64 0.352 1.056 0.576 1.312 0.64 1.408 0.96c0.061 0.122 0.096 0.267 0.096 0.419 0 0.010-0 0.020-0 0.030l0-0.001z"></path>
</svg>
