<!-- Generated by IcoMoon.io -->
<svg version="1.1" xmlns="http://www.w3.org/2000/svg" width="32" height="32" viewBox="0 0 32 32">
<title>pocket</title>
<path d="M4.224 12.48q-0.128-4.48 0.256-5.6c0.056-0.135 0.121-0.251 0.196-0.358l-0.004 0.006c0.076-0.106 0.172-0.192 0.284-0.254l0.004-0.002c0.11-0.054 0.205-0.118 0.289-0.193l-0.001 0.001c0.099-0.093 0.216-0.169 0.345-0.221l0.008-0.003c0.14-0.054 0.256-0.107 0.368-0.168l-0.016 0.008q2.816 0 8-0.032l6.848-0.064h3.104c0.101-0.008 0.219-0.013 0.339-0.013 0.288 0 0.569 0.028 0.841 0.082l-0.027-0.005c0.259 0.082 0.557 0.129 0.866 0.129 0.022 0 0.044-0 0.066-0.001l-0.003 0q0.928 0.064 0.704 0.192c0.218 0.133 0.4 0.304 0.54 0.506l0.004 0.006c0.14 0.175 0.258 0.376 0.346 0.592l0.006 0.016c0.075 0.232 0.132 0.504 0.159 0.784l0.001 0.016c0.041 0.245 0.065 0.526 0.065 0.814 0 0.029-0 0.058-0.001 0.087l0-0.004q0 0.32 0 1.024t0 1.056c0.004 0.217 0.007 0.473 0.007 0.729 0 2.138-0.177 4.235-0.517 6.277l0.030-0.221c-0.312 1.704-1.010 3.207-2.001 4.47l0.017-0.022c-0.942 1.185-2.090 2.16-3.398 2.883l-0.058 0.029c-1.154 0.658-2.509 1.112-3.952 1.276l-0.048 0.004c-0.407 0.043-0.878 0.068-1.356 0.068-0.993 0-1.961-0.106-2.894-0.308l0.090 0.016c-1.452-0.307-2.737-0.839-3.889-1.565l0.049 0.029c-1.216-0.769-2.252-1.693-3.117-2.76l-0.019-0.024c-0.884-1.053-1.574-2.302-1.996-3.669l-0.020-0.075c-0.313-1.658-0.499-3.571-0.512-5.525l-0-0.011zM9.024 12.416q-0.544 0.608 0.32 1.856c0.669 0.968 1.385 1.816 2.173 2.589l0.003 0.003 0.8 0.8q0.8 0.8 1.12 1.056t0.96 0.736c0.339 0.252 0.732 0.459 1.155 0.6l0.029 0.008c0.134 0.039 0.288 0.062 0.447 0.064h0.417c0.157-0.023 0.298-0.079 0.419-0.162l-0.003 0.002c0.092-0.057 0.199-0.101 0.313-0.127l0.007-0.001c0.144-0.050 0.264-0.139 0.351-0.254l0.001-0.002q0.192-0.224 0.224-0.192s0.128-0.064 0.256-0.256l0.064-0.064q0.192-0.16 1.248-1.152t1.792-1.664c0.503-0.503 0.966-1.046 1.381-1.625l0.027-0.039c0.364-0.421 0.623-0.942 0.733-1.516l0.003-0.020c-0.147-0.48-0.427-0.884-0.795-1.18l-0.005-0.004c-0.196-0.133-0.437-0.213-0.697-0.213-0.128 0-0.252 0.019-0.368 0.055l0.009-0.002c-0.451 0.119-0.846 0.305-1.196 0.552l0.012-0.008c-0.453 0.317-0.85 0.643-1.22 0.996l0.004-0.004q-0.608 0.608-1.12 1.152t-1.024 1.056c-0.243 0.252-0.504 0.483-0.783 0.692l-0.017 0.012c-0.564-0.38-1.056-0.79-1.502-1.246l-0.002-0.002q-0.96-0.928-1.664-1.728c-0.46-0.479-0.962-0.911-1.504-1.29l-0.032-0.022q-0.8-0.544-1.152-0.288c-0.436 0.269-0.812 0.543-1.165 0.843l0.013-0.011z"></path>
</svg>
