<!-- Generated by IcoMoon.io -->
<svg version="1.1" xmlns="http://www.w3.org/2000/svg" width="37" height="32" viewBox="0 0 37 32">
<title>ravelry</title>
<path d="M37.12 16.352c0.64-5.984-2.24-11.744-7.52-14.464-5.504-2.848-10.88-2.208-16.32 0.32-0.832 0.352-1.12 0.768-1.44 1.376-0.704 1.376-1.184 2.72-1.44 3.84-1.536 1.856-2.592 4.064-3.104 6.528-0.768 1.28-1.44 3.008-1.696 5.184-0.064 0.544-0.064 0.544-0.064 0.544s-2.56-0.288-5.536-1.952c0.672 1.088 4.448 2.368 5.536 2.72 0.096 7.136 4.672 9.568 4.672 9.568s-0.832-1.248-0.96-1.504c-2.432-4.352-2.016-7.584-2.016-7.584 0.064 0 0.096 0 0.16 0.032 1.728 6.368 7.488 10.976 14.304 10.976 0.416 0 0.864 0 1.28-0.032 1.024 0.096 1.984 0.032 2.912-0.32 0.512-0.16 1.024-0.448 1.504-0.8 5.056-2.848 7.328-5.952 8.928-10.72 0.448-1.088 0.64-2.464 0.8-3.712zM10.048 9.28c-0.096 0.928-0.032 1.44-0.032 1.44-0.256 0.192-0.736 0.576-1.344 1.216 0.416-0.96 0.864-1.824 1.376-2.656zM7.808 18.112c0.288-1.248 0.96-2.88 2.144-4 0.16 3.488 1.12 6.56 1.12 6.56l-3.008-0.512c-0.128-0.672-0.224-1.344-0.256-2.048zM8.416 21.216c1.088 0.256 2.464 0.576 3.136 0.672 0 0 1.984 5.6 7.872 9.024 0.064 0 0.128 0.064 0.224 0.064-5.376-0.832-9.696-4.672-11.232-9.76zM28.064 29.696c-1.024 0.352-2.624 0.608-4.736 0.256-6.624-1.696-9.28-7.84-9.28-7.84 2.784 0.032 3.808 0 5.632-0.32 2.88-0.416 5.76-1.184 8.384-2.4 0.864-0.416 0.768-1.408 0.64-2.176-0.128-0.896-0.8-0.864-1.536-0.352-5.92 4.256-13.792 3.904-13.792 3.904s-1.376-2.304-1.952-8.064c3.040-2.56 6.080-4.288 12.256-3.84 0-0.448 0.224-1.952-1.472-2.048-6.816-0.832-10.624 2.4-10.624 2.4 0.16-1.152 0.416-2.080 0.832-2.848 2.464-2.272 5.728-3.616 9.344-3.616 7.744 0 13.984 6.368 13.984 14.176 0.064 5.632-3.136 10.4-7.68 12.768z"></path>
</svg>
