<!-- Generated by IcoMoon.io -->
<svg version="1.1" xmlns="http://www.w3.org/2000/svg" width="32" height="32" viewBox="0 0 32 32">
<title>snapchat</title>
<path d="M31.104 23.36c-4.256-0.704-6.176-5.056-6.272-5.216 0 0 0 0 0-0.064-0.119-0.21-0.189-0.462-0.189-0.729 0-0.151 0.022-0.296 0.063-0.433l-0.003 0.011c0.256-0.544 1.12-0.832 1.76-1.024 0.128-0.032 0.32-0.096 0.416-0.16 1.056-0.416 1.6-0.928 1.6-1.536-0.061-0.523-0.43-0.946-0.919-1.086l-0.009-0.002c-0.193-0.081-0.418-0.128-0.653-0.128-0.007 0-0.013 0-0.020 0h0.001c-0.21 0.007-0.407 0.054-0.586 0.132l0.010-0.004c-0.389 0.21-0.847 0.348-1.333 0.383l-0.011 0.001c-0.199-0.011-0.384-0.057-0.554-0.132l0.010 0.004c0-0.224 0-0.416 0.064-0.672v-0.064c0.128-2.112 0.32-4.768-0.384-6.336-1.326-2.964-4.249-4.993-7.647-4.993-0.034 0-0.068 0-0.103 0.001l0.005-0h-0.672c-0.029-0-0.062-0.001-0.096-0.001-3.38 0-6.286 2.031-7.563 4.94l-0.021 0.053c-0.704 1.568-0.512 4.192-0.416 6.304 0.035 0.235 0.058 0.512 0.064 0.793l0 0.007c-0.172 0.081-0.374 0.128-0.587 0.128-0.007 0-0.015-0-0.022-0h0.001c-0.533-0.032-1.024-0.182-1.457-0.425l0.017 0.009c-0.142-0.058-0.306-0.093-0.479-0.096l-0.001-0c-0.017-0.001-0.036-0.001-0.056-0.001-0.665 0-1.232 0.423-1.445 1.014l-0.003 0.011c-0.096 0.48 0.096 1.12 1.568 1.664 0.114 0.064 0.251 0.129 0.393 0.184l0.023 0.008c0.608 0.16 1.504 0.48 1.76 1.024 0.045 0.125 0.071 0.269 0.071 0.419 0 0.274-0.086 0.529-0.233 0.737l0.003-0.004v0.064c-0.096 0.16-1.984 4.512-6.24 5.216-0.31 0.048-0.545 0.313-0.545 0.633 0 0.014 0 0.027 0.001 0.041l-0-0.002c0.009 0.106 0.031 0.204 0.066 0.295l-0.002-0.007c0.32 0.8 1.664 1.312 4.096 1.696 0.102 0.21 0.19 0.456 0.251 0.711l0.005 0.025c0.047 0.292 0.102 0.54 0.171 0.783l-0.011-0.047c0.072 0.319 0.352 0.553 0.688 0.553 0.040 0 0.079-0.003 0.117-0.010l-0.004 0.001c0.217-0.003 0.426-0.026 0.629-0.068l-0.021 0.004c0.495-0.129 1.067-0.21 1.655-0.224l0.009-0c0.431 0.016 0.838 0.062 1.236 0.136l-0.052-0.008c0.865 0.224 1.617 0.622 2.248 1.159l-0.008-0.007c1.153 0.982 2.643 1.601 4.275 1.664l0.013 0h0.384c1.647-0.050 3.14-0.671 4.297-1.671l-0.009 0.007c0.636-0.525 1.397-0.923 2.231-1.143l0.041-0.009c0.335-0.064 0.731-0.11 1.135-0.127l0.017-0.001c0.615 0.006 1.211 0.076 1.785 0.203l-0.057-0.011c0.209 0.041 0.449 0.064 0.695 0.064 0.003 0 0.006 0 0.009 0h-0c0.025 0.003 0.053 0.005 0.082 0.005 0.316 0 0.581-0.218 0.653-0.512l0.001-0.005c0.064-0.256 0.128-0.512 0.192-0.736 0.057-0.291 0.123-0.538 0.204-0.779l-0.012 0.043c2.464-0.384 3.808-0.96 4.128-1.696 0.036-0.085 0.059-0.183 0.064-0.286l0-0.002c-0.002-0.318-0.216-0.586-0.507-0.671l-0.005-0.001z"></path>
</svg>
