<!-- Generated by IcoMoon.io -->
<svg version="1.1" xmlns="http://www.w3.org/2000/svg" width="32" height="32" viewBox="0 0 32 32">
<title>spin2</title>
<path d="M1.472 22.592v0c0 0-0.032 0-0.032 0-0.256-0.576-0.48-1.184-0.672-1.76-0.192-0.608-0.352-1.216-0.48-1.856-0.608-3.168-0.256-6.496 1.12-9.536 0.096-0.192 0.32-0.256 0.48-0.16 0.032 0 0.064 0 0.064 0.032v0l2.56 1.888c0.16 0.096 0.192 0.288 0.128 0.448-0.16 0.384-0.288 0.8-0.384 1.184-0.128 0.416-0.224 0.832-0.288 1.28-0.352 2.144-0.096 4.384 0.736 6.432 0.064 0.16 0 0.32-0.128 0.416v0l-2.56 1.792c-0.16 0.128-0.384 0.064-0.512-0.096-0.032 0-0.032-0.032-0.032-0.064v0zM5.312 4.224v0c0-0.032 0-0.032 0-0.032 0.48-0.416 0.96-0.8 1.472-1.184 0.512-0.352 1.056-0.704 1.632-0.992 2.848-1.6 6.144-2.304 9.504-1.92 0.192 0.032 0.32 0.192 0.32 0.416 0 0.032-0.032 0.032-0.032 0.064v0l-0.992 3.008c-0.064 0.16-0.256 0.256-0.416 0.224-0.416 0-0.864 0-1.28 0-0.448 0.032-0.864 0.064-1.28 0.128-2.176 0.352-4.256 1.28-5.952 2.688-0.128 0.096-0.32 0.096-0.448 0v0l-2.528-1.856c-0.16-0.096-0.192-0.352-0.064-0.512 0 0 0.032-0.032 0.064-0.032v0zM24.128 2.144v0c0 0 0.032 0 0.032 0 0.544 0.32 1.088 0.672 1.6 1.024 0.512 0.384 0.992 0.8 1.472 1.216 2.368 2.208 4.064 5.12 4.736 8.384 0.064 0.192-0.064 0.384-0.288 0.416-0.032 0-0.032 0-0.064 0v0l-3.2-0.032c-0.16 0-0.32-0.128-0.352-0.288-0.096-0.416-0.256-0.832-0.384-1.216-0.16-0.384-0.32-0.8-0.544-1.152-0.992-1.952-2.496-3.616-4.384-4.8-0.16-0.096-0.192-0.256-0.16-0.416v0l0.992-2.944c0.064-0.192 0.288-0.288 0.48-0.224 0.032 0 0.064 0.032 0.064 0.032v0zM31.936 19.264v0c0 0 0 0 0 0-0.128 0.64-0.288 1.248-0.48 1.824-0.224 0.608-0.448 1.184-0.704 1.76-1.408 2.944-3.648 5.44-6.56 7.072-0.192 0.096-0.416 0.032-0.512-0.128 0-0.032-0.032-0.064-0.032-0.064v0l-0.96-3.008c-0.064-0.192 0.032-0.384 0.192-0.448 0.352-0.224 0.704-0.48 1.024-0.736 0.352-0.288 0.672-0.576 0.96-0.864 1.568-1.536 2.688-3.488 3.232-5.632 0.064-0.16 0.192-0.256 0.352-0.256v0l3.136 0.032c0.192 0 0.352 0.16 0.352 0.352 0 0.032 0 0.064 0 0.096v0zM17.92 31.904v0c0 0 0 0 0 0-0.64 0.064-1.28 0.096-1.92 0.096s-1.28-0.032-1.888-0.128c-3.264-0.384-6.336-1.728-8.832-4-0.16-0.128-0.16-0.352 0-0.512 0 0 0.032-0.032 0.032-0.032v0l2.592-1.856c0.16-0.096 0.384-0.064 0.512 0.064 0.32 0.256 0.64 0.512 1.024 0.736 0.352 0.224 0.704 0.448 1.088 0.64 1.984 0.992 4.192 1.44 6.4 1.312 0.192 0 0.32 0.096 0.384 0.256v0l0.928 2.944c0.064 0.192-0.032 0.384-0.224 0.448-0.032 0.032-0.064 0.032-0.096 0.032v0z"></path>
</svg>
