<!-- Generated by IcoMoon.io -->
<svg version="1.1" xmlns="http://www.w3.org/2000/svg" width="32" height="32" viewBox="0 0 32 32">
<title>tumblr</title>
<path d="M25.056 29.184c-0.995 0.548-2.146 0.998-3.36 1.292l-0.096 0.020c-0.963 0.244-2.068 0.384-3.206 0.384-0.032 0-0.063-0-0.095-0l0.005 0c-1.269-0.002-2.49-0.201-3.637-0.567l0.085 0.023c-1.023-0.337-1.906-0.839-2.668-1.482l0.012 0.010c-0.657-0.541-1.164-1.243-1.461-2.047l-0.011-0.033c-0.292-0.788-0.461-1.699-0.461-2.649 0-0.16 0.005-0.319 0.014-0.476l-0.001 0.022v-10.4h-3.2v-4.192c1.143-0.364 2.134-0.911 2.992-1.613l-0.016 0.013c0.823-0.719 1.491-1.592 1.963-2.576l0.021-0.048c0.503-1.095 0.845-2.366 0.957-3.702l0.003-0.042h4.192v7.488h7.008v4.672h-7.008v7.616c-0.016 0.226-0.024 0.489-0.024 0.755 0 0.901 0.102 1.777 0.296 2.619l-0.015-0.078c0.204 0.514 0.575 0.926 1.044 1.178l0.012 0.006c0.581 0.402 1.301 0.642 2.077 0.642 0.046 0 0.092-0.001 0.137-0.003l-0.007 0c1.671-0.045 3.207-0.589 4.473-1.489l-0.025 0.017z"></path>
</svg>
