<!-- Generated by IcoMoon.io -->
<svg version="1.1" xmlns="http://www.w3.org/2000/svg" width="32" height="32" viewBox="0 0 32 32">
<title>vimeo</title>
<path d="M31.904 8.64c-0.934 4.855-3.090 9.1-6.136 12.54l0.024-0.028q-4.992 5.888-8.736 8.448c-0.57 0.439-1.293 0.703-2.079 0.703-0.284 0-0.561-0.035-0.825-0.1l0.024 0.005c-0.929-0.249-1.728-0.717-2.369-1.345l0.001 0.001c-0.619-0.615-1.134-1.335-1.516-2.13l-0.020-0.046q-0.544-1.152-2.784-8.544t-2.624-7.936c-0.235-0.174-0.531-0.279-0.852-0.279-0.177 0-0.346 0.032-0.502 0.090l0.010-0.003c-0.61 0.202-1.14 0.462-1.625 0.784l0.025-0.016-0.736 0.48-1.28-1.792q0.672-0.672 1.696-1.824c1.092-1.148 2.263-2.197 3.512-3.148l0.072-0.052c1.222-1.092 2.703-1.92 4.338-2.381l0.078-0.019c0.196-0.052 0.42-0.081 0.652-0.081 0.452 0 0.878 0.113 1.25 0.312l-0.014-0.007c0.534 0.301 0.967 0.724 1.271 1.232l0.009 0.016c0.338 0.617 0.613 1.333 0.789 2.086l0.011 0.058c0.188 0.648 0.377 1.491 0.523 2.348l0.021 0.148q0.16 1.152 0.416 2.688t0.448 2.4q0.512 1.92 0.768 2.848t0.608 1.92c0.167 0.537 0.384 1.003 0.655 1.433l-0.015-0.025c0.135 0.22 0.369 0.369 0.638 0.384l0.002 0q1.408 0 4.48-5.92 1.504-2.72 0.224-4.416t-4-0.096c0.493-2.965 2.373-5.406 4.939-6.664l0.053-0.024q3.712-1.888 6.496-0.288t2.080 6.24z"></path>
</svg>
