<!-- Generated by IcoMoon.io -->
<svg version="1.1" xmlns="http://www.w3.org/2000/svg" width="43" height="32" viewBox="0 0 43 32">
<title>wattpad</title>
<path d="M20.064 16.992c-0.032 0.064-0.064 0.096-0.096 0.16-0.64 1.024-1.216 2.080-1.728 3.136-0.768 1.6-1.504 3.2-2.24 4.8-0.544 1.088-1.088 2.208-1.76 3.232-0.512 0.8-1.088 1.504-1.792 2.112-0.8 0.736-1.728 1.216-2.784 1.408-2.144 0.448-4-0.096-5.568-1.632-0.864-0.832-1.504-1.856-2.016-2.944-0.608-1.312-0.992-2.656-1.312-4.064-0.256-1.216-0.448-2.4-0.544-3.648-0.096-0.992-0.16-2.016-0.192-3.008 0-0.96-0.032-1.92-0.032-2.88 0-1.12 0.064-2.24 0.192-3.36 0.096-1.12 0.288-2.24 0.544-3.36 0.256-1.056 0.608-2.080 1.152-3.040 0.32-0.512 0.672-0.992 1.088-1.408 0.8-0.736 1.76-1.184 2.848-1.312 0.768-0.064 1.568 0 2.304 0.256 1.056 0.352 1.824 1.056 2.336 2.016 0.32 0.608 0.512 1.28 0.608 1.952 0.224 1.248 0.192 2.496 0.128 3.744 0 0.448-0.032 0.928-0.064 1.408-0.064 0.576-0.096 1.152-0.16 1.728 0 0.032 0 0.064 0 0.128 0.096-0.032 0.096-0.096 0.16-0.16 0.48-0.768 0.928-1.536 1.44-2.272 1.184-1.824 2.464-3.616 3.904-5.28 0.8-0.96 1.696-1.856 2.656-2.656 0.608-0.544 1.28-0.992 2.016-1.376 0.928-0.48 1.888-0.736 2.944-0.672 1.472 0.064 2.688 0.64 3.552 1.92 0.224 0.32 0.416 0.704 0.576 1.088 0.288 0.768 0.48 1.568 0.576 2.4 0.096 0.896 0.096 1.792 0.064 2.688-0.032 0.672-0.096 1.344-0.192 2.016-0.032 0.064-0.032 0.128-0.032 0.224 0.096-0.032 0.128-0.096 0.16-0.16 0.768-1.024 1.568-2.016 2.4-2.976 1.216-1.344 2.496-2.656 3.904-3.808 0.768-0.608 1.568-1.184 2.464-1.664 0.608-0.32 1.28-0.576 1.984-0.672 0.736-0.096 1.44-0.032 2.112 0.288 0.832 0.416 1.28 1.12 1.344 2.016 0.064 0.736-0.096 1.408-0.384 2.048-0.224 0.448-0.48 0.896-0.768 1.28-1.152 1.696-2.272 3.36-3.36 5.088-1.28 2.048-2.464 4.192-3.552 6.336-0.928 1.824-1.856 3.68-2.752 5.504-0.576 1.184-1.312 2.24-2.336 3.072-0.768 0.608-1.632 1.056-2.624 1.248-1.376 0.288-2.656 0-3.84-0.736-0.928-0.608-1.632-1.472-2.144-2.464-0.48-0.896-0.8-1.856-0.96-2.848-0.192-1.28-0.256-2.56-0.192-3.872 0-0.32 0.032-0.64 0.032-0.928 0-0.032 0-0.064 0-0.096-0.032 0-0.032 0-0.064 0z"></path>
</svg>
