<!-- Generated by IcoMoon.io -->
<svg version="1.1" xmlns="http://www.w3.org/2000/svg" width="32" height="32" viewBox="0 0 32 32">
<title>yelp</title>
<path d="M16.096 23.296v2.208q0 5.056-0.096 5.248c-0.138 0.372-0.463 0.643-0.858 0.703l-0.006 0.001c-0.062 0.002-0.135 0.003-0.208 0.003-1.066 0-2.073-0.249-2.967-0.693l0.039 0.017c-1.074-0.321-2.005-0.837-2.794-1.513l0.010 0.009c-0.156-0.163-0.269-0.37-0.319-0.6l-0.001-0.008c0.001-0.171 0.024-0.336 0.067-0.493l-0.003 0.013c0.195-0.301 0.396-0.562 0.614-0.806l-0.006 0.006q0.48-0.608 3.104-3.744s0.384-0.384 1.056-1.216c0.173-0.2 0.402-0.346 0.663-0.414l0.009-0.002c0.093-0.026 0.2-0.042 0.311-0.042 0.177 0 0.345 0.039 0.496 0.109l-0.007-0.003c0.277 0.102 0.506 0.279 0.669 0.508l0.003 0.004c0.135 0.198 0.218 0.441 0.224 0.702l0 0.002zM13.504 18.976c0.001 0.020 0.002 0.044 0.002 0.067 0 0.552-0.378 1.016-0.89 1.147l-0.008 0.002-2.048 0.672q-4.736 1.536-5.056 1.536c-0.405-0.026-0.749-0.263-0.925-0.602l-0.003-0.006c-0.148-0.385-0.251-0.831-0.287-1.295l-0.001-0.017c-0.050-0.432-0.078-0.933-0.078-1.44s0.028-1.008 0.083-1.501l-0.005 0.061c0.015-0.783 0.202-1.518 0.525-2.174l-0.013 0.030c0.192-0.341 0.549-0.569 0.959-0.576h0.001c1.412 0.453 2.567 0.908 3.687 1.427l-0.199-0.083 1.984 0.8 1.472 0.576c0.259 0.099 0.47 0.278 0.605 0.506l0.003 0.006c0.125 0.209 0.198 0.46 0.198 0.729 0 0.047-0.002 0.094-0.007 0.141l0-0.006zM27.776 24.096c-0.332 1.084-0.882 2.017-1.604 2.788l0.004-0.004c-0.599 0.913-1.396 1.649-2.334 2.159l-0.034 0.017c-0.131 0.062-0.284 0.099-0.445 0.099-0.229 0-0.441-0.073-0.614-0.197l0.003 0.002q-0.192-0.16-3.136-4.96l-0.8-1.344c-0.124-0.191-0.198-0.424-0.198-0.675 0-0.044 0.002-0.088 0.007-0.13l-0 0.005c0.032-0.31 0.16-0.586 0.353-0.801l-0.001 0.001c0.21-0.309 0.559-0.509 0.956-0.509 0.163 0 0.319 0.034 0.46 0.095l-0.007-0.003 2.080 0.672 4.16 1.376c0.305 0.063 0.574 0.186 0.806 0.356l-0.006-0.004c0.233 0.195 0.381 0.486 0.381 0.812 0 0.087-0.010 0.171-0.030 0.251l0.002-0.007zM16.16 13.184q0.096 1.76-0.928 2.112t-1.952-1.248l-6.496-10.304c-0.028-0.092-0.044-0.197-0.044-0.306 0-0.307 0.127-0.584 0.332-0.782l0-0q0.736-0.736 3.616-1.536t3.84-0.512c0.422 0.077 0.755 0.389 0.862 0.792l0.002 0.008q0 0.288 0.384 5.248t0.384 6.528zM27.616 15.040c0.006 0.041 0.009 0.089 0.009 0.138 0 0.364-0.179 0.686-0.454 0.884l-0.003 0.002q-0.256 0.192-5.696 1.504-1.152 0.256-1.536 0.384v0c-0.092 0.024-0.197 0.038-0.306 0.038-0.179 0-0.349-0.038-0.502-0.105l0.008 0.003c-0.278-0.116-0.506-0.303-0.669-0.539l-0.003-0.005c-0.17-0.208-0.273-0.476-0.273-0.768s0.103-0.56 0.275-0.77l-0.002 0.002s0.48-0.576 1.312-1.76l2.56-3.488c0.166-0.256 0.356-0.477 0.573-0.669l0.003-0.003c0.163-0.104 0.363-0.165 0.576-0.165s0.413 0.061 0.58 0.168l-0.004-0.003c0.88 0.579 1.593 1.342 2.095 2.24l0.017 0.032c0.622 0.827 1.106 1.799 1.394 2.852l0.014 0.060z"></path>
</svg>
